<?xml version="1.0" standalone="yes"?>
<svg xmlns="http://www.w3.org/2000/svg" width="706" height="2200">
<path style="fill:#f1dddb; stroke:none;" d="M0 0L0 50L17 50C19.236 49.9954 22.508 50.468 24.3966 48.9722C27.3508 46.6323 26 39.3157 26 36L26 0L0 0z"/>
<path style="fill:#f3f3f3; stroke:none;" d="M26 0L26 36C26 39.6907 27.2841 46.5686 23.6821 48.9722C21.5594 50.3887 18.4151 49.9951 16 50L0 50L0 56L16 56C18.415 56.0049 21.5595 55.6113 23.6821 57.0278C25.4055 58.1777 25.7706 60.0801 25.9414 62.0046C26.343 66.5312 27.9538 79.1216 23.6821 81.9722C21.5596 83.3884 18.415 82.9951 16 83L0 83L0 91C5.45534 88.6887 19.8901 86.2476 24.3966 91.4336C26.3838 93.7205 25.9942 97.1917 26 100L26 121L26 155C26 159.213 26.9985 165.176 24.1065 168.682C19.7647 173.946 5.44369 171.086 0 169L0 176L29 176C29 189.268 32.1016 214.798 12 214.966C7.70639 215.002 4.03645 213.151 0 212L0 240L52 240L52 272L0 272L0 275L71 275C82.8945 275 96.3963 273.237 108 276C105.733 285.521 107 296.251 107 306L107 361L0 361L0 1136L80 1136L102 1136C106.25 1136 110.981 1135.43 114.999 1137.07C117.832 1138.23 121.022 1140.17 122.258 1143.1C123.728 1146.59 123 1151.3 123 1155L123 1180C123 1185.51 123.686 1191.59 118.736 1195.34C111.148 1201.07 95.0337 1198 86 1198L0 1198L0 1205L49 1205L49 1306L0 1306L0 1312L20 1312C22.8033 1312.01 26.107 1311.63 28.3866 1313.6C34.6299 1319 32 1332.67 32 1340L32 1415C29.636 1415.48 29.4825 1415.64 29 1418L0 1418L0 1425L20 1425C23.1052 1425.01 26.7086 1424.65 29.196 1426.89C33.491 1430.76 32 1438.84 32 1444L32 1483C32 1488.81 32.958 1495.14 28.517 1499.66C22.426 1505.85 8.0126 1503 0 1503L0 1531C15.6796 1528.09 28.6356 1535.89 31.5355 1552C33.5385 1563.13 32 1575.71 32 1587L32 1654L0 1654L0 1664L32 1664L32 1707L0 1707L0 1721L21 1721C23.8455 1721.01 27.3416 1720.63 29.6821 1722.6C34.142 1726.36 32 1737.75 32 1743L32 1802L0 1802L0 1828L49 1828L49 1872L0 1872L0 1927C14.9041 1923.06 31.6265 1925 47 1925C55.6418 1925 63.1245 1924.69 67.9769 1933.3C71.2066 1939.03 69 1950.54 69 1957L69 2016L69 2061C69 2066.33 70.3638 2075.13 66.4113 2079.43C63.0585 2083.07 53.7043 2083.97 49 2084C33.4779 2084.1 14.8764 2086.72 0 2082L0 2200L23 2200C20.0952 2194.61 14.1358 2191.34 10.5386 2186.3C2.24721 2174.66 -0.255531 2157.77 3.29861 2144C7.49161 2127.75 22.2602 2110.57 39.0394 2106.41C63.3742 2100.39 102.67 2113.11 103 2143L107 2143C107 2154.85 106.357 2166.99 101.465 2178C99.1967 2183.1 97.5303 2187.1 92 2189L92 2194C87.8979 2194.6 85.9673 2196.41 84 2200L122 2200C121.113 2179.35 121 2158.72 121 2138C121 2130.27 118.896 2118.87 123.009 2112C127.731 2104.12 134.801 2104 143 2104C157.852 2104 173.199 2102.88 188 2104.09C193.554 2104.55 199.049 2107.21 202.106 2112.02C206.266 2118.55 204 2130.52 204 2138L204 2200L212 2200L212 2133L212 2115C212.005 2112.59 211.612 2109.44 213.028 2107.32C216.036 2102.81 228.259 2105 233 2105L262 2105C266.361 2105 271.749 2104.18 275.91 2105.7C279.47 2107 285.901 2113.01 287.902 2116.22C291.32 2121.72 289 2133.66 289 2140L289 2200L315 2200L315 2104L375 2104L375 2200L380 2200C379.185 2181.01 379 2162.06 379 2143L479 2143C479 2158.61 480.871 2175.53 478.812 2191C478.39 2194.17 476.751 2196.93 476 2200L489 2200L489 2114L588 2114L588 2163C588 2170.38 589.586 2179.89 587.487 2187C586.009 2192 581.528 2195.57 579 2200L628 2200C624.151 2195.02 620.009 2190.14 618.058 2184C614.842 2173.88 617 2160.55 617 2150L617 2094L681 2094L697 2094C699.236 2094 702.508 2094.47 704.397 2092.97C707.216 2090.74 706 2084.15 706 2081L706 2048L706 1913C700.873 1915.84 696.938 1919.97 691 1921.45C686.249 1922.63 680.86 1922 676 1922L649 1922L579 1922L552 1922C546.024 1922 539.442 1921.99 534.286 1918.52C521.262 1909.75 521 1895.04 521 1881L521 1850C521 1842.08 519.703 1832.86 521.274 1825.09C522.973 1816.68 528.259 1808.67 536 1804.84C544.514 1800.62 557.696 1803 567 1803L635 1803L671 1803C677.84 1803 685.269 1802.2 691.961 1803.84C697.135 1805.12 701.302 1808.68 706 1811L706 1743C701.618 1749.88 696.845 1756.93 695 1765L687 1765C683.203 1772.83 674.977 1777.28 667.17 1780.21C664.642 1781.15 662.628 1783.02 659.985 1783.69C647.865 1786.78 635.433 1786 623 1786C599.876 1786 572.547 1789.52 552.17 1776.1C540.806 1768.62 528.748 1757.53 522.959 1745C507.026 1710.5 522.303 1666.03 556.005 1648.94C570.578 1641.55 588.013 1642 604 1642C622.404 1642 641.988 1640.41 660 1644.9C665.31 1646.22 671.733 1648.81 676.385 1651.71C680.573 1654.31 682.827 1657.61 688 1658L688 1662C696.578 1666.12 698.444 1678.75 706 1684L706 1631C702.96 1632.4 700.287 1634.68 696.996 1635.53C690.85 1637.11 683.316 1636 677 1636L636 1636L578 1636L550 1636C545.772 1636 540.761 1636.7 537.044 1634.26C530.25 1629.8 530 1622.22 530 1615L530 1577C530.002 1570.73 530.175 1564.1 535.329 1559.64C539.543 1555.99 544.756 1556 550 1556L574 1556L669 1556C680.406 1556 696.403 1552.87 705 1562C708.008 1554.83 706 1543.76 706 1536L703 1536C702.052 1539.07 700.652 1540.19 698 1542C696.807 1545.86 693.652 1545.75 690 1546.17C683.294 1546.92 676.751 1547 670 1547L601 1547C593.977 1547 580.412 1549.58 574.455 1545.5C570.313 1542.66 564.295 1536.72 562.589 1531.96C560.266 1525.48 562 1515.84 562 1509L562 1457C562 1447.94 561.886 1441.27 565.795 1433C566.988 1430.48 567.56 1427.94 570.147 1426.47C574.987 1423.74 580.659 1424 586 1424L609 1424L699 1424C699.923 1428.43 703.214 1430.98 705 1435C708.008 1427.83 706 1416.76 706 1409C693.659 1422.33 672.573 1418 656 1418L620 1418C613.154 1418 606.807 1418.74 601 1414.48C598.235 1412.45 594.833 1409.99 593.179 1406.91C590.249 1401.45 592 1392.04 592 1386L592 1332C592 1323.01 590.763 1312.74 597.786 1305.79C604.771 1298.87 615.043 1300 624 1300L677 1300C687.449 1300 697.356 1299.67 705 1308C707.5 1302.04 706 1293.44 706 1287C696.673 1294.77 684.622 1294 673 1294L613 1294C602.753 1294 591.046 1296.3 583.271 1288.25C575.645 1280.36 577 1272.31 577 1262C577 1244.06 575.03 1224.85 577.129 1207.04C577.866 1200.78 581.748 1193.58 587.184 1190.22C595.442 1185.13 610.623 1188 620 1188L699 1188C699.728 1192.25 702.457 1193.83 706 1196L706 1156L562 1156L517 1156C508.482 1156 499.324 1155.02 491 1157C491 1127.42 490.042 1097.66 490.963 1068.09C491.072 1064.59 492.749 1061.51 492.956 1058C494.464 1032.53 493 1006.52 493 981L600 981L600 1042C600 1046.28 600.385 1050.77 599.626 1055C599.21 1057.32 597.718 1060.34 599.647 1062.38C601.439 1064.28 604.696 1063.49 607 1063.59C613.677 1063.88 620.309 1064 627 1064L706 1064L706 1054L637 1054L620 1054C617.582 1053.98 614.474 1054.27 612.603 1052.4C609.87 1049.66 611 1043.5 611 1040L611 1009L611 882L706 882L706 850L636 850L636 758L706 758L706 752L640 752C632.068 752 619.789 754.317 613.005 749.486C605.974 744.48 606 737.805 606 730L606 685C606 676.264 605.793 668.152 614.015 662.728C620.808 658.245 631.276 660 639 660L681 660C689.209 660 697.976 659.089 706 661L706 637L582 637L551 637C547.694 637 542.188 637.981 539.603 635.397C536.095 631.888 538 621.59 538 617L538 565L706 565L706 552L567 552L567 427L706 427L706 392C702.679 393.777 699.686 396.485 695.999 397.501C691.072 398.858 685.074 398 680 398L648 398C638.786 398 629.543 398.586 624.688 388.996C621.512 382.722 623 373.83 623 367L623 319L623 281C623 275.73 622.278 267.895 625.603 263.428C630.976 256.207 638.876 256 647 256C660.654 256 674.351 255.679 688 256.015C694.61 256.177 700.865 257.546 705 263C707.398 257.286 706 249.169 706 243L678 243C671.827 243 666.53 243.52 661.666 239.111C654.135 232.285 656 223.38 656 214L656 159C656 148.984 654.658 140.192 663.439 133.344C667.327 130.312 672.353 131 677 131L706 131L706 123L675 123C670.235 123 664.19 123.663 660.225 120.436C652.79 114.387 656 97.4858 656 89L656 0L650 0L650 50L548 50L548 0L542 0L541.999 21C541.981 24.5479 542.07 28.5195 539.196 31.1064C534.596 35.2476 522.8 33 517 33L461 33C455.281 33 444.336 35.1011 439.724 31.1064C437.326 29.03 437.022 25.9441 436.58 23C435.449 15.4531 436 7.61597 436 0L430 0L430 20C429.992 23.7603 430.198 27.9141 427.231 30.7361C423.225 34.5476 415.071 33 410 33L372 33C365.342 33 358.987 34.043 354.059 28.7261C348.156 22.3589 351 8.15308 351 0L324 0C324 5.21582 325.167 12.0933 322.864 16.9106C320.658 21.5273 316.096 23.8403 315 29C310.155 29.3257 306.717 32.5828 301.985 32.9453C283.226 34.3823 263.819 33 245 33L217 33C211.36 33 205.436 32.3933 200 34L200 0L190 0L190 33L148 33L148 0L135 0L135 33L75 33C70.015 33 64.973 32.7844 60 33.165C57.8857 33.3269 55.3465 33.9792 53.6034 32.3572C51.3095 30.2224 52.0013 25.8003 52 23L52 0L26 0z"/>
<path style="fill:#efefe1; stroke:none;" d="M52 0L52 23C52.0002 25.6709 51.218 30.1506 53.0278 32.3926C54.4857 34.1987 57.0143 33.6448 59.0008 33.4197C63.6591 32.8918 68.3163 33 73 33L135 33L135 0L52 0z"/>
<path style="fill:#f1dddb; stroke:none;" d="M148 0L148 33L190 33L190 0L148 0z"/>
<path style="fill:#efefe1; stroke:none;" d="M200 0L200 34C213.383 30.814 229.271 33 243 33L283 33C289.804 33 297.168 33.8003 303.91 32.8665C307.89 32.3152 310.92 29.5439 315 29C316.705 24.1763 321.477 21.6453 323.273 16.9106C325.141 11.9873 324 5.19995 324 0L200 0z"/>
<path style="fill:#f1dddb; stroke:none;" d="M351 0C351 8.23071 348.018 23.0916 354.059 29.4551C358.549 34.1858 365.019 33 371 33L411 33C415.787 33 424.255 34.6392 427.852 30.7361C430.281 28.1008 429.993 24.3188 430 21L430 0L351 0z"/>
<path style="fill:#efefe1; stroke:none;" d="M436 0C436 7.58716 435.384 15.4734 436.425 23C436.802 25.7266 436.94 29.0637 439.032 31.1064C443.195 35.1707 454.615 33 460 33L517 33C522.623 33 535.608 35.417 539.852 31.1064C542.415 28.5029 541.994 24.345 542 21L542 0L436 0z"/>
<path style="fill:#f1dddb; stroke:none;" d="M548 0L548 49L649 49L649 0L548 0z"/>
<path style="fill:#f4e8ea; stroke:none;" d="M649 0L649 49L548 49C556.358 52.5068 569.94 50 579 50L650 50L650 16C650 10.9194 650.981 4.71997 649 0z"/>
<path style="fill:#efefe1; stroke:none;" d="M656 0L656 89C656 95.9932 655.832 103.01 656.015 110C656.109 113.619 656.547 117.854 659.419 120.436C662.911 123.575 668.665 122.998 673 123L706 123L706 0L656 0M180 86C192.599 90.5 208.695 88 222 88L251 88C258.65 88 272.155 90.5742 278.852 86.4275C284.51 82.9246 282.226 68.8245 281.981 63.0039C281.873 60.4478 281.507 57.9236 279.276 56.3179C274.54 52.9084 263.605 55 258 55L204 55C198.446 55 186.307 52.709 182.032 56.8936C179.63 59.2451 180.006 62.9277 180 66L180 86z"/>
<path style="fill:#f4e8ea; stroke:none;" d="M544 55C549.951 57.4971 558.58 56 565 56L611 56C605.049 53.5029 596.42 55 590 55L544 55z"/>
<path style="fill:#efefe1; stroke:none;" d="M0 56L0 83L17 83C19.2361 82.9954 22.508 83.468 24.3966 81.9722C26.1361 80.5945 25.9579 77.981 25.9954 75.9993C26.0746 71.8108 28.1165 58.7856 23.6821 56.6035C17.8946 53.7556 6.41301 56 0 56z"/>
<path style="fill:#f1dddb; stroke:none;" d="M59 145L171 145L171 56L102 56C84.692 56 69.5547 55.509 60.7292 73.4243C57.5248 79.929 59 88.9539 59 96L59 145M312 56L312 135L404 135L404 78C404 73.1033 406.124 61.5825 402.972 57.6035C401.417 55.6394 398.209 56.0159 396 56.0007L380 56L312 56z"/>
<path style="fill:#efefe1; stroke:none;" d="M413 56L413 191L464 191C468.447 191 478.646 192.895 482.258 189.972C484.21 188.393 483.965 185.237 483.996 183C484.085 176.669 484 170.332 484 164L484 86L484 65C483.995 62.5798 484.565 58.7449 482.397 57.0278C478.706 54.105 468.513 56 464 56L413 56z"/>
<path style="fill:#f1dddb; stroke:none;" d="M537 56.6094C528.037 58.9058 519.808 65.7905 517.569 75.0894C515.97 81.7275 518 91.0461 518 98L518 152L518 208C517.997 216.008 515.32 225.274 519.132 232.83C522.396 239.302 528.913 244.25 536.001 245.624C541.438 246.678 547.481 246 553 246L584 246C594.87 246 607.449 247.733 618 244.84C628.545 241.949 634.402 233.541 635.714 223C636.73 214.836 636 206.22 636 198L636 151L636 95C636 86.9048 637.661 76.5308 633.573 69.1704C630.091 62.9045 621.974 57.6736 615 56.3403C609.572 55.3025 603.508 56 598 56L567 56C557.575 56 546.159 54.2629 537 56.6094z"/>
<path style="fill:#f4e8ea; stroke:none;" d="M517 80L517 218C520.507 209.643 518 196.06 518 187L518 115L518 92C518 88.0168 518.552 83.6987 517 80M58 81L58 145C60.085 140.031 59 133.35 59 128L59 97C59 91.9199 59.9805 85.72 58 81z"/>
<path style="fill:#f1dddb; stroke:none;" d="M2.3179 90.0278C-2.40388 93.1787 0 106.984 0 112L0 150C0 155.237 -1.35483 162.708 0.513889 167.656C2.5473 173.04 13.4814 171.081 17.9961 170.995C19.7985 170.961 21.8747 171.061 23.4275 169.972C28.4939 166.42 26 152.437 26 147L26 109C26 104.184 27.4061 96.6855 25.3966 92.2285C23.0883 87.1086 12.5263 88.9194 8 89.0046C6.13035 89.0398 3.94897 88.9395 2.3179 90.0278M189.004 99.7275C182.982 101.91 181.084 107.108 181.004 113C180.805 127.66 181 142.338 181 157C181 163.627 179.904 170.755 185.189 175.772C190.552 180.862 200.194 179 207 179L253 179C259.215 179 267.796 180.528 273.711 178.486C279.593 176.456 281.837 169.59 281.985 164C282.365 149.688 282 135.317 282 121C282 115.543 283.332 107.936 279.347 103.533C274.026 97.6536 264.09 99 257 99L211 99C204.34 99 195.326 97.436 189.004 99.7275z"/>
<path style="fill:#f4e8ea; stroke:none;" d="M180 108L180 155C180 159.74 178.219 168.696 182 172C178.602 157.728 181 140.646 181 126C181 120.381 182.189 113.217 180 108z"/>
<path style="fill:#f1dddb; stroke:none;" d="M706 243L706 131L676 131C671.402 131 666.43 130.293 662.615 133.344C654.466 139.861 656 148.605 656 158L656 215C656 224.225 654.058 233.233 661.666 239.829C666.121 243.693 671.465 243 677 243L706 243z"/>
<path style="fill:#efefe1; stroke:none;" d="M312 143L312 216C312 224.95 310.393 237.335 321 241L321 245C325.67 245.843 329.373 248.995 334 249.775C348.527 252.226 365.26 250 380 250C385.23 250 397.126 252.204 401.397 248.821C403.552 247.114 402.995 243.41 403 241L403 222L403 143L312 143z"/>
<path style="fill:#f1dddb; stroke:none;" d="M59 154L59 253L155 253C152.45 242.288 154 229.976 154 219L154 154L59 154z"/>
<path style="fill:#efefe1; stroke:none;" d="M0 176L0 201C0 204.049 -0.831732 208.718 1.02778 211.362C2.92733 214.063 6.95139 214.788 10 214.957C18.2632 215.414 24.6425 211.204 28.1427 203.576C31.4227 196.427 29 183.802 29 176L0 176M165.742 188.028C162.714 190.478 164 197.583 164 201L164 238C164 241.466 162.529 249.386 165.603 251.821C167.533 253.349 170.707 252.987 173 252.999L190 253L255 253L274 253C276.236 252.995 279.508 253.468 281.397 251.972C284.351 249.633 283 242.315 283 239L283 202C283 198.524 284.478 190.468 281.397 188.028C279.508 186.532 276.236 187.005 274 187L258 187L192 187L173 187C170.801 187.005 167.589 186.533 165.742 188.028z"/>
<path style="fill:#f1dddb; stroke:none;" d="M413 197L413 250L484 250L484 197L413 197M0 240L0 272L52 272L52 240L0 240z"/>
<path style="fill:#f4e8ea; stroke:none;" d="M114 256L114 361C115.441 357.565 115 353.703 115 350L115 329L115 257L213 257L213 361C215.903 354.081 214 343.48 214 336L214 282C214 276 214.041 269.999 213.999 264C213.984 261.791 214.361 258.583 212.397 257.028C210.508 255.532 207.236 256.005 205 256L186 256L114 256M635 256C640.462 258.292 648.113 257 654 257L694 257C688.538 254.708 680.887 256 675 256L635 256z"/>
<path style="fill:#f1dddb; stroke:none;" d="M115 257L115 361L213 361L213 257L115 257M632 257.742C624.408 260.611 623.191 267.809 623.015 275C622.631 290.646 623 306.348 623 322L623 369C623 375.869 621.478 384.841 625.228 390.96C629.337 397.663 636.106 397 643 397L681 397C686.826 397 694.426 398.261 699.91 396.005C707.246 392.988 706 385.564 706 379L706 332L706 283C706 277.045 707.739 267.732 704.911 262.329C701.68 256.157 693.832 257 688 257L650 257C644.5 257 637.214 255.771 632 257.742z"/>
<path style="fill:#efefe1; stroke:none;" d="M226 356C228.124 356.899 228.101 356.876 229 359C246.445 361.954 264.245 361 282 361C288.755 361 298.448 362.656 304.532 359.101C312.563 354.41 312 346.004 312 338L312 290C312 280.653 313.321 272.514 305.87 265.572C302.527 262.458 298.257 263 294 263L270 263L243 263C237.78 263 232.592 262.489 228.174 265.789C220.706 271.369 223 281.745 223 290L223 329C223 335.072 222.059 342.041 223.299 348C223.873 350.761 225.32 353.259 226 356M494 398L569 398L590 398C593.792 398 598.13 398.576 601.714 397.117C616.653 391.035 617 378.14 617 364L617 308C617 297.766 617.998 286.353 610.585 278.14C603.427 270.21 591.521 272 582 272L515 272C504.387 272 493.141 271.503 487.189 282.325C482.454 290.934 484 302.577 484 312L484 356C484 364.53 483.097 373.644 485.138 382C486.651 388.192 492.81 392.062 494 398M0 275L0 361L107 361L107 308C107 297.434 106.066 286.418 108 276C97.1989 272.807 83.2479 275 72 275L0 275z"/>
<path style="fill:#f1dddb; stroke:none;" d="M355 276.464C347.662 277.8 341.24 283.315 340.188 291.015C339.129 298.771 340 307.177 340 315L340 361C340 370.159 337.919 381.918 343.272 389.91C348.856 398.245 358.207 397 367 397L414 397C421.681 397 430.427 398.147 437.961 396.521C445.606 394.87 450.593 387.483 450.96 380C452.082 357.119 451 333.912 451 311C451 302.477 453.113 290.436 447.74 283.133C442.14 275.522 431.345 276 423 276L379 276C371.197 276 362.697 275.064 355 276.464z"/>
<path style="fill:#f4e8ea; stroke:none;" d="M339 290L339 383C341.802 376.322 340 366.216 340 359L340 312C340 305.314 341.599 296.194 339 290z"/>
<path style="fill:#efefe1; stroke:none;" d="M149 398C147.839 400.337 145.939 402.467 145.313 405.039C144.19 409.661 145 415.265 145 420L145 450C145 455.468 143.44 464.696 149.133 467.972C154.958 471.324 166.434 470 173 470L227 470L257 470C263.531 470 269.977 470.493 276.285 468.71C280.118 467.626 284.034 468.577 287.191 465.697C293.133 460.278 292 453.333 292 446C292 431.05 292.875 415.835 291 401L287 401C285.546 396.619 282.175 397.009 278 397L254 397C218.994 397 183.921 396.5 149 398z"/>
<path style="fill:#f4e8ea; stroke:none;" d="M353 397C360.159 400.004 371.256 398 379 398L438 398C430.841 394.996 419.744 397 412 397L353 397M633 397C638.951 399.497 647.58 398 654 398L698 398C692.049 395.503 683.42 397 677 397L633 397z"/>
<path style="fill:#efefe1; stroke:none;" d="M115 481C119.545 465.063 125.966 449.023 117.352 433C113.629 426.074 106.328 421.871 103 415C95.7967 414.035 89.0086 407.737 82 405.129C65.8344 399.114 40.7143 400.068 26.3395 409.802C14.0995 418.091 2.63534 433.931 1.16975 449C0.699251 453.838 1.92195 457.474 2.74074 462.089C3.467 466.183 3.02896 470.067 4.75 474C13.0654 493.004 34.7915 505.517 55 506.911C73.7808 508.206 88.2952 502.745 103.586 492.03C108.241 488.769 109.397 482.684 115 481z"/>
<path style="fill:#f1dddb; stroke:none;" d="M57 410.425C49.2161 411.485 41.4041 412.343 34.9853 417.17C24.7167 424.891 15.9525 432.934 12.6096 446C4.16274 479.015 38.6263 502.239 68 498.714C75.5851 497.804 82.8941 495.931 89.196 491.519C96.8922 486.13 105.045 479.031 108.438 470C120.44 438.051 89.1489 406.049 57 410.425z"/>
<path style="fill:#efefe1; stroke:none;" d="M52 426.613C48.1222 427.638 44.3652 429.807 41.0903 432.076C14.8821 450.234 39.0683 490.52 67.7145 483.545C74.298 481.942 80.3723 480.182 85.5108 475.572C88.1449 473.208 90.8873 470.108 92.4437 466.911C104.938 441.239 75.4035 420.422 52 426.613M453 518L559 518L559 427L493 427C478.078 427 464.785 426.777 455.978 441.004C451.497 448.244 453 457.845 453 466L453 518z"/>
<path style="fill:#f1dddb; stroke:none;" d="M567 427L567 552L706 552L706 427L567 427M161 499.443C148.924 501.496 149 510.948 149 521L149 577L149 640C149 647.181 146.862 658.425 151.483 664.471C156.097 670.508 163.213 670 170 670L203 670C208.483 670 214.594 670.748 220 669.772C230.47 667.88 231 658.518 231 650L231 593L231 529C231 521.836 233.271 510.073 228.427 504.188C223.754 498.511 216.625 499 210 499C194.213 499 176.568 496.796 161 499.443M275 502.569C270.501 503.806 265.902 507.435 264.514 512.004C262.962 517.111 264 523.705 264 529L264 562C264 568.548 263.71 574.703 268.34 579.941C273.135 585.367 280.443 584 287 584L322 584C327.745 584 334.4 584.907 339.985 583.387C345.352 581.927 349.168 577.534 349.867 572C351.744 557.146 350 540.978 350 526C350 519.994 351.207 512.355 347.147 507.339C342.475 501.567 335.674 502 329 502L293 502C287.289 502 280.548 501.043 275 502.569z"/>
<path style="fill:#efefe1; stroke:none;" d="M362.289 507.938C356.584 510.774 356.009 516.369 356 522L356 555L356 601C356 605.527 354.275 614.551 357.564 618.116C364.235 625.346 381.146 622 390 622C395.861 622 404.535 623.586 409.945 621.062C414.955 618.724 414.707 613.704 415.285 609C416.623 598.112 416 586.965 416 576L416 527C416 521.475 417.446 513.062 412.291 509.303C405.271 504.185 390.235 507 382 507C376.306 507 367.49 505.353 362.289 507.938z"/>
<path style="fill:#f4e8ea; stroke:none;" d="M148 510L148 659C149.661 655.042 149 650.26 149 646L149 621L149 544L149 522C149 518.017 149.552 513.699 148 510M231 510L231 659C232.661 655.042 232 650.26 232 646L232 621L232 544L232 522C232 518.017 232.552 513.699 231 510z"/>
<path style="fill:#f1dddb; stroke:none;" d="M11.0147 522.532C3.49216 524.37 1.18962 530.969 1.01466 538C0.650176 552.647 1 567.348 1 582C1 588.427 -0.0980339 595.325 4.97839 600.214C11.3851 606.386 23.8656 604 32 604L85 604C93.4387 604 103.838 605.621 112 603.276C116.25 602.056 120.702 598.289 121.721 593.83C122.845 588.919 122 583.02 122 578L122 545C122 538.508 123.339 530.886 117.876 526.198C110.67 520.014 98.8118 522 90 522L37 522C28.7822 522 19.027 520.575 11.0147 522.532M453 528L453 637L530 637L530 528L453 528z"/>
<path style="fill:#efefe1; stroke:none;" d="M538 565L538 616C538 620.705 535.99 631.561 539.028 635.397C541.147 638.073 547.02 637 550 637L581 637L706 637L706 565L538 565z"/>
<path style="fill:#f4e8ea; stroke:none;" d="M274 584C279.951 586.497 288.58 585 295 585L339 585C333.049 582.503 324.42 584 318 584L274 584z"/>
<path style="fill:#efefe1; stroke:none;" d="M275 593C273.163 596.035 269.416 596.901 267.853 600.134C264.353 607.375 265 616.217 265 624L265 662C265 670.335 263.382 683.378 270.38 689.442C273.93 692.519 278.618 692 283 692L308 692L326 692C328.976 692 332.72 692.568 335.405 691.016C344.579 685.713 344 677.231 344 668L344 620C344 613.739 346.193 601.381 340.312 597.027C334.428 592.671 324.918 593 318 593L275 593M1 613L1 660C1 666.136 -0.508657 674.465 2.99306 679.829C11.1576 692.337 21.7549 691 35 691L87 691C97.0144 691 108.559 693.548 115.585 684.961C123.001 675.895 122 667.105 122 656L122 613C81.8701 613 41.0531 615.176 1 613z"/>
<path style="fill:#f1dddb; stroke:none;" d="M356.059 635.028C352.218 637.131 352.028 641.11 352.001 645C351.946 652.998 351.959 661.002 352.001 669C352.022 673.021 352.124 677.474 355.533 680.258C359.463 683.466 367.26 682 372 682L409 682C413.826 682 420.557 683.167 424.956 680.821C429.588 678.35 429.975 673.686 429.999 669L430 648C430 644.247 430.748 639.462 427.682 636.653C423.484 632.807 416.206 634 411 634L373 634C368.088 634 360.495 632.598 356.059 635.028z"/>
<path style="fill:#efefe1; stroke:none;" d="M385.001 638.688C380.301 640.17 372.9 645.155 371.434 650.093C367.599 663.005 378.686 681.712 393.715 677.502C400.029 675.732 406.236 671.405 408.246 664.999C412.78 650.552 400.918 633.671 385.001 638.688M592 752L592 685L592 668C591.995 665.764 592.468 662.492 590.972 660.603C588.853 657.927 582.98 659 580 659L551 659C529.83 659 493.572 651.872 484.978 678.17C481.466 688.915 484 703.761 484 715L484 741C484 743.803 483.082 748.975 485.603 750.972C487.689 752.624 491.531 751.999 494 752L514 752L592 752z"/>
<path style="fill:#f4e8ea; stroke:none;" d="M619 660C626.399 663.105 637.993 661 646 661L705 661C697.601 657.895 686.007 660 678 660L619 660z"/>
<path style="fill:#f1dddb; stroke:none;" d="M706 752L706 661L640 661C632.516 661 619.527 658.527 613.04 662.742C605.711 667.505 606 675.309 606 683L606 731C606 738.48 605.737 745.741 613.005 750.142C619.889 754.311 632.219 752 640 752L706 752z"/>
<path style="fill:#efefe1; stroke:none;" d="M137 699L133 699L133 751C133 757.015 130.947 765.859 138 768L138 772C145.77 774.775 153.82 774 162 774L199 774C205.676 774 216.631 776.587 218 768C225.919 767.369 224 759.113 224 753L224 712C224 705.786 224.585 699.6 217 699L217 696C212.292 695.684 207.705 694.367 203 694.06C187.801 693.069 172.233 693.994 157 694C151.7 694.002 138.744 693.039 137 699z"/>
<path style="fill:#f1dddb; stroke:none;" d="M253.04 696.938C247.085 699.645 247.003 705.342 247 711L247 745C247 750.09 246.021 756.017 250.823 759.276C257.343 763.702 271.371 761 279 761L341 761C348.544 761 360.856 763.337 367.71 759.911C373.393 757.07 373 751.462 373 746L373 712C373 707.071 373.796 701.339 368.891 698.442C361.077 693.828 348.696 696 340 696L279 696C271.544 696 259.91 693.815 253.04 696.938z"/>
<path style="fill:#efefe1; stroke:none;" d="M401 701C399.263 704.003 396.678 704.588 394.174 706.824C388.708 711.706 383.05 717.479 382.129 725.089C381.138 733.281 381.128 742.983 385.825 749.996C397.925 768.063 430.97 771.308 444.971 753.335C446.635 751.2 446.729 748.682 447.965 746.374C451.488 739.793 454.793 731.075 452.526 723.3C451.201 718.754 447.642 715.903 447 711C440.55 707.732 435.12 702.618 427.999 700.381C419.173 697.609 409.907 699.874 401 701z"/>
<path style="fill:#f1dddb; stroke:none;" d="M170 702.634C139.865 710.937 136.236 754.757 166.039 766.66C172.807 769.363 183.106 768.644 190 766.7C208.324 761.533 217.089 737.778 209.471 721.015C203.335 707.513 184.338 698.684 170 702.634z"/>
<path style="fill:#f4e8ea; stroke:none;" d="M246 705L246 753C247.552 749.301 247 744.983 247 741L247 718C247 713.74 247.661 708.959 246 705M3 715L3 776C5.29217 770.537 4 762.887 4 757L4 716L122 716C118.041 714.339 113.26 715 109 715L86 715L3 715z"/>
<path style="fill:#f1dddb; stroke:none;" d="M4 716L4 776L122 776L122 716L4 716z"/>
<path style="fill:#efefe1; stroke:none;" d="M630 834L630 758L527 758L500 758C497.09 758 492.052 757.088 489.603 759.028C487.639 760.583 488.016 763.791 488.001 766L488 782L488 816C488 821.364 487.044 827.891 489.148 832.957C490.849 837.052 498.322 843.357 502.184 845.543C505.679 847.522 510.141 847 514 847L538 847L590 847C597.667 847 607.565 848.65 614.946 846.428C621.348 844.501 624.405 837.012 630 834z"/>
<path style="fill:#f4e8ea; stroke:none;" d="M636 758C642.194 760.599 651.314 759 658 759L706 759C699.806 756.401 690.686 758 684 758L636 758z"/>
<path style="fill:#f1dddb; stroke:none;" d="M636 759L636 850L706 850L706 759L636 759z"/>
<path style="fill:#efefe1; stroke:none;" d="M15 785C10.8169 785.7 6.25921 789.09 4.60339 793.17C3.2127 796.596 4 801.372 4 805L4 830L4 856C4 859.896 3.14277 865.081 4.72762 868.737C5.95068 871.558 9.34826 873.619 11.561 875.635C13.5428 877.44 15.4707 879.801 18.1289 880.571C26.295 882.938 37.516 881 46 881C54.9336 881 75.4373 885.14 79 875C73.5073 869.138 76 856.594 76 849L76 806C76 797.791 76.9104 789.024 75 781C60.2411 782.232 44.8399 781 30 781C24.9541 781 17.0175 779.262 15 785z"/>
<path style="fill:#f4e8ea; stroke:none;" d="M87 781L87 880C90.4066 871.882 88 858.797 88 850L88 782L172 782C164.841 778.996 153.744 781 146 781L87 781z"/>
<path style="fill:#f1dddb; stroke:none;" d="M88 782L88 880L193 880L193 822C193 810.07 193.61 798.544 184.535 789.326C176.265 780.924 164.771 782 154 782L88 782M226 881L353 881C353 851.752 351.701 822.129 354 793L268 793C252.356 793 236.827 793.71 227.995 809.004C224.443 815.153 226 824.152 226 831L226 881z"/>
<path style="fill:#f4e8ea; stroke:none;" d="M353 797L353 881L226 881L226 817C223.503 822.951 225 831.58 225 838L225 882L354 882L354 823C354 815.256 356.004 804.159 353 797M193 807L193 880C195.189 874.784 194 867.619 194 862L194 826C194 820.113 195.292 812.463 193 807M367 821C372.993 822.416 381.58 820 388 820L442 820C436.049 817.503 427.42 819 421 819L388 819C380.85 819 373.795 818.455 367 821z"/>
<path style="fill:#f1dddb; stroke:none;" d="M374 820.44C369.158 821.22 364.272 822.916 362.564 828.015C360.978 832.752 362 839.057 362 844L362 877C362 883.148 361.004 889.436 365.305 894.409C370.374 900.271 377.977 899 385 899L423 899C429.048 899 436.053 899.97 441.985 898.721C446.865 897.694 451.492 892.794 452.606 887.996C453.7 883.281 453 877.814 453 873L453 843C453 836.999 454.293 829.337 449.891 824.532C444.598 818.755 436.062 820 429 820C411.235 820 391.539 817.614 374 820.44z"/>
<path style="fill:#efefe1; stroke:none;" d="M401 827.609C387.81 830.94 375.7 840.949 373.326 855.001C369.308 878.781 393.077 899.451 416 893.387C436.761 887.896 447.687 863.197 437.41 844.17C433.44 836.818 424.687 831.389 417 828.835C411.848 827.123 406.369 826.253 401 827.609z"/>
<path style="fill:#f1dddb; stroke:none;" d="M489 969L600 969L600 881C589.27 879.008 577.884 880 567 880C550.685 880 534.309 879.589 518 880.015C509.197 880.245 498.623 884.481 493.599 892.054C488.055 900.41 489 910.472 489 920L489 969z"/>
<path style="fill:#f4e8ea; stroke:none;" d="M611 882L611 1011L611 1042C611 1044.98 609.927 1050.85 612.603 1052.97C614.492 1054.47 617.764 1054 620 1054L637 1054L706 1054C698.121 1050.69 685.534 1053 677 1053L612 1053L612 883L706 883C698.121 879.694 685.534 882 677 882L611 882z"/>
<path style="fill:#f1dddb; stroke:none;" d="M612 883L612 1053L706 1053L706 883L612 883z"/>
<path style="fill:#efefe1; stroke:none;" d="M226 988C228.005 989.177 229.331 991.451 231.414 992.401C237.635 995.238 249.207 993 256 993L285 993C289.205 993 294.617 993.925 298.334 991.585C307.922 985.55 307 974.145 307 964L307 894C303.11 892.051 299.954 887.445 295.791 886.313C291.032 885.02 284.908 886 280 886L249 886C242.47 886.01 229.704 885.718 225.949 892.189C221.737 899.448 224 911.918 224 920C224 938.815 222.586 958.249 224.093 977C224.393 980.731 225.674 984.262 226 988M122 889L121 890C122.586 898.541 122 907.342 122 916L122 957C122 966.86 123.901 978.795 120 988C126.868 990.03 134.869 989 142 989L183 989C185.655 984.258 191.01 981.223 192.971 975.961C195.388 969.477 194 960.814 194 954L194 919C194 913.798 195.08 907.205 193.682 902.17C192.19 896.795 185.664 895.337 184 890C163.95 890 141.727 892.662 122 889z"/>
<path style="fill:#f4e8ea; stroke:none;" d="M4 890L4 962C6.59906 955.806 5 946.686 5 940L5 891L110 891L110 989L29 989C35.9186 991.903 46.5202 990 54 990L111 990L111 890L4 890z"/>
<path style="fill:#f1dddb; stroke:none;" d="M5 891L5 947C5 960.746 4.62367 973.813 16.0394 983.671C24.2676 990.777 34.8753 989 45 989L110 989L110 891L5 891z"/>
<path style="fill:#f4e8ea; stroke:none;" d="M488 905L488 969C490.085 964.031 489 957.35 489 952L489 921C489 915.92 489.981 909.72 488 905z"/>
<path style="fill:#f1dddb; stroke:none;" d="M338 914.518C327.387 916.768 316.66 922.707 313.848 934C310.857 946.015 313 960.664 313 973L313 1049C313 1062.42 309.685 1080.28 317.269 1091.99C324.328 1102.89 335.286 1104 347 1104L400 1104C410.528 1104 421.609 1104.98 431.961 1102.68C440.964 1100.67 448.803 1092.11 449.826 1083C450.924 1073.21 450 1062.85 450 1053L450 996C450 980.348 449.631 964.647 450.015 949C450.179 942.277 452.581 935.297 449.03 929.015C444.382 920.791 434.984 916.148 426 914.468C410.592 911.586 392.671 914 377 914C364.61 914 350.134 911.945 338 914.518z"/>
<path style="fill:#f4e8ea; stroke:none;" d="M450 943L450 1085C451.441 1081.57 451 1077.7 451 1074L451 1053L451 979L451 956C451 951.74 451.661 946.959 450 943z"/>
<path style="fill:#efefe1; stroke:none;" d="M493 981C493 1006.19 494.467 1031.86 492.956 1057C492.747 1060.48 491.046 1063.55 490.85 1067C489.159 1096.74 491 1127.19 491 1157C500.168 1155.3 509.705 1156 519 1156L564 1156L706 1156L706 1064L626 1064C619.61 1064 613.362 1063.8 607 1063.37C604.655 1063.21 601.392 1063.91 599.812 1061.64C598.464 1059.71 599.544 1057.09 599.796 1055C600.348 1050.41 600 1045.62 600 1041L600 981L493 981z"/>
<path style="fill:#f1dddb; stroke:none;" d="M209 1106L296 1106L296 1000L244 1000C237.83 1000 227.768 998.095 222.184 1000.99C219.956 1002.14 218.421 1004.35 216.675 1006.08C214.444 1008.29 211.514 1010.2 210.028 1013.04C207.2 1018.45 209 1028.02 209 1034L209 1106z"/>
<path style="fill:#f4e8ea; stroke:none;" d="M208 1014L208 1106C210.802 1099.32 209 1089.22 209 1082L209 1035C209 1028.58 210.497 1019.95 208 1014M34 1017C42.1182 1020.41 55.2032 1018 64 1018L133 1018C124.882 1014.59 111.797 1017 103 1017L34 1017z"/>
<path style="fill:#f1dddb; stroke:none;" d="M5 1106L133 1106L133 1018L47 1018C31.8439 1018 17.0255 1018.47 8.21373 1033C3.68354 1040.47 5 1049.63 5 1058L5 1106z"/>
<path style="fill:#f4e8ea; stroke:none;" d="M133 1019L133 1106L5 1106L5 1043C2.60515 1048.71 4 1056.85 4 1063L4 1107L134 1107L134 1046C134 1037.99 136.105 1026.4 133 1019z"/>
<path style="fill:#efefe1; stroke:none;" d="M198 1020C184.7 1019.96 171.367 1018.98 158 1019C153.232 1019.01 144.471 1018.43 140.344 1021.03C135.043 1024.36 137 1034.72 137 1040L137 1087C137 1093.02 135.466 1100.67 141.109 1104.6C145.517 1107.66 150.906 1107 156 1107L186 1107C190.93 1107 196.217 1107.54 199.397 1102.94C203.017 1097.71 201 1087.11 201 1081L201 1046C201 1036.7 201.648 1028.59 198 1020M0 1136L0 1198L85 1198L107 1198C110.928 1197.99 115.312 1198.2 118.736 1195.93C123.789 1192.56 123 1186.27 123 1181L123 1153C123 1145.97 123.502 1140.17 115.996 1137.07C111.989 1135.42 107.242 1136 103 1136L81 1136L0 1136z"/>
<path style="fill:#f4e8ea; stroke:none;" d="M130 1145L130 1190C131.875 1185.53 131 1179.81 131 1175L131 1146L243 1146C239.301 1144.45 234.983 1145 231 1145L209 1145L130 1145z"/>
<path style="fill:#f1dddb; stroke:none;" d="M131 1146L131 1178C131 1182.8 130.116 1188.46 133.26 1192.49C139.12 1199.99 148.511 1198 157 1198L215 1198C222.74 1198 232.997 1200.1 238.811 1193.94C243.495 1188.98 243 1183.35 243 1177L243 1146L131 1146M266 1146.65C257.917 1149.09 256.04 1156.42 256.001 1164C255.923 1179 256 1194 256 1209C256 1215.63 255.469 1223.53 261.329 1228.12C268.734 1233.92 284.149 1231 293 1231L358 1231C367.027 1231 379.444 1233.18 387.985 1229.97C395.802 1227.02 396.988 1219.27 397 1212L397 1167C397 1160.4 397.354 1152.86 391.231 1148.71C383.116 1143.21 368.37 1146 359 1146L296 1146C286.809 1146 274.834 1143.98 266 1146.65z"/>
<path style="fill:#f4e8ea; stroke:none;" d="M458 1188C465.399 1191.1 476.993 1189 485 1189L546 1189L546 1294C547.552 1290.3 547 1285.98 547 1282L547 1262L547 1188L458 1188z"/>
<path style="fill:#efefe1; stroke:none;" d="M699 1188L625 1188C614.207 1188 600.441 1185.73 590.015 1188.61C582.774 1190.62 577.988 1198.98 577.129 1206.09C574.902 1224.5 577 1244.44 577 1263C577 1272.67 575.468 1280.83 582.617 1288.25C590.19 1296.11 600.967 1294 611 1294L677 1294C684.421 1294 700.438 1295.48 704.822 1287.86C706.466 1285 705.999 1281.16 706 1278L706 1260L706 1218C706 1211.79 707.238 1204.05 705.682 1198.02C704.601 1193.82 700.285 1192.12 699 1188z"/>
<path style="fill:#f1dddb; stroke:none;" d="M435 1294L546 1294L546 1189L477 1189C464.415 1189 453.088 1187.22 443.55 1197.04C434.61 1206.24 435 1219.15 435 1231L435 1294M0 1205L0 1306L49 1306L49 1205L0 1205z"/>
<path style="fill:#f4e8ea; stroke:none;" d="M75 1217C79.4687 1218.88 85.1913 1218 90 1218L119 1218L223 1218C218.531 1216.12 212.809 1217 208 1217L179 1217L75 1217z"/>
<path style="fill:#f1dddb; stroke:none;" d="M75 1218.52C63.7052 1220.93 59.1471 1229.96 56.0934 1240.17C53.8692 1247.6 55 1256.33 55 1264L55 1302C55.0007 1312.74 56.1766 1324.76 65.1844 1332.06C75.4788 1340.4 93.646 1337 106 1337L189 1337C196.66 1337 204.342 1336.83 212 1337.01C216.872 1337.13 221.17 1338.26 226 1336.98C235.215 1334.55 242.325 1328.62 244.54 1319C245.292 1315.74 244.895 1312.31 245.285 1309C247.336 1291.63 246 1273.5 246 1256C246 1244.74 246.804 1231.87 236.737 1224.09C224.802 1214.88 207.085 1218 193 1218L114 1218C101.621 1218 87.1188 1215.93 75 1218.52z"/>
<path style="fill:#efefe1; stroke:none;" d="M287.004 1238.53C278.206 1240.68 272.674 1249.52 272.09 1258C270.428 1282.09 272 1306.84 272 1331C272 1341.42 269.978 1353.82 276.727 1362.7C283.452 1371.55 294.234 1370 304 1370L354 1370C363.013 1370 373.05 1371.21 381.83 1368.83C388.494 1367.01 395.164 1362.02 396.62 1355C398.308 1346.86 397 1337.3 397 1329L397 1277C397 1268.55 399.606 1255.07 394.485 1247.89C388.063 1238.88 378.234 1238 368 1238L314 1238C305.475 1238 295.314 1236.5 287.004 1238.53z"/>
<path style="fill:#f1dddb; stroke:none;" d="M607 1300.53C599.16 1302.33 593.554 1307.99 592.304 1316C591.147 1323.42 592 1331.51 592 1339L592 1382C592 1389.2 589.442 1402.61 593.742 1408.71C599.882 1417.43 608.396 1418 618 1418L669 1418C676.909 1418 686.308 1419.37 694 1417.39C707.171 1414 706 1404.25 706 1393L706 1333L705.999 1315C705.984 1312.09 706.167 1308.94 704.258 1306.52C698.404 1299.1 687.314 1300 679 1300L631 1300C623.331 1300 614.503 1298.81 607 1300.53z"/>
<path style="fill:#efefe1; stroke:none;" d="M447.424 1304.71C442.838 1306.07 438.656 1307.67 436.765 1312.46C434.774 1317.51 436 1324.65 436 1330L436 1366C436.003 1372.58 435.655 1382.85 441.108 1387.57C447.905 1393.44 460.669 1391 469 1391L525 1391C533.744 1391 544.516 1392.66 552.911 1389.87C558.87 1387.89 561.664 1383.03 561.96 1377C562.774 1360.42 562 1343.6 562 1327C562 1319.59 563.232 1311.91 556.674 1306.76C549.976 1301.51 537.024 1304 529 1304L474 1304C465.721 1304 455.4 1302.35 447.424 1304.71M0 1312L0 1418L29 1418C29.8993 1415.88 29.8764 1415.9 32 1415L32 1340C32 1332.99 34.6752 1318.93 29.0802 1313.6C26.7691 1311.4 22.9205 1312 20 1312L0 1312M56 1370L56 1421C56 1425.71 53.9902 1436.56 57.0278 1440.4C58.5834 1442.36 61.7908 1441.98 64 1442C70.3327 1442.04 76.6672 1442 83 1442L161 1442C167.606 1442 174.432 1441.51 181 1442.29C183.657 1442.6 187.816 1443.92 189.821 1441.4C192.973 1437.43 191 1426.84 191 1422C191 1404.63 191.365 1387.29 190 1370L56 1370z"/>
<path style="fill:#f1dddb; stroke:none;" d="M197 1370L197 1442L249 1442L249 1370L197 1370M474 1399.73C468.66 1401.21 462.646 1403 458 1406.04C434.049 1421.74 440 1453.36 440 1478C440 1489.26 437.21 1505.05 441.803 1515.58C450.74 1536.05 470.893 1547.68 492.999 1541.57C496.961 1540.48 500.533 1539.01 504.035 1536.85C529.672 1521.02 523 1486.63 523 1461C523 1449.31 525.343 1434.89 520.56 1424C513.298 1407.46 492.334 1394.62 474 1399.73M292 1403.44C285.947 1404.42 279.479 1407.77 277.506 1414.04C275.06 1421.82 276 1430.97 276 1439L276 1483C276 1492.02 274.765 1501.11 280.699 1508.67C287.085 1516.81 297.839 1515 307 1515L355 1515C363.829 1515 373.306 1515.97 382 1514.23C391.157 1512.39 395.452 1504.66 396.7 1496C397.683 1489.18 397 1481.88 397 1475L397 1436C397 1427.97 398.834 1417.77 393.525 1411.04C386.672 1402.36 375.897 1403 366 1403L318 1403C309.508 1403 300.398 1402.08 292 1403.44z"/>
<path style="fill:#efefe1; stroke:none;" d="M698 1542C701.135 1540.51 702.409 1539.46 703 1536L706 1536L706 1468C706 1457.9 708.197 1444.84 705.442 1435.09C704.249 1430.87 700.447 1428.17 699 1424L607 1424L584 1424C579.139 1424 573.63 1423.77 569.313 1426.47C567.045 1427.9 566.438 1430.73 565.3 1433C561.471 1440.63 562 1447.61 562 1456L562 1514C562 1526.87 561.506 1538.69 574.455 1546.02C576.951 1547.43 580.243 1547 583 1547L602 1547L670 1547C676.717 1547 683.33 1547.12 690 1546.28C693.809 1545.81 697.15 1546.21 698 1542z"/>
<path style="fill:#f1dddb; stroke:none;" d="M0 1425L0 1503C7.60253 1503 22.5452 1505.88 28.517 1500.43C33.0958 1496.25 32 1489.59 32 1484L32 1444C32 1439.14 33.5967 1430.7 29.8519 1426.89C27.5834 1424.59 23.9508 1425.01 21 1425L0 1425z"/>
<path style="fill:#f4e8ea; stroke:none;" d="M523 1434L523 1507C525.189 1501.78 524 1494.62 524 1489L524 1453C524 1447.11 525.292 1439.46 523 1434z"/>
<path style="fill:#efefe1; stroke:none;" d="M143 1451L143 1543L201 1543C209.225 1543 220.111 1544.87 228 1542.44C237.191 1539.61 245.105 1532.15 249.157 1523.49C250.946 1519.66 250 1514.12 250 1510L250 1482C250 1471.92 251.862 1459.68 249 1450C236.713 1452.28 223.468 1451 211 1451L143 1451z"/>
<path style="fill:#f1dddb; stroke:none;" d="M56 1451L56 1543L135 1543L135 1451L56 1451z"/>
<path style="fill:#efefe1; stroke:none;" d="M0 1654L32 1654L32 1585C32 1573.77 33.6675 1561.01 31.331 1550C29.0981 1539.48 21.3622 1530.6 9.99923 1530.04C7.50838 1529.92 3.69863 1529.52 1.6034 1531.18C-0.738611 1533.03 0.00117387 1537.39 0 1540L0 1562L0 1654M273.001 1543.84C265.124 1546.76 262.921 1553.24 262.17 1561C260.774 1575.42 262 1590.52 262 1605C262 1610.92 261.145 1620.44 264.923 1625.46C270.106 1632.34 278.437 1631 286 1631L330 1631C337.016 1631 345.279 1632.22 351.91 1629.58C360.494 1626.16 361 1618.12 361 1610L361 1568C361 1562.42 362.52 1553.49 359.03 1548.68C354.054 1541.83 345.381 1543 338 1543L294 1543C287.56 1543 279.108 1541.58 273.001 1543.84M424 1547L424 1549C426.712 1549.82 427.538 1550.57 429 1553C423.145 1554.9 419.308 1561.24 415.38 1565.71C411.318 1570.33 403.898 1574.29 401.603 1580.09C399.628 1585.09 401 1592.69 401 1598L401 1636L467 1636C478.789 1636 491.667 1637.59 503 1634C498.189 1625.89 499 1618.19 499 1609L499 1573C499 1566.96 501.03 1554.6 496.825 1549.62C495.352 1547.87 492.957 1548.52 490.996 1548.72C486.683 1549.15 482.33 1549 478 1549C464.428 1549 450.537 1549.86 437 1548.91C432.621 1548.6 428.38 1547.35 424 1547z"/>
<path style="fill:#f4e8ea; stroke:none;" d="M540 1556C544.72 1557.98 550.92 1557 556 1557L587 1557L697 1557C692.28 1555.02 686.08 1556 681 1556L650 1556L540 1556z"/>
<path style="fill:#f1dddb; stroke:none;" d="M538.04 1557.65C531.563 1559.79 530.077 1567.01 530.004 1573C529.824 1587.66 529.999 1602.34 530 1617C530 1623.49 530.433 1631.31 537.044 1634.82C540.76 1636.8 545.938 1636 550 1636L577 1636L663 1636L687 1636C691.208 1636 695.959 1636.59 699.91 1634.86C706.87 1631.8 706 1625.45 706 1619L706 1576C706 1570.37 707.708 1561.96 701.891 1558.69C697.781 1556.37 692.531 1557 688 1557L660 1557L576 1557L551 1557C546.87 1557 542.018 1556.34 538.04 1557.65z"/>
<path style="fill:#efefe1; stroke:none;" d="M55 1573L55 1617L55 1645C55 1650.65 55.199 1656.35 54.9606 1662C54.8275 1665.16 53.7632 1668.67 55.2431 1671.66C58.1946 1677.62 74.4591 1675.44 80 1674.71C82.2008 1674.42 85.478 1674.14 86.9722 1672.26C90.1138 1668.3 88 1656.87 88 1652L88 1595C88 1589.98 90.3464 1576.84 86.1065 1573.32C83.7842 1571.39 79.7895 1572 77 1572C69.5624 1572 62.3898 1572.42 55 1573z"/>
<path style="fill:#f1dddb; stroke:none;" d="M108 1572.65C99.559 1575.26 98.0035 1582.21 98 1590L98 1644C98 1651.27 96.1986 1661.46 100.09 1667.96C103.93 1674.37 110.443 1674 117 1674L151 1674C157.092 1674 164.129 1674.94 169.996 1673.01C179.278 1669.95 178 1660.94 178 1653L178 1600C178 1593.75 179.938 1583.49 176.258 1578.1C172.458 1572.54 166.087 1572 160 1572L125 1572C119.633 1572 113.179 1571.05 108 1572.65z"/>
<path style="fill:#efefe1; stroke:none;" d="M187 1690L252 1690L252 1572L207 1572C202.451 1572 193.366 1570.28 189.514 1573.03C187.098 1574.75 187.085 1578.34 187.015 1581C186.829 1587.99 187 1595.01 187 1602L187 1690z"/>
<path style="fill:#f4e8ea; stroke:none;" d="M256 1641C259.699 1642.55 264.017 1642 268 1642L288 1642L361 1642C357.301 1640.45 352.983 1641 349 1641L329 1641L256 1641z"/>
<path style="fill:#f1dddb; stroke:none;" d="M256 1642L256 1740L361 1740L361 1642L256 1642z"/>
<path style="fill:#efefe1; stroke:none;" d="M687 1765L695 1765C697.566 1757.94 702.695 1751.75 705.022 1744.83C707.151 1738.49 706 1730.6 706 1724L706 1698C706 1693.95 706.658 1689.21 705.505 1685.29C703.831 1679.58 700.184 1675.99 696.663 1671.54C693.48 1667.52 693.471 1663.58 688 1662L688 1658C683.33 1657.29 681.037 1654.14 677.195 1651.71C673.137 1649.14 667.584 1646.85 663 1645.44C646.901 1640.51 628.623 1642 612 1642C595.066 1642 574.935 1640.1 559 1646.9C513.201 1666.45 501.263 1734.44 539.699 1767.29C544.926 1771.76 550.743 1776.41 557.001 1779.31C577.381 1788.77 601.168 1786 623 1786C635.716 1786 648.573 1786.91 660.961 1783.69C663.573 1783.01 665.568 1781.12 668.089 1780.21C675.477 1777.52 684.574 1773.14 687 1765z"/>
<path style="fill:#f4e8ea; stroke:none;" d="M0 1664C3.6986 1665.55 8.01721 1665 12 1665L32 1665C28.3014 1663.45 23.9828 1664 20 1664L0 1664z"/>
<path style="fill:#f1dddb; stroke:none;" d="M0 1665L0 1707L32 1707L32 1665L0 1665M367 1776C371.554 1778.45 373.808 1783.31 379.004 1785.01C386.816 1787.56 396.865 1786 405 1786L459 1786C469.174 1786 485.553 1788.95 493.235 1780.45C498.331 1774.81 498 1767.04 498 1760L498 1721L498 1693C498 1687.73 498.564 1682.03 495.467 1677.44C489.241 1668.22 477.767 1669 468 1669L398 1669C388.513 1669 376.662 1667.34 370.26 1676.13C364.053 1684.65 366 1697.12 366 1707C366 1730.04 366.014 1753.03 367 1776z"/>
<path style="fill:#f4e8ea; stroke:none;" d="M109 1674C114.462 1676.29 122.113 1675 128 1675L168 1675C162.538 1672.71 154.887 1674 149 1674L109 1674z"/>
<path style="fill:#f1dddb; stroke:none;" d="M56 1684L56 1757C56 1769.5 55.8323 1782.47 67.4398 1790.47C77.8235 1797.63 93.0845 1795 105 1795L133 1795C135.793 1795 140.832 1795.91 142.821 1793.4C144.517 1791.26 143.996 1787.54 144 1785L144 1764L144 1684L56 1684z"/>
<path style="fill:#f4e8ea; stroke:none;" d="M498 1685L498 1771C500.395 1765.29 499 1757.15 499 1751L499 1707C499 1700.31 500.599 1691.19 498 1685z"/>
<path style="fill:#f1dddb; stroke:none;" d="M154 1700L154 1796L252 1796L252 1700L154 1700z"/>
<path style="fill:#efefe1; stroke:none;" d="M0 1721L0 1802L32 1802L32 1743C32 1738.07 34.1381 1726.34 30.3966 1722.6C28.3258 1720.53 24.6592 1721.01 22 1721L0 1721M355 1799C351.724 1787.61 337.449 1788 328 1788C324.828 1788 321.383 1787.65 318.285 1788.46C313.274 1789.78 310.33 1792.92 307.219 1796.78C305.002 1799.53 302.119 1801.86 300.684 1805.17C295.43 1817.29 300.824 1831.02 309.611 1839.63C314.643 1844.56 321.014 1846.95 328.001 1847C334.344 1847.04 342.251 1847.27 347.83 1843.78C358.326 1837.2 364.121 1826.07 363.996 1814C363.93 1807.57 362.257 1800.22 355 1799z"/>
<path style="fill:#f4e8ea; stroke:none;" d="M143 1793C138.388 1796.49 130.592 1795 125 1795L80 1795C84.224 1797.04 90.322 1796 95 1796L129 1796C131.957 1796 144.773 1797.7 143 1793z"/>
<path style="fill:#f1dddb; stroke:none;" d="M189.109 1803.03C185.413 1805.11 185.057 1809.2 185.004 1813C184.892 1821 184.996 1829 185 1837C185.002 1840.84 184.434 1845.21 188.148 1847.57C192.938 1850.61 201.55 1849 207 1849L250 1849C255.351 1849 263.115 1850.4 267.941 1847.68C271.755 1845.54 271.972 1841.94 271.999 1838C272.05 1830.67 272.015 1823.33 272 1816C271.991 1811.41 271.93 1806.85 267.811 1803.89C263.004 1800.45 254.604 1802 249 1802L207 1802C201.907 1802 193.676 1800.46 189.109 1803.03z"/>
<path style="fill:#efefe1; stroke:none;" d="M57 1803L57 1842C57 1845.73 55.5766 1853.3 58.0278 1856.4C59.7448 1858.56 63.5803 1857.99 66 1858L86 1858L169 1858L169 1803L57 1803z"/>
<path style="fill:#f1dddb; stroke:none;" d="M538 1803.64C528.911 1806.26 524.037 1814.18 522.375 1823C520.939 1830.62 522 1839.26 522 1847L522 1886C522 1897.9 521.742 1908.89 531.73 1917.21C541.775 1925.58 560.787 1922 573 1922L655 1922L679 1922C683.583 1922 688.567 1922.53 693 1921.16C697.558 1919.75 703.687 1916.62 705.437 1911.82C707.763 1905.43 706 1895.75 706 1889L706 1837C706 1829.59 708.993 1814.18 702.853 1808.94C692.016 1799.69 674.157 1803 661 1803L577 1803L552 1803C547.482 1803 542.386 1802.37 538 1803.64M409.09 1817.57C401.902 1819.75 401.01 1826.6 401 1833L401 1873C401 1878.16 399.553 1886.13 402.858 1890.52C406.629 1895.52 413.332 1896 419 1896L453 1896C458.667 1896 465.559 1897.03 470.985 1895.15C476.498 1893.23 479.553 1887.59 479.946 1882C480.92 1868.14 480 1853.89 480 1840C480 1834.5 481.145 1827.68 477.566 1823.04C473.261 1817.46 467.494 1817 461 1817L426 1817C420.696 1817 414.213 1816.02 409.09 1817.57z"/>
<path style="fill:#f4e8ea; stroke:none;" d="M521 1822L521 1899C523.189 1893.78 522 1886.62 522 1881L522 1842C522 1835.85 523.395 1827.71 521 1822z"/>
<path style="fill:#efefe1; stroke:none;" d="M413 1845L409 1845C408.41 1858.73 407.654 1869.71 420.13 1878.81C435.912 1890.33 459.524 1887.77 470.424 1870.92C472.28 1868.05 474.409 1865.49 474.867 1862C477.506 1841.83 460.463 1827.26 441 1827C430.317 1826.86 414.908 1832.93 413 1845z"/>
<path style="fill:#f1dddb; stroke:none;" d="M0 1828L0 1872L49 1872L49 1828L0 1828z"/>
<path style="fill:#f4e8ea; stroke:none;" d="M400 1828L400 1885C401.875 1880.53 401 1874.81 401 1870L401 1842C401 1837.46 401.769 1832.22 400 1828z"/>
<path style="fill:#efefe1; stroke:none;" d="M176 1902C179.393 1902.72 182.546 1904.36 186 1904.81C201.478 1906.85 218.384 1905 234 1905C249.163 1905 266.01 1907.07 280.985 1904.7C284.115 1904.2 286.927 1902.69 290 1902C290 1886.64 293.301 1867.08 287 1853L205 1853C197.806 1853 182.042 1850.11 177.013 1856.69C174.498 1859.98 175.006 1866.11 175 1870C174.983 1880.75 175.541 1891.31 176 1902z"/>
<path style="fill:#f4e8ea; stroke:none;" d="M77 1865C83.4361 1867.7 93.049 1866 100 1866L151 1866C144.564 1863.3 134.951 1865 128 1865L77 1865z"/>
<path style="fill:#f1dddb; stroke:none;" d="M154 1891L153.999 1875C153.983 1872.61 154.269 1869.58 152.397 1867.74C148.848 1864.27 139.555 1866 135 1866L90 1866C85.9353 1866 77.0677 1864.34 73.7423 1867.03C71.1873 1869.09 72.0011 1874.13 72 1877C71.9987 1880.45 70.9375 1886.24 73.3179 1889.11C74.9352 1891.05 77.709 1890.96 80.0039 1891C85.6656 1891.09 91.3373 1891 97 1891L119 1891L154 1891M302.005 1886.73C295.404 1889.13 295.01 1894.93 295 1901L295 1936L295 1973C295 1978.33 293.917 1985.1 296.457 1989.98C299.068 1995 303.808 1995.93 309 1996C318.997 1996.12 329.002 1996 339 1996C344.186 1996 349.999 1996.67 354.895 1994.6C360.405 1992.26 360.972 1986.26 360.999 1981C361.063 1968.67 361 1956.33 361 1944L361 1907C361 1902.31 362.176 1895.54 359.682 1891.33C357.173 1887.1 351.481 1886.13 347 1886.01C337.014 1885.75 326.989 1886 317 1886C312.31 1886 306.479 1885.1 302.005 1886.73z"/>
<path style="fill:#f4e8ea; stroke:none;" d="M75 1891C81.6777 1893.8 91.7844 1892 99 1892L151 1892C144.322 1889.2 134.216 1891 127 1891L75 1891z"/>
<path style="fill:#f1dddb; stroke:none;" d="M392 1903L392 1975C392 1988.53 392.345 2002.18 405.005 2010.45C412.475 2015.33 421.48 2014 430 2014L480 2014L480 1903L392 1903z"/>
<path style="fill:#f4e8ea; stroke:none;" d="M480 1903L480 2014L415 2014C420.951 2016.5 429.58 2015 436 2015L481 2015L481 1937L481 1915C481 1911.02 481.552 1906.7 480 1903z"/>
<path style="fill:#f1dddb; stroke:none;" d="M111 1906.65C106.689 1908.01 103.053 1911.48 102.228 1916C99.7712 1929.46 102 1945.31 102 1959C102 1964.63 101.084 1971.53 104.879 1976.23C109.015 1981.34 116.134 1980 122 1980L158 1980C163.635 1980 170.604 1981.05 175.96 1978.97C181.312 1976.89 182.847 1971.22 182.985 1966C183.338 1952.69 183 1939.32 183 1926C183 1920.36 183.798 1913.75 179.525 1909.3C175.271 1904.88 167.552 1906 162 1906L128 1906C122.646 1906 116.161 1905.03 111 1906.65z"/>
<path style="fill:#efefe1; stroke:none;" d="M196 1914C192.057 1928.9 193.999 1945.63 194 1961C194 1965.5 192.979 1974.75 196.603 1978.14C201.276 1982.51 215.018 1980 221 1980L261 1980C267.294 1980 274.795 1981.1 280.91 1979.45C284.176 1978.56 286.867 1976.23 290 1975C292.323 1956.62 291 1937.53 291 1919C288.318 1917.78 287.221 1916.68 286 1914C256.749 1910.28 225.27 1910.3 196 1914z"/>
<path style="fill:#f4e8ea; stroke:none;" d="M183 1914L183 1971C184.875 1966.53 184 1960.81 184 1956L184 1928C184 1923.46 184.769 1918.22 183 1914z"/>
<path style="fill:#efefe1; stroke:none;" d="M4.05864 1925.65C-2.01525 1927.74 0 1936.95 0 1942L0 1990L0 2057L0 2074C0.0048035 2076.33 -0.415426 2079.47 1.02778 2081.49C3.92735 2085.54 12.7196 2084 17 2084C32.0417 2084 49.5591 2086.5 63.9421 2081.49C69.8948 2079.42 68.998 2071.07 69 2066L69 2019L69 1952C69 1942.53 71.2282 1931.59 61.5448 1925.99C58.6046 1924.29 54.2602 1925 51 1925L27 1925C20.0494 1925 10.6858 1923.38 4.05864 1925.65M487 2011C490.007 2011.77 492.206 2014.05 495.184 2014.72C500.695 2015.97 507.365 2015 513 2015L548 2015C558.622 2015 570.468 2016.48 580.961 2014.85C584.64 2014.28 587.247 2011.58 591 2011C593.685 1996.54 592 1980.68 592 1966C592 1961.52 593.555 1953.37 590.973 1949.49C586.019 1942.06 576.643 1943 569 1943L512 1943C505.616 1943 493.699 1940.79 488.738 1945.82C484.746 1949.87 486 1958.85 486 1964C486 1979.6 485.044 1995.52 487 2011z"/>
<path style="fill:#f1dddb; stroke:none;" d="M599 1953L599 1998C599 2003.67 597.345 2012.43 600.434 2017.42C608.128 2029.87 619.23 2028 632 2028L705 2028L705 1953L599 1953M109 2009.47C104.6 2010.32 100.438 2012.63 98.7423 2017C97.0389 2021.4 98 2027.36 98 2032L98 2064C98.0004 2070.17 98.2222 2076.3 104.3 2079.82C107.83 2081.86 113.084 2081 117 2081L144 2081L224 2081L248 2081C252.178 2081 256.863 2081.53 260.91 2080.28C267.988 2078.09 268.997 2071.32 269 2065L269 2026C268.998 2020.09 268.921 2013.7 262.907 2010.57C258.486 2008.27 252.808 2009 248 2009L220 2009L146 2009C134.149 2009 120.648 2007.21 109 2009.47z"/>
<path style="fill:#efefe1; stroke:none;" d="M373 2023C369.129 2021.14 367.036 2016.42 362.946 2015.32C357.842 2013.94 351.263 2015 346 2015C334.334 2015 322.666 2014.93 311.001 2015C305.643 2015.04 297.985 2016.27 294.742 2021.06C292.423 2024.49 293 2029.08 293 2033L293 2059L293 2078C293.005 2081.23 292.74 2084.7 294.573 2087.53C298.272 2093.25 305.866 2093.99 312 2094C326.329 2094.02 340.672 2094.17 355 2094C360.839 2093.93 368.423 2093.39 371.686 2087.67C374.621 2082.54 373 2073.72 373 2068L373 2023z"/>
<path style="fill:#f1dddb; stroke:none;" d="M332 2025.44C323.657 2026.64 316.017 2028.97 309.519 2034.63C295.402 2046.93 299.598 2068.9 314.09 2078.74C321.306 2083.65 331.57 2084.74 339.999 2083.57C358.059 2081.07 373.461 2062.56 365.772 2044C362.307 2035.63 353.263 2029.83 344.985 2027.3C340.65 2025.98 336.575 2024.78 332 2025.44z"/>
<path style="fill:#efefe1; stroke:none;" d="M619 2040C618.527 2051.02 618 2061.92 618 2073C618 2076.87 616.857 2083.13 619.178 2086.49C623.033 2092.07 632.268 2091 638 2091L685 2091C691.223 2091 699.082 2092.29 703.411 2086.62C706.082 2083.12 705 2077.14 705 2073L705 2040C702.65 2038.89 700.494 2037.11 697.961 2036.43C690.461 2034.43 680.74 2036 673 2036C655.639 2036 634.719 2032.59 619 2040M493 2051L489 2051C489 2068.53 486.798 2087.75 490 2105L552 2105C563.835 2105 576.335 2106.17 588 2104L588 2051L584 2051C582.883 2047.56 580.06 2045.49 579 2042C557.355 2041.07 535.715 2041 514 2041C505.314 2041 493.378 2039.4 493 2051z"/>
<path style="fill:#f1dddb; stroke:none;" d="M381 2133L479 2133L479 2042L417 2042C405.227 2042 392.393 2042.74 384.61 2053.18C379.456 2060.1 381 2069.9 381 2078L381 2133z"/>
<path style="fill:#f4e8ea; stroke:none;" d="M380 2060L380 2134L479 2134C470.882 2130.59 457.797 2133 449 2133L381 2133L381 2083C381 2076.05 382.701 2066.44 380 2060z"/>
<path style="fill:#f1dddb; stroke:none;" d="M705 2093C698.132 2095.03 690.131 2094 683 2094L642 2094L626 2094C624.008 2094.01 621.282 2093.7 619.603 2095.03C617.639 2096.58 618.016 2099.79 618.001 2102C617.959 2108 618 2114 618 2120L618 2176C618.001 2183.97 619.27 2194.06 627.055 2198.57C632.933 2201.97 643.402 2200 650 2200L705 2200L705 2125C705 2117.67 704.836 2110.32 705.015 2103C705.098 2099.59 706.156 2096.22 705 2093z"/>
<path style="fill:#f4e8ea; stroke:none;" d="M617 2094L617 2183C619.802 2176.32 618 2166.22 618 2159L618 2118C618 2110.1 617.161 2101.72 619 2094L617 2094M705 2097L705 2200C707.802 2193.32 706 2183.22 706 2176L706 2124C706 2115.99 708.105 2104.4 705 2097z"/>
<path style="fill:#f1dddb; stroke:none;" d="M122 2200L203 2200L203 2136C203 2128.56 205.202 2116.66 201.062 2110.1C197.262 2104.09 189.271 2104 183 2104L142 2104C134.476 2104 127.417 2103.73 123.009 2111C118.876 2117.83 121 2129.3 121 2137C121 2158 120.35 2179.09 122 2200M315 2104L315 2200L375 2200L375 2104L315 2104z"/>
<path style="fill:#efefe1; stroke:none;" d="M92 2194L92 2189C98.0116 2187.77 99.6802 2183.3 101.91 2178C106.576 2166.91 107 2154.83 107 2143L103 2143C102.909 2116.46 72.6586 2104.05 50 2105.04C15.1797 2106.56 -9.27782 2146.41 6.17052 2178.29C10.0204 2186.23 14.2261 2192.8 21.7153 2197.98C28.7761 2202.87 43.6631 2200 52 2200C61.2016 2200 72.9944 2201.98 81.9097 2199.69C85.7992 2198.69 88.0009 2195.03 92 2194M212 2200L289 2200L289 2136C289 2130.51 290.408 2123.34 289.177 2118.04C288.324 2114.37 281.041 2107.79 277.696 2106.09C274.524 2104.47 270.444 2105 267 2105L247 2105L222 2105C219.383 2105 214.891 2104.25 213.028 2106.6C211.532 2108.49 212.005 2111.76 212 2114L212 2131L212 2200z"/>
<path style="fill:#f4e8ea; stroke:none;" d="M202 2112C203.992 2122.73 203 2134.12 203 2145L203 2200C205.497 2194.05 204 2185.42 204 2179L204 2134C204 2127.58 205.996 2117.27 202 2112z"/>
<path style="fill:#f1dddb; stroke:none;" d="M29 2189C30.9505 2194.88 37.5655 2196.49 43 2198C59.5538 2202.58 80.1685 2195.78 90.2431 2181.67C104.237 2162.07 98.2836 2132.8 78.196 2119.59C60.5757 2108 32.9792 2113.51 19.6836 2128.72C8.69516 2141.29 7.08594 2163.02 15.1435 2177.17C18.5866 2183.21 21.5047 2188.77 29 2189M489 2114L489 2200L556 2200C563.148 2200 575.492 2202.45 581.112 2197.28C589.397 2189.65 588 2180.27 588 2170L588 2114L489 2114z"/>
<path style="fill:#efefe1; stroke:none;" d="M46 2127.69C36.6002 2130.57 27.7046 2137.97 25.3935 2148.01C20.8046 2167.96 40.291 2190.18 61 2183.87C71.2488 2180.75 80.2509 2172.75 82.5216 2161.96C86.9863 2140.74 67.461 2121.1 46 2127.69M379 2143C379 2162.02 378.506 2181.06 380 2200L476 2200C482.451 2183.06 479 2161.07 479 2143L379 2143z"/>
</svg>
