<?xml version="1.0" standalone="yes"?>
<svg xmlns="http://www.w3.org/2000/svg" width="1934" height="444">
<path style="fill:#f3e3b5; stroke:none;" d="M0 0L0 444L1934 444L1934 0L0 0z"/>
<path style="fill:#337f6c; stroke:none;" d="M243 232C244.917 240.069 249.056 247.624 252.753 255C260.088 269.632 268.885 284.967 280.09 296.999C283.502 300.663 287.845 305.518 293 306.541C302.645 308.454 312.523 293.76 315 286C309.081 285.147 305.228 291.303 299 289.293C292.566 287.217 286.772 281.06 282.616 276C271.985 263.057 264.807 247.529 258.811 232C257.001 227.311 253.848 221.09 253.911 216C253.998 209.066 261.819 200.827 266.171 196C268.808 193.074 273.526 186.878 277.812 186.542C281.915 186.22 279.737 194.999 279.084 197C276.908 203.672 268.326 209.093 278.005 213.366C279.24 213.911 280.651 214.409 281.999 214.562C291.256 215.617 294.781 198.75 295.699 192C296.699 184.646 292.182 181.972 287 177.835C284.923 176.177 282.795 173.946 280 173.658C276.99 173.349 274.181 175.543 272 177.329C262.544 185.075 256.381 195.541 248.845 204.945C246.259 208.172 241.077 209.136 239.066 212.419C237.571 214.862 238.592 218.298 237.428 221C234.424 227.978 229.139 233.59 227 241C226.042 236.523 227.578 232.447 228.386 228C229.724 220.632 231.209 213.327 232.79 206C240.112 172.072 252.342 138.234 269.424 108C273.702 100.429 279.699 87.9769 289 85.743C292.068 85.0062 295.061 86.2668 297.999 86.9807C299.825 87.4243 304.608 88.3954 304.079 84.9406C303.521 81.3067 297.63 78.0831 295 76.0031C291.278 73.0592 287.03 69.368 282 69.294C277.892 69.2335 274.787 72.1797 272.174 75.0154C266.794 80.8535 262.475 88.0036 258.781 95C243.359 124.209 231.766 156.144 223.151 188C218.858 203.875 216.201 220.194 211.846 236C209.848 243.254 209.258 250.653 207.8 258C207.002 262.022 205.315 266.88 206.322 270.985C207.344 275.155 214.129 280.64 218.697 279.211C222.653 277.974 223.507 268.406 224.695 265C228.88 253.003 234.663 241.636 243 232M398 230C390.813 232.019 384.823 240.331 382 247C381.831 241.03 384.658 234.743 386.29 229C388.83 220.06 390.684 211.118 392.389 202C393.484 196.144 395.526 188.647 392.543 183.044C390.22 178.68 380.016 172.649 375 173.811C370.649 174.819 367.033 179.008 364 182.004C352.577 193.287 342.651 205.425 334.053 219C330.263 224.985 325.976 231.153 324 238C322.145 226.856 327.908 211.872 330.627 201C337.718 172.643 347.683 145.137 360.753 119C366.018 108.471 371.992 94.5095 382.001 87.6536C388.671 83.0845 394.977 88.7551 402 87C400.477 82.7129 397.498 80.4096 393.999 77.6003C389.813 74.2386 384.772 69.1447 379 69.2137C374.468 69.2679 371.071 72.8112 368.3 76.0038C361.603 83.719 356.786 92.9211 352.247 102C333.242 140.011 320.408 181.526 311.64 223C309.521 233.02 307.185 242.891 305.562 253C304.934 256.911 303.576 260.998 304.152 265C304.83 269.713 311.721 277.192 316.501 272.639C319.194 270.073 320.235 265.351 321.603 262C323.84 256.524 326.602 251.286 329.247 246C337.118 230.267 347.053 215.552 358.25 202C362.464 196.9 366.674 192.014 372 188.024C373.596 186.828 376.28 184.458 378.397 185.882C380.181 187.082 379.991 190.149 379.981 192C379.947 197.843 378.902 204.351 377.417 210C373.52 224.819 369.21 239.598 363.947 254C361.989 259.358 356.443 268.148 357.422 273.907C358.241 278.724 366.437 282.567 370.363 279.254C372.951 277.069 374.273 272.953 375.753 270C378.508 264.504 381.639 259.269 384.8 254C389.309 246.486 396.423 238.74 398 230M442 235C435.852 236.73 432.327 242.582 428 247C433.187 206.174 445.201 166.639 461.576 129C467.427 115.55 475.794 94.7181 489 87.0131C495.244 83.37 501.484 88.6283 508 87C506.455 82.8176 503.387 80.5482 499.999 77.7508C495.912 74.3754 490.691 69.336 485 69.3217C479.822 69.3088 475.462 74.2818 472.518 78.0008C464.967 87.5375 459.362 98.9922 454.309 110C436.993 147.716 423.618 189.127 416.564 230C415.066 238.682 412.923 247.297 411.385 256C410.615 260.357 408.958 265.635 410.603 269.985C411.923 273.475 419.44 280.704 423.411 277.342C426.25 274.939 426.664 268.39 427.864 265C429.678 259.875 431.738 254.73 434.428 250C437.23 245.074 440.909 240.641 442 235M594 232C595.917 240.069 600.056 247.624 603.753 255C611.088 269.632 619.885 284.967 631.09 296.999C634.502 300.662 638.845 305.518 644 306.541C653.645 308.454 663.523 293.76 666 286C660.081 285.147 656.228 291.303 650 289.293C643.566 287.217 637.772 281.06 633.616 276C622.985 263.057 615.807 247.529 609.811 232C608.001 227.311 604.848 221.09 604.911 216C604.998 209.066 612.819 200.827 617.171 196C619.808 193.074 624.526 186.878 628.812 186.542C632.915 186.22 630.737 194.999 630.084 197C627.908 203.672 619.326 209.093 629.005 213.366C630.24 213.911 631.651 214.409 632.999 214.562C642.256 215.617 645.781 198.75 646.699 192C647.699 184.646 643.182 181.972 638 177.835C635.923 176.177 633.795 173.946 631 173.658C627.99 173.349 625.181 175.543 623 177.329C613.544 185.075 607.381 195.541 599.845 204.945C597.259 208.172 592.077 209.136 590.066 212.419C588.571 214.862 589.591 218.298 588.428 221C585.424 227.978 580.139 233.59 578 241C577.042 236.523 578.578 232.447 579.386 228C580.724 220.632 582.209 213.327 583.79 206C591.112 172.072 603.342 138.234 620.424 108C624.702 100.429 630.699 87.9769 640 85.743C643.068 85.0062 646.061 86.2668 648.999 86.9807C650.825 87.4243 655.608 88.3955 655.079 84.9406C654.521 81.3068 648.63 78.0831 646 76.0031C642.278 73.0592 638.03 69.368 633 69.294C628.892 69.2335 625.787 72.1797 623.174 75.0154C617.794 80.8535 613.475 88.0037 609.781 95C594.359 124.209 582.766 156.144 574.151 188C569.858 203.875 567.2 220.194 562.846 236C560.848 243.254 560.258 250.653 558.8 258C558.002 262.022 556.315 266.88 557.322 270.985C558.344 275.155 565.129 280.64 569.697 279.211C573.653 277.974 574.507 268.406 575.695 265C579.88 253.003 585.663 241.636 594 232z"/>
<path style="fill:#080a0a; stroke:none;" d="M7 270L6 276L61 276L62 270L36 270C44.778 258.353 54.4868 247.387 63.6003 236C67.1822 231.525 71.4979 223.74 77.0394 221.603C81.5881 219.849 88.1885 221 93 221L128 221C125.007 237.122 125.053 253.752 123 270L98 270L97 276L174 276L175 270L151 270C153.868 233.66 157.542 197.277 161.169 161C162.949 143.198 165.852 124.89 166 107C158.727 107.241 155.865 112.766 151.576 118C143.382 127.997 135.114 137.938 127 148C103.746 176.835 79.9781 205.257 56.6111 234L36.1968 259C33.4 262.46 30.276 267.733 25.9606 269.397C20.639 271.449 12.6547 270 7 270z"/>
<path style="fill:#337f6c; stroke:none;" d="M166 107L166 110C166.696 108.446 166.696 108.554 166 107M159 108L160 109L159 108M158 109L159 110L158 109z"/>
<path style="fill:#080a0a; stroke:none;" d="M689 110L688 116L711 116C706.587 129.033 704.788 143.518 701.997 157C696.953 181.358 691.761 205.704 686.424 230C683.886 241.555 682.289 253.635 678.942 264.981C675.422 276.915 655.535 262.666 654 276L711 276C717.687 276 728.003 278.66 729 270L707 270C708.562 250.883 714.418 230.731 718.651 212C719.727 207.235 719.95 195.895 724.314 193.028C728.786 190.091 738.814 192 744 192L794 192C788.755 210.657 785.733 230.072 781.576 249C780.47 254.034 780.132 265.883 775.57 268.972C770.856 272.165 759.557 270 754 270L753 276L810 276C816.687 276 827.003 278.66 828 270L806 270C806.645 261.896 809.006 253.955 810.6 246C814.214 227.962 818.267 210.013 821.997 192C825.451 175.317 828.921 158.64 832.576 142C834.145 134.854 834.738 126.915 837.343 120.059C841.385 109.42 860.478 123.225 862 110L788 110L787 116L810 116C806.691 133.063 802.639 150.004 799 167C798.026 171.547 797.656 182.177 793.567 184.972C789.239 187.932 779.075 186 774 186L724 186C727.995 174.221 729.76 161.198 732.2 149C734.393 138.038 737.509 127.074 739 116C746.187 116 762.255 119.561 763 110L689 110z"/>
<path style="fill:#337f6c; stroke:none;" d="M763.333 110.667C763.278 110.722 763.222 111.778 763.667 111.333C763.722 111.278 763.778 110.222 763.333 110.667M1579 110L1579 113C1579.7 111.446 1579.7 111.554 1579 110z"/>
<path style="fill:#080a0a; stroke:none;" d="M1580 110L1579 116L1602 116C1600.99 128.708 1597.22 141.485 1594.8 154C1589.98 179.004 1585.19 204.03 1580.2 229C1576.75 246.274 1575.09 267.929 1563.53 281.996C1556.07 291.081 1545.44 294.07 1534 292.826C1530.34 292.428 1523.67 291.114 1522.5 286.896C1521.54 283.468 1525.56 281.064 1527.3 278.715C1530.37 274.572 1530.7 268.582 1528.31 264.04C1521.8 251.682 1505.36 258.124 1503.33 270C1500.86 284.465 1513.65 293.587 1526 296.844C1547.13 302.418 1571.85 294.974 1586.83 278.961C1603.77 260.836 1607.31 234.312 1611.8 211C1615.73 190.657 1619.74 170.313 1623.8 150C1626.02 138.899 1629.51 127.321 1630 116L1654 116L1655 110L1580 110z"/>
<path style="fill:#337f6c; stroke:none;" d="M1333.67 111.333C1333.22 111.778 1334.28 111.722 1334.33 111.667C1334.78 111.222 1333.72 111.278 1333.67 111.333z"/>
<path style="fill:#080a0a; stroke:none;" d="M1335 111.573C1318.01 114.932 1323.47 141.038 1340 137.452C1356.87 133.792 1351.65 108.28 1335 111.573z"/>
<path style="fill:#337f6c; stroke:none;" d="M1339 111C1340.25 111.685 1340.55 111.749 1342 112C1340.75 111.315 1340.45 111.251 1339 111M1654 111L1655 112L1654 111M1703.67 111.333C1703.22 111.778 1704.28 111.722 1704.33 111.667C1704.78 111.222 1703.72 111.278 1703.67 111.333z"/>
<path style="fill:#080a0a; stroke:none;" d="M1705 111.573C1688.01 114.932 1693.47 141.038 1710 137.452C1726.87 133.792 1721.65 108.28 1705 111.573z"/>
<path style="fill:#337f6c; stroke:none;" d="M1709 111C1710.25 111.685 1710.55 111.749 1712 112C1710.75 111.315 1710.45 111.251 1709 111M688.333 112.667C688.278 112.722 688.222 113.778 688.667 113.333C688.722 113.278 688.778 112.222 688.333 112.667M787 112L787 115C787.696 113.446 787.696 113.554 787 112M1331 112L1332 113L1331 112M1343 112L1344 113L1343 112M1701 112L1702 113L1701 112M1713 112L1714 113L1713 112M155 113L156 114L155 113M1329 113L1330 114L1329 113M1345 113L1346 114L1345 113M1699 113L1700 114L1699 113M1715 113L1716 114L1715 113M154 114L155 115L154 114M165 114L165 120C165.951 117.715 165.951 116.285 165 114M861.333 114.667C861.278 114.722 861.222 115.778 861.667 115.333C861.722 115.278 861.778 114.222 861.333 114.667M1328 114L1329 115L1328 114M1346 114L1347 115L1346 114M1698 114L1699 115L1698 114M1716 114L1717 115L1716 114M153 115L154 116L153 115M762 115L763 116L762 115M1327 115L1328 116L1327 115M1347 115L1348 116L1347 115M1697 115L1698 116L1697 115M1717 115L1718 116L1717 115M710 116L711 117L710 116M809 116L809 119C809.696 117.446 809.696 117.554 809 116M1326 116L1327 117L1326 116M1348 116L1349 117L1348 116M1630 116L1631 117L1630 116M1696 116L1697 117L1696 116M1718 116L1719 117L1718 116M151 118L152 119L151 118M837 118L838 119L837 118M1325 118L1326 119L1325 118M1349 118L1350 119L1349 118M1601 118L1601 121C1601.7 119.446 1601.7 119.554 1601 118M1695 118L1696 119L1695 118M1719 118L1720 119L1719 118M150 119L151 120L150 119M709 119L709 122C709.696 120.446 709.696 120.554 709 119M738.333 119.667C738.278 119.722 738.222 120.778 738.667 120.333C738.722 120.278 738.778 119.222 738.333 119.667M149 120L150 121L149 120M1324 120L1325 121L1324 120M1350 120L1351 121L1350 120M1694 120L1695 121L1694 120M1720 120L1721 121L1720 120M808 121L808 124C808.696 122.446 808.696 122.554 808 121M1629.33 121.667C1629.28 121.722 1629.22 122.778 1629.67 122.333C1629.72 122.278 1629.78 121.222 1629.33 121.667M737 123L738 124L737 123M836.333 123.667C836.278 123.722 836.222 124.778 836.667 124.333C836.722 124.278 836.778 123.222 836.333 123.667M1600 123L1600 126C1600.7 124.446 1600.7 124.554 1600 123M146 124L147 125L146 124M708 124L708 127C708.696 125.446 708.696 125.554 708 124M145 125L146 126L145 125M164 125L164 131C164.951 128.715 164.951 127.285 164 125M807 125L807 128C807.696 126.446 807.696 126.554 807 125M144 126L145 127L144 126M1628.33 126.667C1628.28 126.722 1628.22 127.778 1628.67 127.333C1628.72 127.278 1628.78 126.222 1628.33 126.667M835 127L836 128L835 127M736 128L737 129L736 128M1324 128L1325 129L1324 128M1350 128L1351 129L1350 128M1599 128L1599 131C1599.7 129.446 1599.7 129.554 1599 128M1694 128L1695 129L1694 128M1720 128L1721 129L1720 128M142 129L143 130L142 129M707.333 129.667C707.278 129.722 707.222 130.778 707.667 130.333C707.722 130.278 707.778 129.222 707.333 129.667M141 130L142 131L141 130M806 130L806 133C806.696 131.446 806.696 131.554 806 130M1325 130L1326 131L1325 130M1349 130L1350 131L1349 130M1695 130L1696 131L1695 130M1719 130L1720 131L1719 130M140 131L141 132L140 131M1627.33 131.667C1627.28 131.722 1627.22 132.778 1627.67 132.333C1627.72 132.278 1627.78 131.222 1627.33 131.667M834 132L835 133L834 132M1326 132L1327 133L1326 132M1348 132L1349 133L1348 132M1696 132L1697 133L1696 132M1718 132L1719 133L1718 132M706 133L706 136C706.696 134.446 706.696 134.554 706 133M735 133L736 134L735 133M1327 133L1328 134L1327 133M1347 133L1348 134L1347 133M1598 133L1598 136C1598.7 134.446 1598.7 134.554 1598 133M1697 133L1698 134L1697 133M1717 133L1718 134L1717 133M1328 134L1329 135L1328 134M1346 134L1347 135L1346 134M1698 134L1699 135L1698 134M1716 134L1717 135L1716 134M137 135L138 136L137 135M805.333 135.667C805.278 135.722 805.222 136.778 805.667 136.333C805.722 136.278 805.778 135.222 805.333 135.667M1329 135L1330 136L1329 135M1699 135L1700 136L1699 135M136 136L137 137L136 136M163 136L163 141C163.83 138.97 163.83 138.03 163 136M1331 136L1332 137L1331 136M1343 136L1344 137L1343 136M1626 136L1627 137L1626 136M1701 136L1702 137L1701 136M1713 136L1714 137L1713 136M135 137L136 138L135 137M833.333 137.667C833.278 137.722 833.222 138.778 833.667 138.333C833.722 138.278 833.778 137.222 833.333 137.667M1333.67 137.333C1333.22 137.778 1334.28 137.722 1334.33 137.667C1334.78 137.222 1333.72 137.278 1333.67 137.333M1340.67 137.333C1340.22 137.778 1341.28 137.722 1341.33 137.667C1341.78 137.222 1340.72 137.278 1340.67 137.333M1703.67 137.333C1703.22 137.778 1704.28 137.722 1704.33 137.667C1704.78 137.222 1703.72 137.278 1703.67 137.333M1710.67 137.333C1710.22 137.778 1711.28 137.722 1711.33 137.667C1711.78 137.222 1710.72 137.278 1710.67 137.333M705 138L705 141C705.696 139.446 705.696 139.554 705 138M734.333 138.667C734.278 138.722 734.222 139.778 734.667 139.333C734.722 139.278 734.778 138.222 734.333 138.667M1597 138L1597 141C1597.7 139.446 1597.7 139.554 1597 138M804 139L804 142C804.696 140.446 804.696 140.554 804 139M133 140L134 141L133 140M132 141L133 142L132 141M1625 141L1626 142L1625 141M131 142L132 143L131 142M733 142L734 143L733 142M832.333 142.667C832.278 142.722 832.222 143.778 832.667 143.333C832.722 143.278 832.778 142.222 832.333 142.667M704 143L704 146C704.696 144.446 704.696 144.554 704 143M1596 143L1596 146C1596.7 144.446 1596.7 144.554 1596 143M803 144L803 147C803.696 145.446 803.696 145.554 803 144M128 146L129 147L128 146M831 146L832 147L831 146M1624 146L1625 147L1624 146M127 147L128 148L127 147M162 147L162 151C162.71 149.24 162.71 148.759 162 147M703 147L703 150C703.696 148.446 703.696 148.554 703 147M732 147L733 148L732 147M126 148L127 149L126 148M802 148L802 151C802.696 149.446 802.696 149.554 802 148M1595 148L1595 151C1595.7 149.446 1595.7 149.554 1595 148M133 149C131.814 150.186 131.472 150.584 131 152C132.548 150.738 132.808 150.806 133 149z"/>
<path style="fill:#f3e3b5; stroke:none;" d="M133 150C122.292 161.634 112.877 174.654 103 187C95.6452 196.193 87.2444 205.006 81 215L128 215C128.043 199.404 130.836 183.553 132.086 168C132.531 162.453 134.64 155.331 133 150z"/>
<path style="fill:#337f6c; stroke:none;" d="M124 151L125 152L124 151M830 151L831 152L830 151M1623 151L1623 154C1623.7 152.446 1623.7 152.554 1623 151M123 152L124 153L123 152M702 152L702 155C702.696 153.446 702.696 153.554 702 152M731 152L732 153L731 152M122 153L123 154L122 153M133 153L133 159C133.951 156.715 133.951 155.285 133 153M801 153L801 156C801.696 154.446 801.696 154.554 801 153M1594 153L1594 156C1594.7 154.446 1594.7 154.554 1594 153M128 155L129 156L128 155M127 156L128 157L127 156M829 156L830 157L829 156M1622 156L1622 159C1622.7 157.446 1622.7 157.554 1622 156M119 157L120 158L119 157M701 157L701 160C701.696 158.446 701.696 158.554 701 157M730.333 157.667C730.278 157.722 730.222 158.778 730.667 158.333C730.722 158.278 730.778 157.222 730.333 157.667M118 158L119 159L118 158M161 158L161 162C161.71 160.24 161.71 159.759 161 158M800 158L800 161C800.696 159.446 800.696 159.554 800 158M1593 158L1593 162C1593.71 160.241 1593.71 159.759 1593 158M117 159L118 160L117 159M124 160L125 161L124 160M828 160L828 163C828.696 161.446 828.696 161.554 828 160M123 161L124 162L123 161M700 161L700 164C700.696 162.446 700.696 162.554 700 161M729 161L730 162L729 161M115 162L116 163L115 162M799 162L799 165C799.696 163.446 799.696 163.554 799 162M1621.33 162.667C1621.28 162.722 1621.22 163.778 1621.67 163.333C1621.72 163.278 1621.78 162.222 1621.33 162.667M114 163L115 164L114 163M1592 163L1592 167C1592.71 165.241 1592.71 164.759 1592 163M113 164L114 165L113 164M132 164L132 168C132.71 166.24 132.71 165.759 132 164M120 165L121 166L120 165M827 165L828 166L827 165M119 166L120 167L119 166M699 166L699 169C699.696 167.446 699.696 167.554 699 166M728 166L729 167L728 166M798 167L798 170C798.696 168.446 798.696 168.554 798 167M1620.33 167.667C1620.28 167.722 1620.22 168.778 1620.67 168.333C1620.72 168.278 1620.78 167.222 1620.33 167.667M110 168L111 169L110 168M160 168L160 174C160.951 171.715 160.951 170.285 160 168M109 169L110 170L109 169M108 170L109 171L108 170M116 170L117 171L116 170M826 170L827 171L826 170M115 171L116 172L115 171M698 171L698 174C698.696 172.446 698.696 172.554 698 171M727 171L728 172L727 171M1591 171L1592 172L1591 171M114 172L115 173L114 172M797.333 172.667C797.278 172.722 797.222 173.778 797.667 173.333C797.722 173.278 797.778 172.222 797.333 172.667M1619.33 172.667C1619.28 172.722 1619.22 173.778 1619.67 173.333C1619.72 173.277 1619.78 172.222 1619.33 172.667M106 173L107 174L106 173M520 215C520.11 219.857 517.727 224.324 516.475 229C514.092 237.899 512.409 246.961 510.6 256C509.767 260.166 507.617 265.722 508.523 269.96C509.364 273.89 518.091 281.381 521.911 277.381C524.79 274.367 525.143 267.839 526.612 264C530.228 254.549 538.687 244.875 540 235C533.662 236.282 530.331 241.579 526 246C528.313 236.61 530.276 227.207 533.333 218C535.45 211.628 537.643 205.305 539.947 199C541.024 196.052 542.925 192.228 542.498 189.015C541.951 184.9 533.887 178.149 529.702 181.046C527.648 182.468 527.104 185.813 526.305 188C524.418 193.158 522.191 198.271 519.395 203C509.788 219.245 497.703 233.96 485.166 248C480.407 253.329 475.839 258.855 470 263.072C468.069 264.467 464.891 266.968 462.333 265.758C459.544 264.44 460.737 260.271 461.212 258C462.734 250.72 465.935 243.626 469.248 237C475.841 223.816 484.609 211.108 494.289 200C498.104 195.623 503.348 189.704 509 187.753C513.585 186.17 519.265 188.794 524 189C522.873 181.847 511.681 172.116 504 173.438C499.049 174.289 494.688 178.889 491.285 182.285C472.276 201.261 453.235 229.007 448.464 256C447.715 260.235 447.289 265.916 449.009 269.96C452.946 279.211 462.772 279.857 470 274.699C484.055 264.669 495.514 249.411 506.199 236C511.229 229.687 517.521 222.768 520 215M105 174L106 175L105 174M131 174L131 179C131.83 176.97 131.83 176.03 131 174M1590 174L1590 177C1590.7 175.446 1590.7 175.554 1590 174M104 175L105 176L104 175M112 175L113 176L112 175M825.333 175.667C825.278 175.722 825.222 176.778 825.667 176.333C825.722 176.278 825.778 175.222 825.333 175.667M111 176L112 177L111 176M697 176L697 179C697.696 177.446 697.696 177.554 697 176M726.333 176.667C726.278 176.722 726.222 177.778 726.667 177.333C726.722 177.278 726.778 176.222 726.333 176.667M796 176L796 179C796.696 177.446 796.696 177.554 796 176M911 176C913.052 176.874 914.747 176.953 917 177C914.948 176.126 913.253 176.047 911 176z"/>
<path style="fill:#080a0a; stroke:none;" d="M917 176.439C890.015 179.364 866.925 201.454 864.171 229C861.923 251.476 872.639 280.758 900 278.816C928.796 276.771 952.093 251.287 954.83 223C957.06 199.955 943.466 173.57 917 176.439z"/>
<path style="fill:#337f6c; stroke:none;" d="M922 176C923.506 176.683 924.315 176.826 926 177C924.494 176.317 923.685 176.174 922 176M1012 176C1013.77 176.779 1015.04 176.912 1017 177C1015.23 176.221 1013.96 176.088 1012 176z"/>
<path style="fill:#080a0a; stroke:none;" d="M1017 176.428C1010.72 177.326 1004.39 178.566 999 182.108C995.082 184.683 991.698 188.098 989.105 192C987.463 194.471 986.107 197.165 985.221 200C979.247 219.111 997.942 230.568 1012 238.312C1019.2 242.276 1031.46 250.195 1027.45 259.999C1023.18 270.457 1011.08 273.116 1001 272.996C996.888 272.947 991.341 272.654 988.836 268.775C985.764 264.021 991.44 257.537 989.258 252.019C987.473 247.506 982.54 245.499 978.004 246.819C968.354 249.627 968.712 261.538 974.225 267.985C981.205 276.148 993.522 279.504 1004 278.907C1010.67 278.527 1017.92 276.889 1024 274.099C1029.09 271.762 1034.05 268.268 1037.67 263.985C1046.33 253.759 1046.52 237.449 1038.1 227.09C1033.07 220.907 1025.82 216.764 1019 212.85C1012.25 208.977 998.622 202.94 1000.9 193.001C1002.89 184.312 1013.42 181.936 1021 182.005C1023.87 182.031 1027.36 182.014 1029.38 184.434C1033.14 188.937 1027.81 195.859 1032.32 200.772C1035.12 203.83 1039.32 204.45 1042.96 202.542C1050.85 198.397 1049.83 187.841 1043.81 182.532C1037.26 176.75 1025.37 175.233 1017 176.428z"/>
<path style="fill:#337f6c; stroke:none;" d="M1026 176C1027.77 176.779 1029.04 176.912 1031 177C1029.23 176.221 1027.96 176.088 1026 176M1107 176C1108.77 176.779 1110.04 176.912 1112 177C1110.23 176.221 1108.96 176.088 1107 176z"/>
<path style="fill:#080a0a; stroke:none;" d="M1112 176.428C1105.72 177.326 1099.39 178.566 1094 182.108C1090.08 184.683 1086.7 188.098 1084.1 192C1082.46 194.471 1081.11 197.165 1080.22 200C1074.25 219.111 1092.94 230.568 1107 238.312C1114.2 242.276 1126.46 250.195 1122.45 259.999C1118.18 270.457 1106.08 273.116 1096 272.996C1091.89 272.947 1086.34 272.654 1083.84 268.775C1080.76 264.02 1086.44 257.537 1084.26 252.019C1082.47 247.506 1077.54 245.499 1073 246.819C1063.35 249.627 1063.71 261.538 1069.22 267.985C1076.2 276.148 1088.52 279.504 1099 278.907C1105.67 278.527 1112.92 276.889 1119 274.099C1124.09 271.762 1129.05 268.268 1132.67 263.985C1141.33 253.759 1141.52 237.449 1133.1 227.09C1128.07 220.907 1120.82 216.764 1114 212.85C1107.25 208.977 1093.62 202.94 1095.9 193.001C1097.89 184.312 1108.42 181.936 1116 182.005C1118.87 182.031 1122.36 182.014 1124.38 184.434C1128.14 188.937 1122.81 195.859 1127.32 200.772C1130.12 203.83 1134.32 204.45 1137.96 202.542C1145.85 198.397 1144.83 187.841 1138.81 182.532C1132.26 176.75 1120.37 175.233 1112 176.428z"/>
<path style="fill:#337f6c; stroke:none;" d="M1121 176C1122.77 176.779 1124.04 176.912 1126 177C1124.23 176.221 1122.96 176.088 1121 176M1208 176C1209.51 176.683 1210.31 176.826 1212 177C1210.49 176.317 1209.69 176.174 1208 176z"/>
<path style="fill:#080a0a; stroke:none;" d="M1222 256C1224.27 262.689 1224.18 270.712 1230.1 275.57C1236.41 280.742 1244.82 278.696 1251 274.532C1261.56 267.413 1270.12 252.562 1272 240C1264.02 241.318 1260.74 255.948 1256.1 261.996C1254.29 264.353 1251.5 268.324 1248.06 267.963C1245.14 267.657 1244.19 264.463 1244.15 261.999C1244.06 256.732 1246.1 251.113 1247.21 246C1252.08 223.458 1259.92 200.847 1263 178L1240 178C1238.91 183.642 1237.46 189.265 1237 195L1235 195C1233.38 176.538 1215.61 173.503 1201 179.454C1182.37 187.038 1167.81 206.628 1163.67 226C1160.68 239.969 1161.75 256.479 1171.12 267.961C1187.36 287.855 1213.26 276.875 1222 256z"/>
<path style="fill:#337f6c; stroke:none;" d="M1218 176C1219.25 176.685 1219.55 176.749 1221 177C1219.75 176.315 1219.45 176.251 1218 176M1334 176C1335.51 176.683 1336.31 176.826 1338 177C1336.49 176.317 1335.69 176.174 1334 176M1417 176C1417.55 177.635 1417.36 177.455 1419 178L1419 176L1417 176M1449 176C1450.25 176.685 1450.55 176.749 1452 177C1450.75 176.315 1450.45 176.251 1449 176z"/>
<path style="fill:#080a0a; stroke:none;" d="M1412 205C1414.36 195.898 1417.25 186.388 1418 177C1402.88 178.194 1388.22 179 1373 179L1372 185L1393 185C1392.1 196.053 1388.13 207.198 1385.65 218C1381.21 237.341 1376.97 256.788 1372 276L1387 276C1389.23 275.995 1392.38 276.447 1394.27 274.972C1396.46 273.271 1396.67 269.493 1397.21 267C1398.59 260.648 1400.2 254.336 1401.65 248C1405.86 229.672 1411.87 210.249 1426 197.09C1430.41 192.984 1436.05 188.242 1442 186.643C1451.46 184.101 1452.61 194.357 1451.11 201C1447.8 215.734 1443.79 230.347 1440.13 245C1438.31 252.275 1435.46 261.575 1437.8 268.999C1441 279.13 1453.4 280.072 1462 277.251C1477.76 272.081 1486.94 256.937 1492 242C1482.61 242.725 1479.8 257.584 1473.7 263.815C1471.05 266.52 1466.08 270.392 1462.32 267.381C1456.56 262.77 1462.45 248.711 1463.87 243C1466.45 232.683 1468.79 222.316 1471.37 212C1472.87 205.996 1475.22 199.258 1474.67 193C1472.58 169.207 1443.91 175.691 1431 185.68C1423.73 191.301 1418.76 199.003 1412 205z"/>
<path style="fill:#337f6c; stroke:none;" d="M1458 176C1459.25 176.685 1459.55 176.749 1461 177C1459.75 176.315 1459.45 176.251 1458 176M1704 176C1705.51 176.683 1706.31 176.826 1708 177C1706.49 176.317 1705.69 176.174 1704 176M1784 176C1785.14 177.015 1785.61 177.309 1787 178C1786.02 176.217 1786.09 176.406 1784 176M1814 176C1815.25 176.685 1815.55 176.749 1817 177C1815.75 176.315 1815.45 176.251 1814 176z"/>
<path style="fill:#080a0a; stroke:none;" d="M1780 205C1781.27 195.539 1785.22 186.53 1786 177C1771.21 178.169 1756.91 179 1742 179L1741 185L1762 185C1757.16 202.185 1753.46 219.683 1749.13 237C1745.94 249.765 1741.75 262.969 1740 276L1756 275.999C1758.27 275.984 1761.21 276.309 1762.86 274.397C1766.58 270.086 1766.82 260.413 1768.13 255C1771.7 240.286 1774.92 225.367 1782.31 212C1787.28 203.02 1795.23 193.982 1804 188.563C1809.01 185.471 1815.48 185.424 1817.49 192.015C1818.93 196.767 1816.8 202.347 1815.79 207C1813.33 218.367 1810.41 229.709 1807.63 241C1804.75 252.651 1802.25 264.453 1799 276L1814 276C1816.3 275.995 1819.46 276.432 1821.44 274.972C1823.46 273.477 1823.8 270.26 1824.37 268C1825.97 261.683 1827.38 255.337 1828.88 249C1833.64 228.921 1839.29 208.315 1856 194.805C1859.84 191.699 1864.1 187.916 1869 186.654C1878.7 184.157 1879.28 194.449 1877.76 201C1874.27 216.081 1869.88 230.978 1866.13 246C1864.31 253.271 1861.23 261.595 1864.15 268.999C1868.3 279.541 1881.93 280.399 1891 276.468C1904.52 270.61 1912.81 255.799 1916 242C1909.85 242.489 1909.2 247.072 1906.73 252C1904.48 256.483 1901.66 260.466 1897.99 263.906C1895.63 266.112 1890.89 270.467 1887.6 267.378C1885.69 265.577 1886 262.346 1886.29 260C1887 254.259 1888.73 248.599 1890.13 243L1897.87 212C1899.64 204.945 1901.95 197.35 1900.79 190C1897.47 168.975 1869.2 176.673 1858 184.924C1850.83 190.208 1845.78 197.358 1840 204C1840.1 199.375 1841.53 194.571 1840.47 190C1837.94 179.162 1826.2 174.556 1816 176.67C1799.36 180.118 1790.45 192.924 1780 205z"/>
<path style="fill:#337f6c; stroke:none;" d="M1823 176C1824.25 176.685 1824.55 176.749 1826 177C1824.75 176.315 1824.45 176.251 1823 176M1875 176C1876.51 176.683 1877.31 176.826 1879 177C1877.49 176.317 1876.68 176.174 1875 176M1885.67 176.333C1885.22 176.778 1886.28 176.722 1886.33 176.667C1886.78 176.222 1885.72 176.278 1885.67 176.333M110 177L111 178L110 177M907.667 177.333C907.222 177.778 908.278 177.722 908.333 177.667C908.778 177.222 907.722 177.278 907.667 177.333M929.667 177.333C929.222 177.778 930.278 177.722 930.333 177.667C930.778 177.222 929.722 177.278 929.667 177.333M1009.67 177.333C1009.22 177.777 1010.28 177.722 1010.33 177.667C1010.78 177.222 1009.72 177.278 1009.67 177.333M1033 177L1034 178L1033 177M1104.67 177.333C1104.22 177.778 1105.28 177.722 1105.33 177.667C1105.78 177.222 1104.72 177.278 1104.67 177.333M1128 177L1129 178L1128 177M1205.67 177.333C1205.22 177.778 1206.28 177.722 1206.33 177.667C1206.78 177.222 1205.72 177.278 1205.67 177.333M1223 177L1224 178L1223 177M1329 177C1330.25 177.685 1330.55 177.749 1332 178C1330.75 177.315 1330.45 177.251 1329 177z"/>
<path style="fill:#080a0a; stroke:none;" d="M1291 179L1290 185L1313 185C1309.2 203.415 1304.19 221.756 1299.63 240C1297.37 249.015 1293.35 260.781 1296.89 269.999C1300.83 280.246 1313.37 279.636 1322 277.087C1338.02 272.357 1352.13 253.158 1355 237L1350 237C1347.11 247.003 1339.37 258.848 1330.99 265.072C1327.09 267.967 1319.19 271.487 1318.16 263.981C1316.98 255.344 1321.55 244.314 1323.63 236C1328.53 216.399 1333.92 196.785 1338 177C1331.63 177.132 1325.35 178.476 1319 178.91C1309.74 179.544 1300.28 179 1291 179z"/>
<path style="fill:#337f6c; stroke:none;" d="M1412.67 177.333C1412.22 177.778 1413.28 177.722 1413.33 177.667C1413.78 177.222 1412.72 177.278 1412.67 177.333M1446 177L1447 178L1446 177M1463 177L1464 178L1463 177M1618.33 177.667C1618.28 177.722 1618.22 178.778 1618.67 178.333C1618.72 178.277 1618.78 177.223 1618.33 177.667M1699 177C1700.25 177.685 1700.55 177.749 1702 178C1700.75 177.315 1700.45 177.251 1699 177z"/>
<path style="fill:#080a0a; stroke:none;" d="M1661 179L1660 185L1683 185C1679.2 203.415 1674.19 221.756 1669.63 240C1667.37 249.015 1663.35 260.781 1666.89 269.999C1670.83 280.246 1683.37 279.636 1692 277.087C1708.02 272.357 1722.13 253.158 1725 237L1720 237C1717.11 247.003 1709.37 258.848 1700.99 265.072C1697.09 267.967 1689.19 271.487 1688.16 263.981C1686.98 255.344 1691.55 244.314 1693.63 236C1698.53 216.399 1703.92 196.785 1708 177C1701.63 177.132 1695.35 178.476 1689 178.91C1679.74 179.544 1670.28 179 1661 179z"/>
<path style="fill:#337f6c; stroke:none;" d="M1780.67 177.333C1780.22 177.778 1781.28 177.722 1781.33 177.667C1781.78 177.222 1780.72 177.278 1780.67 177.333M1811.67 177.333C1811.22 177.778 1812.28 177.722 1812.33 177.667C1812.78 177.222 1811.72 177.278 1811.67 177.333M1829 177L1830 178L1829 177M1872.67 177.333C1872.22 177.778 1873.28 177.722 1873.33 177.667C1873.78 177.222 1872.72 177.278 1872.67 177.333M1890 177L1891 178L1890 177M904 178L905 179L904 178M933 178L934 179L933 178M1006 178L1007 179L1006 178M1036 178L1037 179L1036 178M1101 178L1102 179L1101 178M1131 178L1132 179L1131 178M1202.67 178.333C1202.22 178.778 1203.28 178.722 1203.33 178.667C1203.78 178.222 1202.72 178.278 1202.67 178.333M1225 178L1226 179L1225 178M1318 178C1319.77 178.779 1321.04 178.912 1323 179C1321.23 178.221 1319.96 178.088 1318 178M1401 178C1402.77 178.779 1404.04 178.912 1406 179C1404.23 178.221 1402.96 178.088 1401 178M1443 178L1444 179L1443 178M1688 178C1689.77 178.779 1691.04 178.912 1693 179C1691.23 178.221 1689.96 178.088 1688 178M1770 178C1772.05 178.874 1773.75 178.953 1776 179C1773.95 178.126 1772.25 178.047 1770 178M1809 178L1810 179L1809 178M1869 178L1870 179L1869 178M1892 178L1893 179L1892 178M101 179L102 180L101 179M159 179L159 184C159.83 181.97 159.83 181.03 159 179M824 179L825 180L824 179M901 179L902 180L901 179M935 179L936 180L935 179M1003 179L1004 180L1003 179M1039 179L1040 180L1039 179M1098 179L1099 180L1098 179M1134 179L1135 180L1134 179M1200 179L1201 180L1200 179M1227 179L1228 180L1227 179M1239.33 179.667C1239.28 179.722 1239.22 180.778 1239.67 180.333C1239.72 180.278 1239.78 179.222 1239.33 179.667M1290 179L1290 182C1290.7 180.446 1290.7 180.554 1290 179M1337 179L1338 180L1337 179M1441 179L1442 180L1441 179M1467 179L1468 180L1467 179M1589 179L1589 182C1589.7 180.446 1589.7 180.554 1589 179M1660 179L1660 182C1660.7 180.446 1660.7 180.554 1660 179M1707 179L1708 180L1707 179M1741 179L1741 182C1741.7 180.446 1741.7 180.554 1741 179M1806 179L1807 180L1806 179M1833 179L1834 180L1833 179M1867 179L1868 180L1867 179M1894 179L1895 180L1894 179M100 180L101 181L100 180M108 180L109 181L108 180M696 180L696 183C696.696 181.446 696.696 181.554 696 180M725 180L726 181L725 180M899 180L900 181L899 180M937 180L938 181L937 180M1001 180L1002 181L1001 180M1096 180L1097 181L1096 180M1198 180L1199 181L1198 180M1228 180L1229 181L1228 180M1804 180L1805 181L1804 180M1895 180L1896 181L1895 180M99 181L100 182L99 181M107 181L108 182L107 181M795 181L795 184C795.696 182.446 795.696 182.554 795 181M897 181L898 182L897 181M938 181L939 182L938 181M1042 181L1043 182L1042 181M1137 181L1138 182L1137 181M1196 181L1197 182L1196 181M1229 181L1230 182L1229 181M1262 181L1263 182L1262 181M1372 181L1372 184C1372.7 182.446 1372.7 182.554 1372 181M1417.33 181.667C1417.28 181.722 1417.22 182.778 1417.67 182.333C1417.72 182.278 1417.78 181.222 1417.33 181.667M1437 181L1438 182L1437 181M1785 181L1786 182L1785 181M1803 181L1804 182L1803 181M1863 181L1864 182L1863 181M1896 181L1897 182L1896 181M106 182L107 183L106 182M895 182L896 183L895 182z"/>
<path style="fill:#f3e3b5; stroke:none;" d="M913 182.653C904.976 185.166 901.861 193.795 899.345 201C893.223 218.531 886.894 238.338 886.104 257C885.681 267.011 893.949 275.058 904 272.057C910.912 269.993 915.245 263.239 918.1 257C923.512 245.169 926.261 231.696 928.8 219C929.922 213.394 931.836 207.729 931.985 202C932.086 198.136 932.488 193.651 930.991 190.004C928.199 183.204 919.746 180.54 913 182.653z"/>
<path style="fill:#337f6c; stroke:none;" d="M922.667 182.333C922.222 182.778 923.278 182.722 923.333 182.667C923.778 182.222 922.722 182.278 922.667 182.333M998 182L999 183L998 182M1013.67 182.333C1013.22 182.778 1014.28 182.722 1014.33 182.667C1014.78 182.222 1013.72 182.278 1013.67 182.333M1027 182L1028 183L1027 182M1093 182L1094 183L1093 182M1108.67 182.333C1108.22 182.778 1109.28 182.722 1109.33 182.667C1109.78 182.222 1108.72 182.278 1108.67 182.333M1122 182L1123 183L1122 182M1211 182L1212 183L1211 182z"/>
<path style="fill:#f3e3b5; stroke:none;" d="M1212 182.653C1203.93 185.17 1200.44 193.735 1197.86 201C1191.53 218.891 1185.61 240.019 1184.19 259C1183.43 268.993 1189.35 274.378 1199 271.956C1207.59 269.8 1212.44 263.208 1216.8 256C1225.46 241.658 1231.8 223.901 1232 207C1232.13 195.749 1227.31 177.876 1212 182.653z"/>
<path style="fill:#337f6c; stroke:none;" d="M1220 182L1221 183L1220 182M1230 182L1231 183L1230 182M1435 182L1436 183L1435 182M1617.33 182.667C1617.28 182.722 1617.22 183.778 1617.67 183.333C1617.72 183.278 1617.78 182.222 1617.33 182.667M1801 182L1802 183L1801 182M1861 182L1862 183L1861 182M1897 182L1898 183L1897 182M910 183L911 184L910 183M925 183L926 184L925 183M941 183L942 184L941 183M1010 183L1011 184L1010 183M1029 183L1030 184L1029 183M1105 183L1106 184L1105 183M1124 183L1125 184L1124 183M1193 183L1194 184L1193 183M1209 183L1210 184L1209 183M1238 183L1238 186C1238.7 184.446 1238.7 184.554 1238 183M1289.33 183.667C1289.28 183.722 1289.22 184.778 1289.67 184.333C1289.72 184.278 1289.78 183.222 1289.33 183.667M1336 183L1337 184L1336 183M1471 183L1472 184L1471 183M1659.33 183.667C1659.28 183.722 1659.22 184.778 1659.67 184.333C1659.72 184.277 1659.78 183.223 1659.33 183.667M1706 183L1707 184L1706 183M1740.33 183.667C1740.28 183.722 1740.22 184.778 1740.67 184.333C1740.72 184.277 1740.78 183.223 1740.33 183.667M1837 183L1838 184L1837 183M1898 183L1899 184L1898 183M97 184L98 185L97 184M823 184L824 185L823 184M892 184L893 185L892 184M942 184L943 185L942 184M1007 184L1008 185L1007 184M1102 184L1103 185L1102 184M1224 184L1225 185L1224 184M1432 184L1433 185L1432 184M1472 184L1473 185L1472 184M1588 184L1588 187C1588.7 185.446 1588.7 185.554 1588 184M1838 184L1839 185L1838 184M1858 184L1859 185L1858 184M96 185L97 186L96 185M104 185L105 186L104 185M130 185L130 190C130.83 187.969 130.83 187.03 130 185M695 185L695 188C695.696 186.446 695.696 186.554 695 185M724 185L725 186L724 185M907 185L908 186L907 185M928 185L929 186L928 185M943 185L944 186L943 185M994 185L995 186L994 185M1046 185L1047 186L1046 185M1089 185L1090 186L1089 185M1141 185L1142 186L1141 185M1190 185L1191 186L1190 185M1206 185L1207 186L1206 185M1225 185L1226 186L1225 185M1232 185L1233 186L1232 185M1261 185L1262 186L1261 185M1312 185L1312 188C1312.7 186.446 1312.7 186.554 1312 185M1431 185L1432 186L1431 185M1682 185L1682 188C1682.7 186.446 1682.7 186.554 1682 185M1761.33 185.667C1761.28 185.722 1761.22 186.778 1761.67 186.333C1761.72 186.278 1761.78 185.222 1761.33 185.667M1784 185L1785 186L1784 185M1797 185L1798 186L1797 185M1857 185L1858 186L1857 185M1899 185L1900 186L1899 185M95 186L96 187L95 186M103 186L104 187L103 186M889 186L890 187L889 186M906 186L907 187L906 186M944 186L945 187L944 186M993 186L994 187L993 186M1004 186L1005 187L1004 186M1088 186L1089 187L1088 186M1099 186L1100 187L1099 186M1189 186L1190 187L1189 186M1205 186L1206 187L1205 186M1226 186L1227 187L1226 186M1416 186L1417 187L1416 186M1441 186L1442 187L1441 186M1448 186L1449 187L1448 186M1473 186L1474 187L1473 186M1796 186L1797 187L1796 186M1807 186L1808 187L1807 186M1813 186L1814 187L1813 186M1839 186L1840 187L1839 186M1868 186L1869 187L1868 186M1874 186L1875 187L1874 186M102 187L103 188L102 187M888 187L889 188L888 187M905 187L906 188L905 187M945 187L946 188L945 187M992 187L993 188L992 187M1003 187L1004 188L1003 187M1087 187L1088 188L1087 187M1098 187L1099 188L1098 187M1204 187L1205 188L1204 187M1227 187L1228 188L1227 187M1233 187L1234 188L1233 187M1335.33 187.667C1335.28 187.723 1335.22 188.777 1335.67 188.333C1335.72 188.278 1335.78 187.222 1335.33 187.667M1428 187L1429 188L1428 187M1439 187L1440 188L1439 187M1449 187L1450 188L1449 187M1616.33 187.667C1616.28 187.722 1616.22 188.778 1616.67 188.333C1616.72 188.278 1616.78 187.222 1616.33 187.667M1705.33 187.667C1705.28 187.723 1705.22 188.778 1705.67 188.333C1705.72 188.278 1705.78 187.222 1705.33 187.667M1795 187L1796 188L1795 187M1805 187L1806 188L1805 187M1815 187L1816 188L1815 187M1866 187L1867 188L1866 187M1876 187L1877 188L1876 187M1900 187L1901 188L1900 187M930 188L931 189L930 188M991 188L992 189L991 188M1002 188L1003 189L1002 188M1086 188L1087 189L1086 188M1097 188L1098 189L1097 188M1203 188L1204 189L1203 188M1237 188L1237 191C1237.7 189.446 1237.7 189.554 1237 188M1392.33 188.667C1392.28 188.722 1392.22 189.778 1392.67 189.333C1392.72 189.278 1392.78 188.222 1392.33 188.667M1427 188L1428 189L1427 188M1437 188L1438 189L1437 188M1450 188L1451 189L1450 188M1760 188L1760 191C1760.7 189.446 1760.7 189.554 1760 188M1794 188L1795 189L1794 188M1803 188L1804 189L1803 188M1840.33 188.667C1840.28 188.722 1840.22 189.778 1840.67 189.333C1840.72 189.278 1840.78 188.222 1840.33 188.667M1853 188L1854 189L1853 188M1864 188L1865 189L1864 188M1877 188L1878 189L1877 188M822 189L823 190L822 189M1030 189L1031 190L1030 189M1048.33 189.667C1048.28 189.722 1048.22 190.778 1048.67 190.333C1048.72 190.278 1048.78 189.222 1048.33 189.667M1125 189L1126 190L1125 189M1143.33 189.667C1143.28 189.722 1143.22 190.778 1143.67 190.333C1143.72 190.278 1143.78 189.222 1143.33 189.667M1260 189L1261 190L1260 189M1426 189L1427 190L1426 189M1435 189L1436 190L1435 189M1474 189L1474 192C1474.7 190.446 1474.7 190.554 1474 189M1587 189L1587 192C1587.7 190.446 1587.7 190.554 1587 189M1783 189L1784 190L1783 189M1802 189L1803 190L1802 189M1852 189L1853 190L1852 189M1862 189L1863 190L1862 189M92 190L93 191L92 190M100 190L101 191L100 190M158 190L158 194C158.71 192.24 158.71 191.76 158 190M694 190L694 193C694.696 191.446 694.696 191.554 694 190M884 190L885 191L884 190M903 190L904 191L903 190M931 190L932 191L931 190M947 190L948 191L947 190M1001 190L1002 191L1001 190M1096 190L1097 191L1096 190M1184 190L1185 191L1184 190M1202 190L1203 191L1202 190M1229 190L1230 191L1229 190M1234 190L1235 191L1234 190M1311.33 190.667C1311.28 190.722 1311.22 191.778 1311.67 191.333C1311.72 191.278 1311.78 190.222 1311.33 190.667M1415 190L1416 191L1415 190M1425 190L1426 191L1425 190M1451 190L1452 191L1451 190M1681.33 190.667C1681.28 190.722 1681.22 191.778 1681.67 191.333C1681.72 191.278 1681.78 190.222 1681.33 190.667M1817 190L1818 191L1817 190M1851 190L1852 191L1851 190M1861 190L1862 191L1861 190M91 191L92 192L91 191M99 191L100 192L99 191M883 191L884 192L883 191M989 191L990 192L989 191M1084 191L1085 192L1084 191M1183 191L1184 192L1183 191M1334.33 191.667C1334.28 191.722 1334.22 192.778 1334.67 192.333C1334.72 192.278 1334.78 191.222 1334.33 191.667M1391 191L1391 194C1391.7 192.446 1391.7 192.554 1391 191M1424 191L1425 192L1424 191M1432 191L1433 192L1432 191M1704.33 191.667C1704.28 191.722 1704.22 192.778 1704.67 192.333C1704.72 192.278 1704.78 191.222 1704.33 191.667M1791 191L1792 192L1791 191M1799 191L1800 192L1799 191M1850 191L1851 192L1850 191M1901 191L1901 196C1901.83 193.97 1901.83 193.03 1901 191M90 192L91 193L90 192M98 192L99 193L98 192M793.333 192.667C793.278 192.722 793.222 193.778 793.667 193.333C793.722 193.278 793.778 192.222 793.333 192.667M882 192L883 193L882 192M902.333 192.667C902.278 192.722 902.222 193.778 902.667 193.333C902.722 193.278 902.778 192.222 902.333 192.667M988 192L989 193L988 192M1029 192L1029 197C1029.83 194.97 1029.83 194.031 1029 192M1083 192L1084 193L1083 192M1124 192L1124 197C1124.83 194.97 1124.83 194.03 1124 192M1182 192L1183 193L1182 192M1423 192L1424 193L1423 192M1431 192L1432 193L1431 192M1615 192L1616 193L1615 192M1790 192L1791 193L1790 192M1798 192L1799 193L1798 192M1849 192L1850 193L1849 192M1858 192L1859 193L1858 192M722 193L723 194L722 193M881 193L882 194L881 193M932 193L932 202C933.256 199.006 933.256 195.994 932 193M949 193L950 194L949 193M1000 193L1000 197C1000.71 195.24 1000.71 194.76 1000 193M1095 193L1095 197C1095.71 195.24 1095.71 194.76 1095 193M1181 193L1182 194L1181 193M1230 193L1231 194L1230 193M1235 193L1235 195L1237 195L1237 193L1235 193M1259.33 193.667C1259.28 193.722 1259.22 194.778 1259.67 194.333C1259.72 194.278 1259.78 193.222 1259.33 193.667M1310 193L1310 196C1310.7 194.446 1310.7 194.554 1310 193M1422 193L1423 194L1422 193M1680 193L1680 196C1680.7 194.446 1680.7 194.554 1680 193M1759.33 193.667C1759.28 193.722 1759.22 194.778 1759.67 194.333C1759.72 194.278 1759.78 193.222 1759.33 193.667M1782 193L1783 194L1782 193M1789 193L1790 194L1789 193M1857 193L1858 194L1857 193M693 194L693 197C693.696 195.446 693.696 195.554 693 194M821.333 194.667C821.278 194.722 821.222 195.778 821.667 195.333C821.722 195.278 821.778 194.222 821.333 194.667M880 194L881 195L880 194M987 194L988 195L987 194M1082 194L1083 195L1082 194M1200 194L1201 195L1200 194M1414 194L1415 195L1414 194M1421 194L1422 195L1421 194M1428 194L1429 195L1428 194M1586 194L1586 197C1586.7 195.446 1586.7 195.554 1586 194M1788 194L1789 195L1788 194M88 195L89 196L88 195M96 195L97 196L96 195M792 195L792 198C792.696 196.446 792.696 196.554 792 195M879 195L880 196L879 195M901 195L902 196L901 195M950 195L951 196L950 195M1333 195L1334 196L1333 195M1420 195L1421 196L1420 195M1427 195L1428 196L1427 195M1703 195L1704 196L1703 195M1878 195L1878 198C1878.7 196.446 1878.7 196.554 1878 195M87 196L88 197L87 196M95 196L96 197L95 196M986 196L987 197L986 196M1048 196L1049 197L1048 196M1081 196L1082 197L1081 196M1143 196L1144 197L1143 196M1199 196L1200 197L1199 196M1231 196L1232 197L1231 196M1390.33 196.667C1390.28 196.722 1390.22 197.778 1390.67 197.333C1390.72 197.278 1390.78 196.222 1390.33 196.667M1419 196L1420 197L1419 196M1426 196L1427 197L1426 196M1817 196L1817 200C1817.71 198.24 1817.71 197.76 1817 196M1846 196L1847 197L1846 196M1853 196L1854 197L1853 196M86 197L87 198L86 197M94 197L95 198L94 197M129 197L129 202C129.83 199.969 129.83 199.03 129 197M900 197L901 198L900 197M951 197L952 198L951 197M1425 197L1426 198L1425 197M1451 197L1451 200C1451.7 198.446 1451.7 198.554 1451 197M1474 197L1474 200C1474.7 198.446 1474.7 198.554 1474 197M1614 197L1615 198L1614 197M1758.33 197.667C1758.28 197.722 1758.22 198.778 1758.67 198.333C1758.72 198.278 1758.78 197.222 1758.33 197.667M1781 197L1782 198L1781 197M1840.33 197.667C1840.28 197.722 1840.22 198.778 1840.67 198.333C1840.72 198.278 1840.78 197.222 1840.33 197.667M1845 197L1846 198L1845 197M1852 197L1853 198L1852 197M721 198L722 199L721 198M820 198L821 199L820 198M985 198L986 199L985 198M1047 198L1048 199L1047 198M1080 198L1081 199L1080 198M1142 198L1143 199L1142 198M1198.33 198.667C1198.28 198.722 1198.22 199.778 1198.67 199.333C1198.72 199.278 1198.78 198.222 1198.33 198.667M1258 198L1259 199L1258 198M1309.33 198.667C1309.28 198.722 1309.22 199.778 1309.67 199.333C1309.72 199.278 1309.78 198.222 1309.33 198.667M1413 198L1414 199L1413 198M1424 198L1425 199L1424 198M1679.33 198.667C1679.28 198.722 1679.22 199.778 1679.67 199.333C1679.72 199.278 1679.78 198.222 1679.33 198.667M1785 198L1786 199L1785 198M1844 198L1845 199L1844 198M1851 198L1852 199L1851 198M692 199L692 202C692.696 200.446 692.696 200.554 692 199M876 199L877 200L876 199M1001 199L1002 200L1001 199M1030 199L1031 200L1030 199M1096 199L1097 200L1096 199M1125 199L1126 200L1125 199M1176 199L1177 200L1176 199M1332.33 199.667C1332.28 199.722 1332.22 200.778 1332.67 200.333C1332.72 200.278 1332.78 199.222 1332.33 199.667M1585 199L1585 202C1585.7 200.446 1585.7 200.554 1585 199M1702.33 199.667C1702.28 199.722 1702.22 200.778 1702.67 200.333C1702.72 200.278 1702.78 199.222 1702.33 199.667M1784 199L1785 200L1784 199M1850 199L1851 200L1850 199M791 200L791 203C791.696 201.446 791.696 201.554 791 200M875 200L876 201L875 200M899 200L900 201L899 200M952 200L953 201L952 200M1031 200L1032 201L1031 200M1126 200L1127 201L1126 200M1175 200L1176 201L1175 200M1389.33 200.667C1389.28 200.722 1389.22 201.778 1389.67 201.333C1389.72 201.278 1389.78 200.222 1389.33 200.667M1416 200L1417 201L1416 200M1422 200L1423 201L1422 200M1790 200L1791 201L1790 200M1849 200L1850 201L1849 200M1877 200L1877 203C1877.7 201.446 1877.7 201.554 1877 200M1900 200L1901 201L1900 200M83 201L84 202L83 201M91 201L92 202L91 201M157 201L157 205C157.71 203.24 157.71 202.759 157 201M984.333 201.667C984.278 201.722 984.222 202.778 984.667 202.333C984.722 202.278 984.778 201.222 984.333 201.667M1032 201L1033 202L1032 201M1079.33 201.667C1079.28 201.722 1079.22 202.778 1079.67 202.333C1079.72 202.278 1079.78 201.222 1079.33 201.667M1127 201L1128 202L1127 201M1197 201L1198 202L1197 201M1415 201L1416 202L1415 201M1421 201L1422 202L1421 201M1757.33 201.667C1757.28 201.722 1757.22 202.778 1757.67 202.333C1757.72 202.278 1757.78 201.222 1757.33 201.667M1780.33 201.667C1780.28 201.722 1780.22 202.778 1780.67 202.333C1780.72 202.278 1780.78 201.222 1780.33 201.667M1789 201L1790 202L1789 201M1842 201L1843 202L1842 201M1848 201L1849 202L1848 201M82 202L83 203L82 202M90 202L91 203L90 202M1003 202L1004 203L1003 202M1033 202L1034 203L1033 202M1043 202L1044 203L1043 202M1098 202L1099 203L1098 202M1128 202L1129 203L1128 202M1138 202L1139 203L1138 202M1257 202L1258 203L1257 202M1308.33 202.667C1308.28 202.722 1308.22 203.778 1308.67 203.333C1308.72 203.278 1308.78 202.222 1308.33 202.667M1420 202L1421 203L1420 202M1450.33 202.667C1450.28 202.722 1450.22 203.778 1450.67 203.333C1450.72 203.278 1450.78 202.223 1450.33 202.667M1613 202L1614 203L1613 202M1678.33 202.667C1678.28 202.722 1678.22 203.778 1678.67 203.333C1678.72 203.278 1678.78 202.222 1678.33 202.667M1782 202L1783 203L1782 202M1788 202L1789 203L1788 202M1816.33 202.667C1816.28 202.722 1816.22 203.778 1816.67 203.333C1816.72 203.278 1816.78 202.223 1816.33 202.667M1847 202L1848 203L1847 202M720 203L721 204L720 203M819 203L820 204L819 203M873 203L874 204L873 203M898 203L899 204L898 203M953.333 203.667C953.278 203.722 953.222 204.778 953.667 204.333C953.722 204.278 953.778 203.222 953.333 203.667M1004 203L1005 204L1004 203M1035 203L1036 204L1035 203M1041 203L1042 204L1041 203M1099 203L1100 204L1099 203M1130 203L1131 204L1130 203M1136 203L1137 204L1136 203M1173 203L1174 204L1173 203M1412 203L1412 205L1414 205C1413.45 203.365 1413.64 203.545 1412 203M1419 203L1420 204L1419 203M1473 203L1474 204L1473 203M691 204L691 207C691.696 205.446 691.696 205.554 691 204M1005 204L1006 205L1005 204M1100 204L1101 205L1100 204M1172 204L1173 205L1172 204M1196.33 204.667C1196.28 204.722 1196.22 205.778 1196.67 205.333C1196.72 205.278 1196.78 204.222 1196.33 204.667M1331 204L1332 205L1331 204M1388 204L1388 207C1388.7 205.446 1388.7 205.554 1388 204M1584 204L1584 207C1584.7 205.446 1584.7 205.554 1584 204M1701 204L1702 205L1701 204M1876.33 204.667C1876.28 204.722 1876.22 205.778 1876.67 205.333C1876.72 205.278 1876.78 204.222 1876.33 204.667M790 205L790 208C790.696 206.446 790.696 206.554 790 205M1006 205L1007 206L1006 205M1101 205L1102 206L1101 205M1756.33 205.667C1756.28 205.722 1756.22 206.778 1756.67 206.333C1756.72 206.278 1756.78 205.222 1756.33 205.667M1786 205L1787 206L1786 205M1845 205L1846 206L1845 205M1899 205L1900 206L1899 205M79 206L80 207L79 206M87 206L88 207L87 206M128 206L128 212C128.951 209.715 128.951 208.285 128 206M871 206L872 207L871 206M897 206L898 207L897 206M954 206L954 209C954.696 207.446 954.696 207.554 954 206M1008 206L1009 207L1008 206M1103 206L1104 207L1103 206M1171 206L1172 207L1171 206M1256 206L1257 207L1256 206M1307.33 206.667C1307.28 206.722 1307.22 207.778 1307.67 207.333C1307.72 207.278 1307.78 206.222 1307.33 206.667M1417 206L1418 207L1417 206M1449.33 206.667C1449.28 206.722 1449.22 207.778 1449.67 207.333C1449.72 207.278 1449.78 206.222 1449.33 206.667M1677.33 206.667C1677.28 206.722 1677.22 207.778 1677.67 207.333C1677.72 207.278 1677.78 206.222 1677.33 206.667M1785 206L1786 207L1785 206M1844 206L1845 207L1844 206M78 207L79 208L78 207M86 207L87 208L86 207M931 207L932 208L931 207M1009 207L1010 208L1009 207M1104 207L1105 208L1104 207M1195.33 207.667C1195.28 207.722 1195.22 208.778 1195.67 208.333C1195.72 208.278 1195.78 207.222 1195.33 207.667M1472.33 207.667C1472.28 207.722 1472.22 208.778 1472.67 208.333C1472.72 208.278 1472.78 207.222 1472.33 207.667M1612 207L1612 210C1612.7 208.446 1612.7 208.554 1612 207M1815.33 207.667C1815.28 207.722 1815.22 208.778 1815.67 208.333C1815.72 208.278 1815.78 207.222 1815.33 207.667M77 208L78 209L77 208M719.333 208.667C719.278 208.722 719.222 209.778 719.667 209.333C719.722 209.278 719.778 208.222 719.333 208.667M818 208L819 209L818 208M870 208L871 209L870 208M1011 208L1012 209L1011 208M1106 208L1107 209L1106 208M1330 208L1331 209L1330 208M1387 208L1387 211C1387.7 209.446 1387.7 209.554 1387 208M1416 208L1417 209L1416 208M1700 208L1701 209L1700 208M1843 208L1844 209L1843 208M1875.33 208.667C1875.28 208.722 1875.22 209.778 1875.67 209.333C1875.72 209.278 1875.78 208.222 1875.33 208.667M690.333 209.667C690.278 209.722 690.222 210.778 690.667 210.333C690.722 210.278 690.778 209.222 690.333 209.667M789 209L789 212C789.696 210.446 789.696 210.554 789 209M896.333 209.667C896.278 209.722 896.222 210.778 896.667 210.333C896.722 210.278 896.778 209.222 896.333 209.667M1169 209L1170 210L1169 209M1415 209L1416 210L1415 209M1583 209L1583 212C1583.7 210.446 1583.7 210.554 1583 209M1783 209L1784 210L1783 209M1898 209L1899 210L1898 209M869 210L870 211L869 210M930 210L930 213C930.696 211.446 930.696 211.554 930 210M984.333 210.667C984.278 210.722 984.222 211.778 984.667 211.333C984.722 211.278 984.778 210.222 984.333 210.667M1014 210L1015 211L1014 210M1079.33 210.667C1079.28 210.722 1079.22 211.778 1079.67 211.333C1079.72 211.278 1079.78 210.222 1079.33 210.667M1109 210L1110 211L1109 210M1255.33 210.667C1255.28 210.722 1255.22 211.778 1255.67 211.333C1255.72 211.278 1255.78 210.222 1255.33 210.667M1306.33 210.667C1306.28 210.722 1306.22 211.778 1306.67 211.333C1306.72 211.278 1306.78 210.222 1306.33 210.667M1448.33 210.667C1448.28 210.722 1448.22 211.778 1448.67 211.333C1448.72 211.278 1448.78 210.222 1448.33 210.667M1676.33 210.667C1676.28 210.722 1676.22 211.778 1676.67 211.333C1676.72 211.278 1676.78 210.222 1676.33 210.667M1755 210L1756 211L1755 210M83 211L84 212L83 211M156 211L156 217C156.951 214.715 156.951 213.285 156 211M1016 211L1017 212L1016 211M1111 211L1112 212L1111 211M1168 211L1169 212L1168 211M1194 211L1195 212L1194 211M1414 211L1415 212L1414 211M1471.33 211.667C1471.28 211.722 1471.22 212.778 1471.67 212.333C1471.72 212.278 1471.78 211.222 1471.33 211.667M1782 211L1783 212L1782 211M1814.33 211.667C1814.28 211.722 1814.22 212.778 1814.67 212.333C1814.72 212.278 1814.78 211.222 1814.33 211.667M1841 211L1842 212L1841 211M74 212L75 213L74 212M82 212L83 213L82 212M718 212L718 215C718.696 213.446 718.696 213.554 718 212M868 212L869 213L868 212M1018 212L1019 213L1018 212M1113 212L1114 213L1113 212M1329 212L1330 213L1329 212M1611 212L1611 215C1611.7 213.446 1611.7 213.554 1611 212M1699 212L1700 213L1699 212M1874.33 212.667C1874.28 212.722 1874.22 213.778 1874.67 213.333C1874.72 213.278 1874.78 212.222 1874.33 212.667M73 213L74 214L73 213M689 213L689 216C689.696 214.446 689.696 214.554 689 213M817.333 213.667C817.278 213.722 817.222 214.778 817.667 214.333C817.722 214.278 817.778 213.222 817.333 213.667M895 213L896 214L895 213M1167 213L1168 214L1167 213M1231 213L1231 217C1231.71 215.24 1231.71 214.76 1231 213M1386.33 213.667C1386.28 213.722 1386.22 214.778 1386.67 214.333C1386.72 214.278 1386.78 213.222 1386.33 213.667M1413 213L1414 214L1413 213M1781 213L1782 214L1781 213M1840 213L1841 214L1840 213M1897 213L1898 214L1897 213M788 214L788 217C788.696 215.446 788.696 215.554 788 214M867 214L868 215L867 214M985 214L986 215L985 214M1021 214L1022 215L1021 214M1080 214L1081 215L1080 214M1116 214L1117 215L1116 214M1305.33 214.667C1305.28 214.722 1305.22 215.778 1305.67 215.333C1305.72 215.278 1305.78 214.223 1305.33 214.667M1447.33 214.667C1447.28 214.722 1447.22 215.778 1447.67 215.333C1447.72 215.278 1447.78 214.222 1447.33 214.667M1582 214L1582 217C1582.7 215.446 1582.7 215.554 1582 214M1675.33 214.667C1675.28 214.722 1675.22 215.778 1675.67 215.333C1675.72 215.278 1675.78 214.222 1675.33 214.667M1754 214L1755 215L1754 214M1813 214L1813 217C1813.7 215.446 1813.7 215.554 1813 214M929 215L929 218C929.696 216.446 929.696 216.554 929 215M1023 215L1024 216L1023 215M1118 215L1119 216L1118 215M1193 215L1194 216L1193 215M1254 215L1255 216L1254 215M1412 215L1413 216L1412 215M1470.33 215.667C1470.28 215.722 1470.22 216.778 1470.67 216.333C1470.72 216.278 1470.78 215.222 1470.33 215.667M1780 215L1781 216L1780 215M1839 215L1840 216L1839 215M894.333 216.667C894.278 216.722 894.222 217.778 894.667 217.333C894.722 217.278 894.778 216.222 894.333 216.667M1025 216L1026 217L1025 216M1120 216L1121 217L1120 216M1166 216L1167 217L1166 216M1328 216L1329 217L1328 216M1698 216L1699 217L1698 216M1873.33 216.667C1873.28 216.722 1873.22 217.778 1873.67 217.333C1873.72 217.278 1873.78 216.222 1873.33 216.667M70 217L71 218L70 217M717 217L718 218L717 217M816 217L817 218L816 217M866 217L867 218L866 217M1026 217L1027 218L1026 217M1121 217L1122 218L1121 217M1385.33 217.667C1385.28 217.722 1385.22 218.778 1385.67 218.333C1385.72 218.278 1385.78 217.222 1385.33 217.667M1411 217L1412 218L1411 217M1779 217L1780 218L1779 217M1838 217L1839 218L1838 217M1896 217L1897 218L1896 217M69 218L70 219L69 218M688 218L688 221C688.696 219.446 688.696 219.554 688 218M1028 218L1029 219L1028 218M1123 218L1124 219L1123 218M1165.33 218.667C1165.28 218.722 1165.22 219.778 1165.67 219.333C1165.72 219.278 1165.78 218.222 1165.33 218.667M1192.33 218.667C1192.28 218.722 1192.22 219.778 1192.67 219.333C1192.72 219.278 1192.78 218.222 1192.33 218.667M1446.33 218.667C1446.28 218.722 1446.22 219.778 1446.67 219.333C1446.72 219.278 1446.78 218.222 1446.33 218.667M1610.33 218.667C1610.28 218.722 1610.22 219.778 1610.67 219.333C1610.72 219.278 1610.78 218.222 1610.33 218.667M1753.33 218.667C1753.28 218.722 1753.22 219.778 1753.67 219.333C1753.72 219.278 1753.78 218.222 1753.33 218.667M68 219L69 220L68 219M787 219L787 222C787.696 220.446 787.696 220.554 787 219M1029 219L1030 220L1029 219M1124 219L1125 220L1124 219M1230 219L1230 222C1230.7 220.446 1230.7 220.554 1230 219M1253 219L1254 220L1253 219M1304 219L1305 220L1304 219M1410 219L1411 220L1410 219M1469.33 219.667C1469.28 219.722 1469.22 220.778 1469.67 220.333C1469.72 220.278 1469.78 219.222 1469.33 219.667M1581 219L1581 223C1581.71 221.24 1581.71 220.76 1581 219M1674 219L1675 220L1674 219M1778 219L1779 220L1778 219M1812.33 219.667C1812.28 219.722 1812.22 220.778 1812.67 220.333C1812.72 220.278 1812.78 219.222 1812.33 219.667M865.333 220.667C865.278 220.722 865.222 221.778 865.667 221.333C865.722 221.278 865.778 220.222 865.333 220.667M893 220L894 221L893 220M928.333 220.667C928.278 220.722 928.222 221.778 928.667 221.333C928.722 221.278 928.778 220.222 928.333 220.667M988 220L989 221L988 220M1083 220L1084 221L1083 220M1327 220L1328 221L1327 220M1697 220L1698 221L1697 220M1837 220L1838 221L1837 220M1872.33 220.667C1872.28 220.722 1872.22 221.778 1872.67 221.333C1872.72 221.278 1872.78 220.222 1872.33 220.667M75 221L76 222L75 221M127 221L127 224C127.696 222.446 127.696 222.554 127 221M1032 221L1033 222L1032 221M1127 221L1128 222L1127 221M1164.33 221.667C1164.28 221.722 1164.22 222.778 1164.67 222.333C1164.72 222.278 1164.78 221.222 1164.33 221.667M1752 221L1752 224C1752.7 222.446 1752.7 222.554 1752 221M1777 221L1778 222L1777 221M1895 221L1896 222L1895 221M74 222L75 223L74 222M155 222L155 229C156.059 226.466 156.059 224.534 155 222M716 222L717 223L716 222M815 222L816 223L815 222M1033 222L1034 223L1033 222M1128 222L1129 223L1128 222M1191.33 222.667C1191.28 222.722 1191.22 223.778 1191.67 223.333C1191.72 223.278 1191.78 222.222 1191.33 222.667M1384.33 222.667C1384.28 222.722 1384.22 223.778 1384.67 223.333C1384.72 223.278 1384.78 222.222 1384.33 222.667M1409 222L1410 223L1409 222M1445.33 222.667C1445.28 222.722 1445.22 223.778 1445.67 223.333C1445.72 223.278 1445.78 222.222 1445.33 222.667M1836 222L1837 223L1836 222M65 223L66 224L65 223M73 223L74 224L73 223M687 223L687 226C687.696 224.446 687.696 224.554 687 223M786 223L786 226C786.696 224.446 786.696 224.554 786 223M892.333 223.667C892.278 223.722 892.222 224.778 892.667 224.333C892.722 224.278 892.778 223.222 892.333 223.667M1034 223L1035 224L1034 223M1129 223L1130 224L1129 223M1252 223L1253 224L1252 223M1303 223L1304 224L1303 223M1468.33 223.667C1468.28 223.722 1468.22 224.778 1468.67 224.333C1468.72 224.278 1468.78 223.222 1468.33 223.667M1609.33 223.667C1609.28 223.722 1609.22 224.778 1609.67 224.333C1609.72 224.278 1609.78 223.222 1609.33 223.667M1673 223L1674 224L1673 223M1811.33 223.667C1811.28 223.722 1811.22 224.778 1811.67 224.333C1811.72 224.278 1811.78 223.222 1811.33 223.667M64 224L65 225L64 224M864 224L864 227C864.696 225.446 864.696 225.554 864 224M991 224L992 225L991 224M1086 224L1087 225L1086 224M1163 224L1163 227C1163.7 225.446 1163.7 225.554 1163 224M1326 224L1327 225L1326 224M1408.33 224.667C1408.28 224.722 1408.22 225.778 1408.67 225.333C1408.72 225.278 1408.78 224.222 1408.33 224.667M1580 224L1580 228C1580.71 226.24 1580.71 225.76 1580 224M1696 224L1697 225L1696 224M1776 224L1777 225L1776 224M1871.33 224.667C1871.28 224.723 1871.22 225.777 1871.67 225.333C1871.72 225.278 1871.78 224.222 1871.33 224.667M927.333 225.667C927.278 225.722 927.222 226.778 927.667 226.333C927.722 226.278 927.778 225.222 927.333 225.667M954.333 225.667C954.278 225.722 954.222 226.778 954.667 226.333C954.722 226.278 954.778 225.222 954.333 225.667M992 225L993 226L992 225M1087 225L1088 226L1087 225M1229 225L1230 226L1229 225M1383 225L1383 228C1383.7 226.446 1383.7 226.554 1383 225M1751 225L1751 228C1751.7 226.446 1751.7 226.554 1751 225M1835 225L1836 226L1835 225M1894 225L1895 226L1894 225M993 226L994 227L993 226M1037 226L1038 227L1037 226M1088 226L1089 227L1088 226M1132 226L1133 227L1132 226M1444.33 226.667C1444.28 226.722 1444.22 227.778 1444.67 227.333C1444.72 227.278 1444.78 226.222 1444.33 226.667M70 227L71 228L70 227M686 227L686 230C686.696 228.446 686.696 228.554 686 227M715.333 227.667C715.278 227.722 715.222 228.778 715.667 228.333C715.722 228.278 715.778 227.222 715.333 227.667M814.333 227.667C814.278 227.722 814.222 228.778 814.667 228.333C814.722 228.278 814.778 227.222 814.333 227.667M891 227L892 228L891 227M994 227L995 228L994 227M1038 227L1039 228L1038 227M1089 227L1090 228L1089 227M1133 227L1134 228L1133 227M1190 227L1191 228L1190 227M1251.33 227.667C1251.28 227.722 1251.22 228.778 1251.67 228.333C1251.72 228.278 1251.78 227.222 1251.33 227.667M1302 227L1303 228L1302 227M1407 227L1408 228L1407 227M1672 227L1673 228L1672 227M1775 227L1776 228L1775 227M1810.33 227.667C1810.28 227.722 1810.22 228.778 1810.67 228.333C1810.72 228.278 1810.78 227.222 1810.33 227.667M61 228L62 229L61 228M69 228L70 229L69 228M126 228L126 233C126.83 230.969 126.83 230.031 126 228M785 228L785 231C785.696 229.446 785.696 229.554 785 228M1039 228L1040 229L1039 228M1134 228L1135 229L1134 228M1228.33 228.667C1228.28 228.722 1228.22 229.778 1228.67 229.333C1228.72 229.278 1228.78 228.222 1228.33 228.667M1325 228L1326 229L1325 228M1467 228L1468 229L1467 228M1608.33 228.667C1608.28 228.722 1608.22 229.778 1608.67 229.333C1608.72 229.278 1608.78 228.222 1608.33 228.667M1695 228L1696 229L1695 228M1834 228L1835 229L1834 228M1870 228L1871 229L1870 228M60 229L61 230L60 229M68 229L69 230L68 229M926.333 229.667C926.278 229.722 926.222 230.778 926.667 230.333C926.722 230.278 926.778 229.222 926.333 229.667M997 229L998 230L997 229M1092 229L1093 230L1092 229M1893 229L1894 230L1893 229M59 230L60 231L59 230M998 230L999 231L998 230M1040 230L1041 231L1040 230M1093 230L1094 231L1093 230M1135 230L1136 231L1135 230M1382.33 230.667C1382.28 230.722 1382.22 231.778 1382.67 231.333C1382.72 231.278 1382.78 230.222 1382.33 230.667M1406.33 230.667C1406.28 230.722 1406.22 231.778 1406.67 231.333C1406.72 231.278 1406.78 230.222 1406.33 230.667M1443.33 230.667C1443.28 230.722 1443.22 231.778 1443.67 231.333C1443.72 231.278 1443.78 230.222 1443.33 230.667M1579 230L1579 233C1579.7 231.446 1579.7 231.554 1579 230M1750.33 230.667C1750.28 230.722 1750.22 231.778 1750.67 231.333C1750.72 231.278 1750.78 230.222 1750.33 230.667M1774 230L1775 231L1774 230M890 231L891 232L890 231M953 231L954 232L953 231M1041 231L1042 232L1041 231M1136 231L1137 232L1136 231M1189 231L1190 232L1189 231M1301.33 231.667C1301.28 231.722 1301.22 232.778 1301.67 232.333C1301.72 232.278 1301.78 231.222 1301.33 231.667M1671.33 231.667C1671.28 231.722 1671.22 232.778 1671.67 232.333C1671.72 232.278 1671.78 231.222 1671.33 231.667M1833 231L1834 232L1833 231M66 232L67 233L66 232M685 232L685 235C685.696 233.446 685.696 233.554 685 232M714.333 232.667C714.278 232.722 714.222 233.778 714.667 233.333C714.722 233.278 714.778 232.222 714.333 232.667M813.333 232.667C813.278 232.722 813.222 233.778 813.667 233.333C813.722 233.278 813.778 232.222 813.333 232.667M863 232L863 242C864.346 238.793 864.346 235.207 863 232M1001 232L1002 233L1001 232M1096 232L1097 233L1096 232M1162 232L1162 235C1162.7 233.446 1162.7 233.554 1162 232M1227 232L1228 233L1227 232M1250 232L1251 233L1250 232M1324.33 232.667C1324.28 232.722 1324.22 233.778 1324.67 233.333C1324.72 233.278 1324.78 232.222 1324.33 232.667M1466 232L1467 233L1466 232M1694.33 232.667C1694.28 232.722 1694.22 233.778 1694.67 233.333C1694.72 233.278 1694.78 232.222 1694.33 232.667M1809 232L1810 233L1809 232M1869 232L1870 233L1869 232M65 233L66 234L65 233M154 233L154 238C154.83 235.969 154.83 235.03 154 233M784 233L784 236C784.696 234.446 784.696 234.554 784 233M925.333 233.667C925.278 233.722 925.222 234.778 925.667 234.333C925.722 234.278 925.778 233.222 925.333 233.667M1003 233L1004 234L1003 233M1042 233L1043 234L1042 233M1098 233L1099 234L1098 233M1137 233L1138 234L1137 233M1405.33 233.667C1405.28 233.722 1405.22 234.778 1405.67 234.333C1405.72 234.278 1405.78 233.222 1405.33 233.667M1607 233L1608 234L1607 233M1773 233L1774 234L1773 233M1892 233L1893 234L1892 233M56 234L57 235L56 234M64 234L65 235L64 234M1442.33 234.667C1442.28 234.722 1442.22 235.778 1442.67 235.333C1442.72 235.278 1442.78 234.222 1442.33 234.667M1749.33 234.667C1749.28 234.722 1749.22 235.778 1749.67 235.333C1749.72 235.278 1749.78 234.222 1749.33 234.667M1832.33 234.667C1832.28 234.722 1832.22 235.778 1832.67 235.333C1832.72 235.278 1832.78 234.222 1832.33 234.667M55 235L56 236L55 235M889 235L890 236L889 235M952 235L953 236L952 235M1006 235L1007 236L1006 235M1101 235L1102 236L1101 235M1188 235L1189 236L1188 235M1226 235L1227 236L1226 235M1300.33 235.667C1300.28 235.722 1300.22 236.778 1300.67 236.333C1300.72 236.278 1300.78 235.222 1300.33 235.667M1381 235L1382 236L1381 235M1578 235L1578 238C1578.7 236.446 1578.7 236.554 1578 235M1670.33 235.667C1670.28 235.722 1670.22 236.778 1670.67 236.333C1670.72 236.278 1670.78 235.222 1670.33 235.667M812 236L813 237L812 236M1008 236L1009 237L1008 236M1043 236L1044 237L1043 236M1103 236L1104 237L1103 236M1138 236L1139 237L1138 236M1249 236L1250 237L1249 236M1323 236L1324 237L1323 236M1465 236L1466 237L1465 236M1693 236L1694 237L1693 236M1808.33 236.667C1808.28 236.722 1808.22 237.778 1808.67 237.333C1808.72 237.278 1808.78 236.222 1808.33 236.667M1868 236L1869 237L1868 236M684 237L684 240C684.696 238.446 684.696 238.554 684 237M713.333 237.667C713.278 237.722 713.222 238.778 713.667 238.333C713.722 238.278 713.778 237.222 713.333 237.667M783 237L783 240C783.696 238.446 783.696 238.554 783 237M924.333 237.667C924.278 237.722 924.222 238.778 924.667 238.333C924.722 238.278 924.778 237.222 924.333 237.667M1010 237L1011 238L1010 237M1105 237L1106 238L1105 237M1225 237L1226 238L1225 237M1355 237L1356 238L1355 237M1404 237L1405 238L1404 237M1606.33 237.667C1606.28 237.722 1606.22 238.778 1606.67 238.333C1606.72 238.278 1606.78 237.222 1606.33 237.667M1725 237L1726 238L1725 237M1772 237L1773 238L1772 237M1891 237L1892 238L1891 237M61 238L62 239L61 238M951 238L952 239L951 238M1012 238L1013 239L1012 238M1107 238L1108 239L1107 238M1299 238L1299 241C1299.7 239.446 1299.7 239.554 1299 238M1441.33 238.667C1441.28 238.722 1441.22 239.778 1441.67 239.333C1441.72 239.278 1441.78 238.222 1441.33 238.667M1669 238L1669 241C1669.7 239.446 1669.7 239.554 1669 238M1748.33 238.667C1748.28 238.722 1748.22 239.778 1748.67 239.333C1748.72 239.278 1748.78 238.222 1748.33 238.667M1831 238L1832 239L1831 238M52 239L53 240L52 239M60 239L61 240L60 239M125 239L125 244C125.83 241.97 125.83 241.03 125 239M888 239L889 240L888 239M1014 239L1015 240L1014 239M1044 239L1044 250C1045.43 246.59 1045.43 242.41 1044 239M1109 239L1110 240L1109 239M1139 239L1139 250C1140.43 246.59 1140.43 242.41 1139 239M1349 239L1350 240L1349 239M1380.33 239.667C1380.28 239.722 1380.22 240.778 1380.67 240.333C1380.72 240.278 1380.78 239.222 1380.33 239.667M1719 239L1720 240L1719 239M1867.33 239.667C1867.28 239.722 1867.22 240.778 1867.67 240.333C1867.72 240.278 1867.78 239.223 1867.33 239.667M51 240L52 241L51 240M950 240L951 241L950 240M1187.33 240.667C1187.28 240.722 1187.22 241.778 1187.67 241.333C1187.72 241.278 1187.78 240.222 1187.33 240.667M1224 240L1225 241L1224 240M1248 240L1249 241L1248 240M1267 240L1268 241L1267 240M1272 240L1273 241L1272 240M1322.33 240.667C1322.28 240.722 1322.22 241.778 1322.67 241.333C1322.72 241.278 1322.78 240.222 1322.33 240.667M1354 240L1355 241L1354 240M1403.33 240.667C1403.28 240.722 1403.22 241.778 1403.67 241.333C1403.72 241.278 1403.78 240.222 1403.33 240.667M1464 240L1465 241L1464 240M1577 240L1577 243C1577.7 241.446 1577.7 241.554 1577 240M1692.33 240.667C1692.28 240.722 1692.22 241.778 1692.67 241.333C1692.72 241.278 1692.78 240.222 1692.33 240.667M1724 240L1725 241L1724 240M1807.33 240.667C1807.28 240.722 1807.22 241.778 1807.67 241.333C1807.72 241.278 1807.78 240.222 1807.33 240.667M50 241L51 242L50 241M683 241L683 244C683.696 242.446 683.696 242.554 683 241M712 241L713 242L712 241M811 241L812 242L811 241M923 241L924 242L923 241M1017 241L1018 242L1017 241M1112 241L1113 242L1112 241M1348 241L1349 242L1348 241M1605 241L1606 242L1605 241M1718 241L1719 242L1718 241M1771 241L1772 242L1771 241M1890 241L1891 242L1890 241M782 242L782 245C782.696 243.446 782.696 243.554 782 242M949 242L950 243L949 242M1223 242L1224 243L1223 242M1353 242L1354 243L1353 242M1379 242L1379 245C1379.7 243.446 1379.7 243.554 1379 242M1440.33 242.667C1440.28 242.722 1440.22 243.778 1440.67 243.333C1440.72 243.278 1440.78 242.222 1440.33 242.667M1486 242L1487 243L1486 242M1723 242L1724 243L1723 242M1830 242L1831 243L1830 242M1910.33 242.667C1910.28 242.722 1910.22 243.778 1910.67 243.333C1910.72 243.278 1910.78 242.222 1910.33 242.667M1916 242L1917 243L1916 242M57 243L58 244L57 243M1020 243L1021 244L1020 243M1115 243L1116 244L1115 243M1266 243L1267 244L1266 243M1271 243L1272 244L1271 243M1298.33 243.667C1298.28 243.722 1298.22 244.778 1298.67 244.333C1298.72 244.278 1298.78 243.222 1298.33 243.667M1347 243L1348 244L1347 243M1491.33 243.667C1491.28 243.722 1491.22 244.778 1491.67 244.333C1491.72 244.278 1491.78 243.222 1491.33 243.667M1668.33 243.667C1668.28 243.722 1668.22 244.778 1668.67 244.333C1668.72 244.278 1668.78 243.222 1668.33 243.667M1717 243L1718 244L1717 243M1747 243L1748 244L1747 243M1806 243L1806 246C1806.7 244.446 1806.7 244.554 1806 243M1866.33 243.667C1866.28 243.722 1866.22 244.778 1866.67 244.333C1866.72 244.278 1866.78 243.222 1866.33 243.667M56 244L57 245L56 244M153 244L153 248C153.71 246.24 153.71 245.759 153 244M887.333 244.667C887.278 244.722 887.222 245.778 887.667 245.333C887.722 245.278 887.778 244.222 887.333 244.667M922.333 244.667C922.278 244.722 922.222 245.778 922.667 245.333C922.722 245.278 922.778 244.222 922.333 244.667M948 244L949 245L948 244M1021 244L1022 245L1021 244M1116 244L1117 245L1116 244M1162 244L1162 249C1162.83 246.97 1162.83 246.03 1162 244M1222 244L1223 245L1222 244M1247 244L1248 245L1247 244M1321.33 244.667C1321.28 244.722 1321.22 245.778 1321.67 245.333C1321.72 245.278 1321.78 244.222 1321.33 244.667M1352 244L1353 245L1352 244M1402 244L1403 245L1402 244M1463 244L1464 245L1463 244M1485 244L1486 245L1485 244M1604.33 244.667C1604.28 244.722 1604.22 245.778 1604.67 245.333C1604.72 245.278 1604.78 244.222 1604.33 244.667M1691.33 244.667C1691.28 244.722 1691.22 245.778 1691.67 245.333C1691.72 245.278 1691.78 244.222 1691.33 244.667M1722 244L1723 245L1722 244M1915.33 244.667C1915.28 244.722 1915.22 245.778 1915.67 245.333C1915.72 245.278 1915.78 244.222 1915.33 244.667M47 245L48 246L47 245M55 245L56 246L55 245M1022 245L1023 246L1022 245M1117 245L1118 246L1117 245M1186.33 245.667C1186.28 245.722 1186.22 246.778 1186.67 246.333C1186.72 246.278 1186.78 245.222 1186.33 245.667M1265 245L1266 246L1265 245M1346 245L1347 246L1346 245M1576 245L1576 248C1576.7 246.446 1576.7 246.554 1576 245M1716 245L1717 246L1716 245M1770 245L1771 246L1770 245M1889 245L1890 246L1889 245M1909 245L1910 246L1909 245M46 246L47 247L46 246M682 246L682 249C682.696 247.446 682.696 247.554 682 246M711 246L712 247L711 246M810 246L811 247L810 246M864 246L865 247L864 246M947 246L948 247L947 246M977.667 246.333C977.222 246.778 978.278 246.722 978.333 246.667C978.778 246.222 977.722 246.278 977.667 246.333M983.667 246.333C983.222 246.778 984.278 246.722 984.333 246.667C984.778 246.222 983.722 246.278 983.667 246.333M1072.67 246.333C1072.22 246.778 1073.28 246.722 1073.33 246.667C1073.78 246.222 1072.72 246.278 1072.67 246.333M1078.67 246.333C1078.22 246.778 1079.28 246.722 1079.33 246.667C1079.78 246.222 1078.72 246.278 1078.67 246.333M1270 246L1271 247L1270 246M1439.33 246.667C1439.28 246.722 1439.22 247.778 1439.67 247.333C1439.72 247.278 1439.78 246.222 1439.33 246.667M1484 246L1485 247L1484 246M1490 246L1491 247L1490 246M1829.33 246.667C1829.28 246.722 1829.22 247.778 1829.67 247.333C1829.72 247.278 1829.78 246.222 1829.33 246.667M781 247L781 250C781.696 248.446 781.696 248.554 781 247M975 247L976 248L975 247M1024 247L1025 248L1024 247M1070 247L1071 248L1070 247M1119 247L1120 248L1119 247M1221 247L1222 248L1221 247M1264 247L1265 248L1264 247M1297.33 247.667C1297.28 247.722 1297.22 248.778 1297.67 248.333C1297.72 248.278 1297.78 247.222 1297.33 247.667M1378.33 247.667C1378.28 247.722 1378.22 248.778 1378.67 248.333C1378.72 248.278 1378.78 247.222 1378.33 247.667M1667.33 247.667C1667.28 247.722 1667.22 248.778 1667.67 248.333C1667.72 248.278 1667.78 247.222 1667.33 247.667M1746 247L1747 248L1746 247M1865.33 247.667C1865.28 247.722 1865.22 248.778 1865.67 248.333C1865.72 248.278 1865.78 247.222 1865.33 247.667M1914 247L1915 248L1914 247M921 248L922 249L921 248M946 248L947 249L946 248M987 248L988 249L987 248M1025 248L1026 249L1025 248M1082 248L1083 249L1082 248M1120 248L1121 249L1120 248M1269 248L1270 249L1269 248M1320.33 248.667C1320.28 248.722 1320.22 249.778 1320.67 249.333C1320.72 249.278 1320.78 248.222 1320.33 248.667M1344 248L1345 249L1344 248M1401 248L1402 249L1401 248M1462 248L1463 249L1462 248M1489 248L1490 249L1489 248M1603 248L1604 249L1603 248M1690.33 248.667C1690.28 248.722 1690.22 249.778 1690.67 249.333C1690.72 249.278 1690.78 248.222 1690.33 248.667M1714 248L1715 249L1714 248M1805.33 248.667C1805.28 248.722 1805.22 249.778 1805.67 249.333C1805.72 249.278 1805.78 248.222 1805.33 248.667M1908 248L1909 249L1908 248M52 249L53 250L52 249M1220 249L1221 250L1220 249M1246 249L1247 250L1246 249M1263 249L1264 250L1263 249M1483 249L1484 250L1483 249M1769 249L1770 250L1769 249M1888 249L1889 250L1888 249M43 250L44 251L43 250M51 250L52 251L51 250M886 250L886 254C886.71 252.24 886.71 251.759 886 250M920.333 250.667C920.278 250.722 920.222 251.778 920.667 251.333C920.722 251.278 920.778 250.222 920.333 250.667M1185.33 250.667C1185.28 250.722 1185.22 251.778 1185.67 251.333C1185.72 251.278 1185.78 250.222 1185.33 250.667M1268 250L1269 251L1268 250M1296 250L1296 253C1296.7 251.446 1296.7 251.554 1296 250M1343 250L1344 251L1343 250M1349 250L1350 251L1349 250M1575.33 250.667C1575.28 250.722 1575.22 251.778 1575.67 251.333C1575.72 251.278 1575.78 250.222 1575.33 250.667M1666 250L1666 253C1666.7 251.446 1666.7 251.554 1666 250M1713 250L1714 251L1713 250M1719 250L1720 251L1719 250M1828.33 250.667C1828.28 250.722 1828.22 251.778 1828.67 251.333C1828.72 251.278 1828.78 250.222 1828.33 250.667M1907 250L1908 251L1907 250M1913 250L1914 251L1913 250M42 251L43 252L42 251M124 251L124 256C124.83 253.97 124.83 253.03 124 251M681 251L681 254C681.696 252.446 681.696 252.554 681 251M710 251L711 252L710 251M780 251L780 254C780.696 252.446 780.696 252.554 780 251M809.333 251.667C809.278 251.722 809.222 252.778 809.667 252.333C809.722 252.278 809.778 251.222 809.333 251.667M865 251L866 252L865 251M944 251L945 252L944 251M971 251L972 252L971 251M989 251L990 252L989 251M1027.33 251.667C1027.28 251.722 1027.22 252.778 1027.67 252.333C1027.72 252.278 1027.78 251.222 1027.33 251.667M1066 251L1067 252L1066 251M1084 251L1085 252L1084 251M1122.33 251.667C1122.28 251.722 1122.22 252.778 1122.67 252.333C1122.72 252.278 1122.78 251.222 1122.33 251.667M1219 251L1220 252L1219 251M1262 251L1263 252L1262 251M1438 251L1439 252L1438 251M1602 251L1603 252L1602 251M1745.33 251.667C1745.28 251.722 1745.22 252.778 1745.67 252.333C1745.72 252.278 1745.78 251.222 1745.33 251.667M1864.33 251.667C1864.28 251.722 1864.22 252.778 1864.67 252.333C1864.72 252.278 1864.78 251.222 1864.33 251.667M41 252L42 253L41 252M1163 252L1164 253L1163 252M1348 252L1349 253L1348 252M1377 252L1378 253L1377 252M1461 252L1462 253L1461 252M1487 252L1488 253L1487 252M1718 252L1719 253L1718 252M1804.33 252.667C1804.28 252.722 1804.22 253.778 1804.67 253.333C1804.72 253.278 1804.78 252.222 1804.33 252.667M1906 252L1907 253L1906 252M1912 252L1913 253L1912 252M919 253L920 254L919 253M970.333 253.667C970.278 253.722 970.222 254.778 970.667 254.333C970.722 254.278 970.778 253.222 970.333 253.667M1043 253L1044 254L1043 253M1065.33 253.667C1065.28 253.722 1065.22 254.778 1065.67 254.333C1065.72 254.278 1065.78 253.222 1065.33 253.667M1138 253L1139 254L1138 253M1245.33 253.667C1245.28 253.722 1245.22 254.778 1245.67 254.333C1245.72 254.278 1245.78 253.222 1245.33 253.667M1261 253L1262 254L1261 253M1267 253L1268 254L1267 253M1319.33 253.667C1319.28 253.722 1319.22 254.778 1319.67 254.333C1319.72 254.278 1319.78 253.222 1319.33 253.667M1341 253L1342 254L1341 253M1400 253L1401 254L1400 253M1601 253L1602 254L1601 253M1689.33 253.667C1689.28 253.722 1689.22 254.778 1689.67 254.333C1689.72 254.278 1689.78 253.222 1689.33 253.667M1711 253L1712 254L1711 253M1768 253L1769 254L1768 253M1887 253L1888 254L1887 253M48 254L49 255L48 254M152 254L152 260C152.951 257.715 152.951 256.285 152 254M866.333 254.667C866.278 254.722 866.222 255.778 866.667 255.333C866.722 255.278 866.778 254.222 866.333 254.667M1028 254L1028 258C1028.71 256.24 1028.71 255.76 1028 254M1123 254L1123 258C1123.71 256.24 1123.71 255.76 1123 254M1217 254L1218 255L1217 254M1347 254L1348 255L1347 254M1437 254L1437 259C1437.83 256.97 1437.83 256.03 1437 254M1480 254L1481 255L1480 254M1486 254L1487 255L1486 254M1717 254L1718 255L1717 254M1863 254L1863 257C1863.7 255.446 1863.7 255.554 1863 254M1905 254L1906 255L1905 254M1911 254L1912 255L1911 254M47 255L48 256L47 255M808 255L809 256L808 255M941 255L942 256L941 255M1164 255L1165 256L1164 255M1184.33 255.667C1184.28 255.722 1184.22 256.778 1184.67 256.333C1184.72 256.278 1184.78 255.222 1184.33 255.667M1260 255L1261 256L1260 255M1266 255L1267 256L1266 255M1295 255L1295 267C1296.51 263.396 1296.51 258.604 1295 255M1376 255L1376 258C1376.7 256.446 1376.7 256.554 1376 255M1574.33 255.667C1574.28 255.722 1574.22 256.778 1574.67 256.333C1574.72 256.278 1574.78 255.222 1574.33 255.667M1665 255L1665 267C1666.51 263.396 1666.51 258.604 1665 255M1744.33 255.667C1744.28 255.722 1744.22 256.778 1744.67 256.333C1744.72 256.278 1744.78 255.222 1744.33 255.667M1827 255L1828 256L1827 255M38 256L39 257L38 256M46 256L47 257L46 256M680.333 256.667C680.278 256.722 680.222 257.778 680.667 257.333C680.722 257.278 680.778 256.222 680.333 256.667M709.333 256.667C709.278 256.722 709.222 257.778 709.667 257.333C709.722 257.278 709.778 256.222 709.333 256.667M779 256L779 259C779.696 257.446 779.696 257.554 779 256M940 256L941 257L940 256M1042 256L1043 257L1042 256M1137 256L1138 257L1137 256M1216 256L1217 257L1216 256M1222 256L1223 257L1222 256M1339 256L1340 257L1339 256M1479 256L1480 257L1479 256M1485 256L1486 257L1485 256M1600 256L1601 257L1600 256M1709 256L1710 257L1709 256M1803.33 256.667C1803.28 256.722 1803.22 257.778 1803.67 257.333C1803.72 257.278 1803.78 256.222 1803.33 256.667M1904 256L1905 257L1904 256M1910 256L1911 257L1910 256M37 257L38 258L37 257M867 257L868 258L867 257M1221 257L1222 258L1221 257M1259 257L1260 258L1259 257M1265 257L1266 258L1265 257M1338 257L1339 258L1338 257M1345 257L1346 258L1345 257M1399 257L1400 258L1399 257M1460.33 257.667C1460.28 257.722 1460.22 258.778 1460.67 258.333C1460.72 258.278 1460.78 257.222 1460.33 257.667M1513.67 257.333C1513.22 257.778 1514.28 257.722 1514.33 257.667C1514.78 257.222 1513.72 257.278 1513.67 257.333M1519.67 257.333C1519.22 257.778 1520.28 257.722 1520.33 257.667C1520.78 257.222 1519.72 257.278 1519.67 257.333M1708 257L1709 258L1708 257M1715 257L1716 258L1715 257M1767.33 257.667C1767.28 257.722 1767.22 258.778 1767.67 258.333C1767.72 258.278 1767.78 257.222 1767.33 257.667M917 258L918 259L917 258M1041 258L1042 259L1041 258M1136 258L1137 259L1136 258M1165 258L1166 259L1165 258M1215 258L1216 259L1215 258M1244 258L1244 267C1245.26 264.006 1245.26 260.994 1244 258M1318.33 258.667C1318.28 258.722 1318.22 259.778 1318.67 259.333C1318.72 259.278 1318.78 258.222 1318.33 258.667M1484 258L1485 259L1484 258M1599 258L1600 259L1599 258M1688.33 258.667C1688.28 258.722 1688.22 259.778 1688.67 259.333C1688.72 259.278 1688.78 258.222 1688.33 258.667M1743 258L1743 261C1743.7 259.446 1743.7 259.554 1743 258M1886.33 258.667C1886.28 258.722 1886.22 259.778 1886.67 259.333C1886.72 259.278 1886.78 258.222 1886.33 258.667M1909 258L1910 259L1909 258M868 259L869 260L868 259M1214 259L1215 260L1214 259M1220 259L1221 260L1220 259M1375 259L1375 262C1375.7 260.446 1375.7 260.554 1375 259M1477 259L1478 260L1477 259M1509 259L1510 260L1509 259M1524 259L1525 260L1524 259M1573.33 259.667C1573.28 259.722 1573.22 260.778 1573.67 260.333C1573.72 260.278 1573.78 259.222 1573.33 259.667M1826 259L1827 260L1826 259M1902 259L1903 260L1902 259M43 260L44 261L43 260M679 260L679 263C679.696 261.446 679.696 261.554 679 260M807 260L808 261L807 260M916 260L917 261L916 260M989 260L990 261L989 260M1027 260L1028 261L1027 260M1040 260L1041 261L1040 260M1084 260L1085 261L1084 260M1122 260L1123 261L1122 260M1135 260L1136 261L1135 260M1166 260L1167 261L1166 260M1257 260L1258 261L1257 260M1263 260L1264 261L1263 260M1343 260L1344 261L1343 260M1598 260L1599 261L1598 260M1713 260L1714 261L1713 260M1901 260L1902 261L1901 260M1908 260L1909 261L1908 260M34 261L35 262L34 261M42 261L43 262L42 261M123 261L123 267C123.951 264.715 123.951 263.285 123 261M708.333 261.667C708.278 261.722 708.222 262.778 708.667 262.333C708.722 262.278 708.778 261.222 708.333 261.667M778 261L778 264C778.696 262.446 778.696 262.554 778 261M869 261L870 262L869 261M915 261L916 262L915 261M970.333 261.667C970.278 261.722 970.222 262.778 970.667 262.333C970.722 262.278 970.778 261.222 970.333 261.667M1039 261L1040 262L1039 261M1065.33 261.667C1065.28 261.722 1065.22 262.778 1065.67 262.333C1065.72 262.278 1065.78 261.222 1065.33 261.667M1134 261L1135 262L1134 261M1213 261L1214 262L1213 261M1219 261L1220 262L1219 261M1223.33 261.667C1223.28 261.722 1223.22 262.778 1223.67 262.333C1223.72 262.278 1223.78 261.222 1223.33 261.667M1256 261L1257 262L1256 261M1335 261L1336 262L1335 261M1398 261L1399 262L1398 261M1482 261L1483 262L1482 261M1705 261L1706 262L1705 261M1802 261L1803 262L1802 261M33 262L34 263L33 262M886 262L887 263L886 262M988 262L989 263L988 262M1026 262L1027 263L1026 262M1083 262L1084 263L1083 262M1121 262L1122 263L1121 262M1167 262L1168 263L1167 262M1212 262L1213 263L1212 262M1262 262L1263 263L1262 262M1334 262L1335 263L1334 262M1481 262L1482 263L1481 262M1527 262L1528 263L1527 262M1704 262L1705 263L1704 262M1742 262L1742 265C1742.7 263.446 1742.7 263.554 1742 262M1766 262L1767 263L1766 262M32 263L33 264L32 263M914 263L915 264L914 263M1261 263L1262 264L1261 263M1333 263L1334 264L1333 263M1474 263L1475 264L1474 263M1505 263L1506 264L1505 263M1528 263L1529 264L1528 263M1572 263L1573 264L1572 263M1703 263L1704 264L1703 263M1825 263L1826 264L1825 263M1906 263L1907 264L1906 263M871 264L872 265L871 264M971 264L972 265L971 264M1037 264L1038 265L1037 264M1066 264L1067 265L1066 264M1132 264L1133 265L1132 264M1168 264L1169 265L1168 264M1184.33 264.667C1184.28 264.722 1184.22 265.778 1184.67 265.333C1184.72 265.278 1184.78 264.222 1184.33 264.667M1217 264L1218 265L1217 264M1254 264L1255 265L1254 264M1340 264L1341 265L1340 264M1374.33 264.667C1374.28 264.722 1374.22 265.778 1374.67 265.333C1374.72 265.278 1374.78 264.222 1374.33 264.667M1473 264L1474 265L1473 264M1710 264L1711 265L1710 264M1905 264L1906 265L1905 264M39 265L40 266L39 265M151 265L151 270C151.83 267.969 151.83 267.03 151 265M678 265L678 268C678.696 266.446 678.696 266.554 678 265M707 265L707 268C707.696 266.446 707.696 266.554 707 265M777 265L777 268C777.696 266.446 777.696 266.554 777 265M806.333 265.667C806.278 265.722 806.222 266.778 806.667 266.333C806.722 266.278 806.778 265.222 806.333 265.667M887 265L888 266L887 265M987 265L987 268C987.696 266.446 987.696 266.554 987 265M1024 265L1025 266L1024 265M1036 265L1037 266L1036 265M1082 265L1082 268C1082.7 266.446 1082.7 266.554 1082 265M1119 265L1120 266L1119 265M1131 265L1132 266L1131 265M1253 265L1254 266L1253 265M1260 265L1261 266L1260 265M1339 265L1340 266L1339 265M1397.33 265.667C1397.28 265.722 1397.22 266.778 1397.67 266.333C1397.72 266.278 1397.78 265.222 1397.33 265.667M1472 265L1473 266L1472 265M1479 265L1480 266L1479 265M1504 265L1505 266L1504 265M1529.33 265.667C1529.28 265.722 1529.22 266.778 1529.67 266.333C1529.72 266.278 1529.78 265.222 1529.33 265.667M1709 265L1710 266L1709 265M1801.33 265.667C1801.28 265.722 1801.22 266.778 1801.67 266.333C1801.72 266.278 1801.78 265.222 1801.33 265.667M1896 265L1897 266L1896 265M38 266L39 267L38 266M930 266L931 267L930 266M972 266L973 267L972 266M1023 266L1024 267L1023 266M1035 266L1036 267L1035 266M1067 266L1068 267L1067 266M1118 266L1119 267L1118 266M1130 266L1131 267L1130 266M1224.33 266.667C1224.28 266.722 1224.22 267.778 1224.67 267.333C1224.72 267.278 1224.78 266.222 1224.33 266.667M1252 266L1253 267L1252 266M1259 266L1260 267L1259 266M1329 266L1330 267L1329 266M1338 266L1339 267L1338 266M1460 266L1461 267L1460 266M1478 266L1479 267L1478 266M1571 266L1572 267L1571 266M1595 266L1596 267L1595 266M1699 266L1700 267L1699 266M1708 266L1709 267L1708 266M1765 266L1766 267L1765 266M1895 266L1896 267L1895 266M29 267L30 268L29 267M37 267L38 268L37 267M888 267L889 268L888 267M911 267L912 268L911 267M929 267L930 268L929 267M973 267L974 268L973 267M1034 267L1035 268L1034 267M1068 267L1069 268L1068 267M1129 267L1130 268L1129 267M1170 267L1171 268L1170 267M1251 267L1252 268L1251 267M1258 267L1259 268L1258 267M1318 267L1319 268L1318 267M1327 267L1328 268L1327 267M1337 267L1338 268L1337 267M1469 267L1470 268L1469 267M1477 267L1478 268L1477 267M1503.33 267.667C1503.28 267.722 1503.22 268.778 1503.67 268.333C1503.72 268.278 1503.78 267.222 1503.33 267.667M1688 267L1689 268L1688 267M1697 267L1698 268L1697 267M1707 267L1708 268L1707 267M1741.33 267.667C1741.28 267.722 1741.22 268.778 1741.67 268.333C1741.72 268.278 1741.78 267.222 1741.33 267.667M1824 267L1825 268L1824 267M1863 267L1864 268L1863 267M1886 267L1887 268L1886 267M28 268L29 269L28 268M874 268L875 269L874 268M889 268L890 269L889 268M910 268L911 269L910 268M928 268L929 269L928 268M974 268L975 269L974 268M1020 268L1021 269L1020 268M1069 268L1070 269L1069 268M1115 268L1116 269L1115 268M1171 268L1172 269L1171 268M1185 268L1186 269L1185 268M1206 268L1207 269L1206 268M1214 268L1215 269L1214 268M1249 268L1250 269L1249 268M1319 268L1320 269L1319 268M1325 268L1326 269L1325 268M1336 268L1337 269L1336 268M1437 268L1438 269L1437 268M1467 268L1468 269L1467 268M1476 268L1477 269L1476 268M1594 268L1595 269L1594 268M1689 268L1690 269L1689 268M1695 268L1696 269L1695 268M1706 268L1707 269L1706 268M1887 268L1888 269L1887 268M1892 268L1893 269L1892 268M875 269L876 270L875 269M890 269L891 270L890 269M909 269L910 270L909 269M975 269L976 270L975 269M988 269L989 270L988 269M1031 269L1032 270L1031 269M1070 269L1071 270L1070 269M1083 269L1084 270L1083 269M1126 269L1127 270L1126 269M1172 269L1173 270L1172 269M1213 269L1214 270L1213 269M1225 269L1226 270L1225 269M1296 269L1297 270L1296 269M1335 269L1336 270L1335 269M1373 269L1374 270L1373 269M1475 269L1476 270L1475 269M1570.33 269.667C1570.28 269.722 1570.22 270.778 1570.67 270.333C1570.72 270.278 1570.78 269.222 1570.33 269.667M1666 269L1667 270L1666 269M1705 269L1706 270L1705 269M1800.33 269.667C1800.28 269.722 1800.22 270.778 1800.67 270.333C1800.72 270.278 1800.78 269.222 1800.33 269.667M729 270L730 271L729 270M753 270L753 273C753.696 271.446 753.696 271.554 753 270M876 270L877 271L876 270M891 270L892 271L891 270M925 270L926 271L925 270M976 270L977 271L976 270M989 270L990 271L989 270M1016 270L1017 271L1016 270M1030 270L1031 271L1030 270M1071 270L1072 271L1071 270M1084 270L1085 271L1084 270M1111 270L1112 271L1111 270M1125 270L1126 271L1125 270M1173 270L1174 271L1173 270M1203 270L1204 271L1203 270M1212 270L1213 271L1212 270M1334 270L1335 271L1334 270M1396 270L1397 271L1396 270M1474 270L1475 271L1474 270M1704 270L1705 271L1704 270M1764 270L1765 271L1764 270M1864 270L1865 271L1864 270M6 271L6 274C6.69612 272.446 6.6961 272.554 6 271M97 271L97 275C97.7102 273.24 97.7102 272.759 97 271M654 271L655 272L654 271M893 271L894 272L893 271M906 271L907 272L906 271M977 271L978 272L977 271M991 271L992 272L991 271M1014 271L1015 272L1014 271M1028 271L1029 272L1028 271M1072 271L1073 272L1072 271M1086 271L1087 272L1086 271M1109 271L1110 272L1109 271M1123 271L1124 272L1123 271M1201 271L1202 272L1201 271M1211 271L1212 272L1211 271M1226 271L1227 272L1226 271M1438 271L1439 272L1438 271M1592 271L1593 272L1592 271M1740.33 271.667C1740.28 271.722 1740.22 272.778 1740.67 272.333C1740.72 272.278 1740.78 271.222 1740.33 271.667M1823 271L1824 272L1823 271M895 272L896 273L895 272M902.667 272.333C902.222 272.778 903.278 272.722 903.333 272.667C903.778 272.222 902.722 272.278 902.667 272.333M922 272L923 273L922 272M994 272L995 273L994 272M1009.67 272.333C1009.22 272.778 1010.28 272.722 1010.33 272.667C1010.78 272.222 1009.72 272.278 1009.67 272.333M1027 272L1028 273L1027 272M1089 272L1090 273L1089 272M1104.67 272.333C1104.22 272.778 1105.28 272.722 1105.33 272.667C1105.78 272.222 1104.72 272.278 1104.67 272.333M1122 272L1123 273L1122 272M1175 272L1176 273L1175 272M1189 272L1190 273L1189 272M1196 272C1197.25 272.685 1197.55 272.749 1199 273C1197.75 272.315 1197.45 272.251 1196 272M1253 272L1254 273L1253 272M1331 272L1332 273L1331 272M1471 272L1472 273L1471 272M1569 272L1570 273L1569 272M1701 272L1702 273L1701 272M1799 272L1799 275C1799.7 273.446 1799.7 273.554 1799 272M1897 272L1898 273L1897 272M61 273L61 276C61.6961 274.446 61.6961 274.554 61 273M174 273L174 276C174.696 274.446 174.696 274.554 174 273M880 273L881 274L880 273M920 273L921 274L920 273M980 273L981 274L980 273M1025 273L1026 274L1025 273M1075 273L1076 274L1075 273M1120 273L1121 274L1120 273M1176 273L1177 274L1176 273M1208 273L1209 274L1208 273M1227 273L1228 274L1227 273M1252 273L1253 274L1252 273M1298 273L1299 274L1298 273M1330 273L1331 274L1330 273M1372.33 273.667C1372.28 273.722 1372.22 274.778 1372.67 274.333C1372.72 274.278 1372.78 273.222 1372.33 273.667M1470 273L1471 274L1470 273M1668 273L1669 274L1668 273M1700 273L1701 274L1700 273M1896 273L1897 274L1896 273M728.333 274.667C728.278 274.722 728.222 275.778 728.667 275.333C728.722 275.278 728.778 274.222 728.333 274.667M827.333 274.667C827.278 274.722 827.222 275.778 827.667 275.333C827.722 275.278 827.778 274.222 827.333 274.667M918 274L919 275L918 274M982 274L983 275L982 274M1023 274L1024 275L1023 274M1077 274L1078 275L1077 274M1118 274L1119 275L1118 274M1177 274L1178 275L1177 274M1207 274L1208 275L1207 274M1228 274L1229 275L1228 274M1251 274L1252 275L1251 274M1299 274L1300 275L1299 274M1328 274L1329 275L1328 274M1395.33 274.667C1395.28 274.722 1395.22 275.778 1395.67 275.333C1395.72 275.278 1395.78 274.222 1395.33 274.667M1440 274L1441 275L1440 274M1468 274L1469 275L1468 274M1529.33 274.667C1529.28 274.722 1529.22 275.778 1529.67 275.333C1529.72 275.278 1529.78 274.222 1529.33 274.667M1568 274L1569 275L1568 274M1590 274L1591 275L1590 274M1669 274L1670 275L1669 274M1698 274L1699 275L1698 274M1763.33 274.667C1763.28 274.722 1763.22 275.778 1763.67 275.333C1763.72 275.278 1763.78 274.222 1763.33 274.667M1894 274L1895 275L1894 274M653 275L654 276L653 275M883 275L884 276L883 275M916 275L917 276L916 275M984 275L985 276L984 275M1020 275L1021 276L1020 275M1079 275L1080 276L1079 275M1115 275L1116 276L1115 275M1179 275L1180 276L1179 275M1205 275L1206 276L1205 275M1229 275L1230 276L1229 275M1249 275L1250 276L1249 275M1300 275L1301 276L1300 275M1326 275L1327 276L1326 275M1441 275L1442 276L1441 275M1466 275L1467 276L1466 275M1589 275L1590 276L1589 275M1670 275L1671 276L1670 275M1696 275L1697 276L1696 275M1739 275L1740 276L1739 275M1822 275L1823 276L1822 275M886 276L887 277L886 276M913 276L914 277L913 276M986 276L987 277L986 276M1017.67 276.333C1017.22 276.778 1018.28 276.722 1018.33 276.667C1018.78 276.222 1017.72 276.278 1017.67 276.333M1081 276L1082 277L1081 276M1112.67 276.333C1112.22 276.778 1113.28 276.722 1113.33 276.667C1113.78 276.222 1112.72 276.278 1112.67 276.333M1181 276L1182 277L1181 276M1203 276L1204 277L1203 276M1301 276L1302 277L1301 276M1324 276L1325 277L1324 276M1443 276L1444 277L1443 276M1464 276L1465 277L1464 276M1567 276L1568 277L1567 276M1671 276L1672 277L1671 276M1694 276L1695 277L1694 276M1870 276L1871 277L1870 276M1891 276L1892 277L1891 276M888.667 277.333C888.222 277.778 889.278 277.722 889.333 277.667C889.778 277.222 888.722 277.278 888.667 277.333M909.667 277.333C909.222 277.778 910.278 277.722 910.333 277.667C910.778 277.222 909.722 277.278 909.667 277.333M989.667 277.333C989.222 277.778 990.278 277.722 990.333 277.667C990.778 277.222 989.722 277.278 989.667 277.333M1013.67 277.333C1013.22 277.778 1014.28 277.722 1014.33 277.667C1014.78 277.222 1013.72 277.278 1013.67 277.333M1084.67 277.333C1084.22 277.778 1085.28 277.722 1085.33 277.667C1085.78 277.222 1084.72 277.278 1084.67 277.333M1108.67 277.333C1108.22 277.778 1109.28 277.722 1109.33 277.667C1109.78 277.222 1108.72 277.278 1108.67 277.333M1183 277L1184 278L1183 277M1200 277L1201 278L1200 277M1232 277L1233 278L1232 277M1245 277L1246 278L1245 277M1303 277L1304 278L1303 277M1320.67 277.333C1320.22 277.778 1321.28 277.722 1321.33 277.667C1321.78 277.222 1320.72 277.278 1320.67 277.333M1445 277L1446 278L1445 277M1461.67 277.333C1461.22 277.778 1462.28 277.722 1462.33 277.667C1462.78 277.222 1461.72 277.278 1461.67 277.333M1503.33 277.667C1503.28 277.722 1503.22 278.778 1503.67 278.333C1503.72 278.278 1503.78 277.222 1503.33 277.667M1528 277L1529 278L1528 277M1673 277L1674 278L1673 277M1690.67 277.333C1690.22 277.778 1691.28 277.722 1691.33 277.667C1691.78 277.222 1690.72 277.278 1690.67 277.333M1872.67 277.333C1872.22 277.778 1873.28 277.722 1873.33 277.667C1873.78 277.222 1872.72 277.278 1872.67 277.333M1888 277L1889 278L1888 277M893.667 278.333C893.222 278.778 894.278 278.722 894.333 278.667C894.778 278.222 893.722 278.278 893.667 278.333M902 278C904.052 278.874 905.747 278.953 908 279C905.948 278.126 904.253 278.047 902 278M995 278C996.248 278.685 996.549 278.749 998 279C996.752 278.315 996.452 278.251 995 278M1007 278C1008.25 278.685 1008.55 278.749 1010 279C1008.75 278.315 1008.45 278.251 1007 278M1090 278C1091.25 278.685 1091.55 278.749 1093 279C1091.75 278.315 1091.45 278.251 1090 278M1102 278C1103.25 278.685 1103.55 278.749 1105 279C1103.75 278.315 1103.45 278.251 1102 278M1185 278C1186.25 278.685 1186.55 278.749 1188 279C1186.75 278.315 1186.45 278.251 1185 278M1194 278C1195.25 278.685 1195.55 278.749 1197 279C1195.75 278.315 1195.45 278.251 1194 278M1235.67 278.333C1235.22 278.778 1236.28 278.722 1236.33 278.667C1236.78 278.222 1235.72 278.278 1235.67 278.333M1242.67 278.333C1242.22 278.778 1243.28 278.722 1243.33 278.667C1243.78 278.222 1242.72 278.278 1242.67 278.333M1306 278C1307.25 278.685 1307.55 278.749 1309 279C1307.75 278.315 1307.45 278.251 1306 278M1316 278C1317.25 278.685 1317.55 278.749 1319 279C1317.75 278.315 1317.45 278.251 1316 278M1447 278C1448.51 278.683 1449.31 278.826 1451 279C1449.49 278.317 1448.69 278.174 1447 278M1457 278C1458.25 278.685 1458.55 278.749 1460 279C1458.75 278.315 1458.45 278.251 1457 278M1566 278L1567 279L1566 278M1676 278C1677.25 278.685 1677.55 278.749 1679 279C1677.75 278.315 1677.45 278.251 1676 278M1686 278C1687.25 278.685 1687.55 278.749 1689 279C1687.75 278.315 1687.45 278.251 1686 278M1875.67 278.333C1875.22 278.778 1876.28 278.722 1876.33 278.667C1876.78 278.222 1875.72 278.278 1875.67 278.333M1883 278C1884.25 278.685 1884.55 278.749 1886 279C1884.75 278.315 1884.45 278.251 1883 278M1565 279L1566 280L1565 279M1525 280L1526 281L1525 280M1504 281L1505 282L1504 281M1524 281L1525 282L1524 281M1563 282L1564 283L1563 282M1505 283L1506 284L1505 283M1562 283L1563 284L1562 283M1581 283L1582 284L1581 283M1521 284L1521 287C1521.7 285.446 1521.7 285.554 1521 284M1561 284L1562 285L1561 284M1580 284L1581 285L1580 284M1506 285L1507 286L1506 285M1560 285L1561 286L1560 285M1507 286L1508 287L1507 286M1559 286L1560 287L1559 286M1577 286L1578 287L1577 286M1508 287L1509 288L1508 287M1558 287L1559 288L1558 287M1576 287L1577 288L1576 287M1509 288L1510 289L1509 288M1522 288L1523 289L1522 288M1556 288L1557 289L1556 288M1574 288L1575 289L1574 288M1510 289L1511 290L1510 289M1523 289L1524 290L1523 289M1555 289L1556 290L1555 289M1511 290L1512 291L1511 290M1525 290L1526 291L1525 290M1552.67 290.333C1552.22 290.777 1553.28 290.723 1553.33 290.667C1553.78 290.222 1552.72 290.278 1552.67 290.333M1571 290L1572 291L1571 290M1513 291L1514 292L1513 291M1527.67 291.333C1527.22 291.777 1528.28 291.723 1528.33 291.667C1528.78 291.222 1527.72 291.278 1527.67 291.333M1550 291L1551 292L1550 291M1569 291L1570 292L1569 291M1531.67 292.333C1531.22 292.777 1532.28 292.723 1532.33 292.667C1532.78 292.222 1531.72 292.278 1531.67 292.333M1545.67 292.333C1545.22 292.778 1546.28 292.722 1546.33 292.667C1546.78 292.222 1545.72 292.278 1545.67 292.333M1567 292L1568 293L1567 292M1516 293L1517 294L1516 293M1565 293L1566 294L1565 293M1518 294L1519 295L1518 294M1563 294L1564 295L1563 294M1521 295L1522 296L1521 295M1560 295L1561 296L1560 295M1523.67 296.333C1523.22 296.778 1524.28 296.722 1524.33 296.667C1524.78 296.222 1523.72 296.278 1523.67 296.333M1557 296L1558 297L1557 296M1526 297C1527.25 297.685 1527.55 297.749 1529 298C1527.75 297.315 1527.45 297.251 1526 297M1552 297L1553 298L1552 297M1532 298C1533.25 298.685 1533.55 298.749 1535 299C1533.75 298.315 1533.45 298.251 1532 298M1544 298C1545.77 298.779 1547.04 298.912 1549 299C1547.23 298.221 1545.96 298.088 1544 298z"/>
</svg>
