<?xml version="1.0" standalone="yes"?>
<svg xmlns="http://www.w3.org/2000/svg" width="1934" height="444">
<path style="fill:#ffffff; stroke:none;" d="M0 0L0 444L1934 444L1934 0L0 0z"/>
<path style="fill:#010101; stroke:none;" d="M5 69L5 274C5.68305 272.494 5.82589 271.685 6 270C11.7987 270 20.419 271.613 25.8295 269.397C29.9531 267.707 33.0088 262.319 35.75 259C42.876 250.372 49.9754 241.71 57 233C79.9829 204.501 103.367 176.315 126.576 148C134.478 138.358 142.36 128.695 150.197 119C155.208 112.8 158.502 107.1 167 107C166.719 120.631 164.483 134.43 163.17 148C160.881 171.648 159.119 195.354 156.83 219C155.191 235.938 152.73 253.002 152 270L176 270L175 276L96 276C96.6438 273.894 96.9059 272.205 97 270L122 270C124.936 254.186 124.067 237.799 127 222L92 222C87.3692 222 80.6182 220.769 76.2894 222.603C71.59 224.595 68.0774 231.194 64.919 235C55.5332 246.309 44.7907 257.532 37 270L63 270L62 276L5 276L5 307L291 307C269.127 287.265 253.643 261.432 243 234L241 234C233.768 244.72 227.965 255.547 224.294 268C223.32 271.305 222.514 278.888 218.316 279.728C213.119 280.769 205.591 273.886 205.319 269C205.085 264.794 206.832 260.122 207.576 256C209.449 245.616 211.516 235.285 213.881 225C222.689 186.695 233.507 148.908 249.694 113C256.475 97.9581 264.102 79.7965 278 70C271.081 67.0968 260.48 69 253 69L198 69L5 69z"/>
<path style="fill:#317f6d; stroke:none;" d="M241 234L243 234C245.484 243.083 250.227 251.76 254.691 260C262.658 274.705 271.457 290.549 284.001 301.895C296.765 313.44 313.411 299.631 315 285C308.978 285.437 304.17 290.386 298 287.994C291.819 285.598 286.86 280.015 282.805 275C273.129 263.034 266.498 249.204 260.8 235C258.592 229.496 253.757 221.062 254.684 215C255.181 211.749 257.576 208.668 259.355 206C264.547 198.211 271.189 189.731 280 186C279.9 190.809 279.2 195.647 277.002 199.996C275.694 202.583 271.722 205.881 272.172 208.985C272.904 214.027 283.133 216.439 286.895 214.167C289.165 212.797 290.555 210.315 291.673 207.999C294.464 202.218 299.195 191.292 295.972 185.015C294.648 182.437 292.251 180.826 289.999 179.14C287.493 177.262 285.006 174.648 282 173.607C275.219 171.259 269.117 178.682 265.09 183C258.449 190.121 253.588 198.58 247.24 205.856C244.805 208.646 240.068 209.211 238.268 212.394C236.85 214.903 237.72 218.274 236.572 221C234.226 226.569 230.349 231.388 228 237C227.56 225.057 232.241 211.544 235.127 200C242.685 169.766 252.475 139.183 268.001 112C272.673 103.819 278.89 88.9498 289 86.4483C292.449 85.5948 295.678 87.1466 298.996 87.8009C301.184 88.2324 305.284 88.3979 304.824 84.9769C304.292 81.0205 297.836 77.3791 295 75.0957C290.72 71.6504 285.799 68.2542 280 69.2323C275.099 70.0588 271.583 74.3028 268.669 78C262.264 86.1281 257.189 95.6676 252.781 105C234.008 144.744 222.027 187.207 212.576 230C210.374 239.968 208.598 249.994 206.6 260C205.805 263.984 203.997 269.09 206.029 272.957C207.914 276.546 216.27 282.418 220.297 279.164C223.856 276.289 224.421 268.151 225.861 264C229.643 253.098 236.142 244.268 241 234z"/>
<path style="fill:#010101; stroke:none;" d="M286 69C290.761 73.1556 296.15 76.6354 300.952 80.8002C302.349 82.0118 305.081 83.9631 304.427 86.1713C303.854 88.1035 301.364 87.9963 299.826 87.7369C295.511 87.0089 291.404 85.0663 287 86.7423C279.361 89.6493 274.672 99.3436 270.85 106C247.61 146.482 235.821 191.512 227 237C231.069 232.986 235.014 226.392 237.003 221C238.003 218.289 237.268 214.817 238.912 212.394C240.844 209.547 244.877 209.156 247.24 206.698C252.282 201.451 256.057 194.614 260.754 189C264.847 184.107 271.959 173.791 279 173.427C282.583 173.241 285.375 176.429 288 178.41C291.145 180.785 295.02 183.06 296.382 187.001C298.748 193.847 292.414 209.22 286.985 213.476C283.472 216.229 272.657 213.787 272.47 208.471C272.382 205.976 275.904 203.127 277.002 200.985C279.387 196.331 279.957 191.142 280 186C270.959 188.351 264.313 197.563 259.355 205C257.383 207.958 254.782 211.363 254.368 215C253.658 221.237 258.135 229.338 260.4 235C266.048 249.12 272.471 263.031 282.004 275C286.035 280.062 290.802 285.562 297 287.995C303.847 290.682 308.564 285.935 315 285C313.333 293.618 305.957 301.099 299 306C307.358 309.507 320.94 307 330 307L400 307L642 307C620.127 287.266 604.643 261.432 594 234L592 234C584.768 244.72 578.965 255.547 575.294 268C574.32 271.305 573.514 278.888 569.316 279.728C564.119 280.769 556.591 273.886 556.319 269C556.085 264.794 557.832 260.122 558.576 256C560.449 245.616 562.516 235.285 564.881 225C573.689 186.695 584.507 148.908 600.694 113C607.475 97.9581 615.102 79.7965 629 70C624.785 68.2312 619.536 69 615 69L587 69L489 69C495.162 74.4867 506.616 79.2145 508 88C501.725 88.2662 495.023 84.1652 489 87.179C477.205 93.0814 470.328 111.848 464.753 123C451.22 150.071 442.09 179.507 435.576 209C432.966 220.814 429.955 232.916 429 245C433.888 241.403 436.645 235.981 443 235C438.278 247.476 430.254 257.804 426.625 271C425.743 274.208 424.17 279.762 419.711 278.354C415.127 276.907 409.935 271.832 409.268 267C408.732 263.12 410.272 258.805 410.919 255C412.689 244.593 415.021 234.292 417.35 224C426.011 185.721 436.906 147.783 453.231 112C459.993 97.1775 467.252 79.6908 481 70C472.882 66.5934 459.797 69 451 69L383 69C389.261 74.4652 400.594 79.0783 402 88C395.66 88.2689 389.072 84.1886 383.001 87.3179C377.924 89.9345 374.521 95.2894 371.612 100C366.632 108.064 361.723 116.334 357.861 125C342.216 160.105 331.317 196.27 324 234C329.257 228.814 332.257 221.145 336.355 215C343.267 204.635 351.203 194.811 360 186C363.983 182.011 368.503 175.811 374 173.901C381.763 171.204 393.258 180.541 393.906 188C395.515 206.519 387.055 225.314 383 243C387.889 238.354 391.192 231.911 398 230C397.362 235.875 393.861 240.185 390.667 245C386.563 251.187 382.754 257.589 379.012 264C376.356 268.549 374.828 274.77 371.366 278.707C367.367 283.254 358.286 279.473 357.071 273.957C356.418 270.995 358.345 267.661 359.399 265C361.491 259.718 363.52 254.385 365.333 249C371.815 229.742 382.419 205.719 379 185C370.822 186.645 365.183 193.962 360.001 200C347.358 214.731 336.319 231.585 327.756 249C324.551 255.519 322.34 262.517 319.096 268.998C317.905 271.377 315.923 275.073 312.711 274.454C307.972 273.539 303.349 267.675 303.279 263C303.078 249.624 308.448 233.941 311.626 221C320.7 184.047 331.015 147.781 346.694 113C353.456 98.0013 361.153 79.7606 375 70C367.6 66.8951 356.007 69 348 69L286 69z"/>
<path style="fill:#317f6d; stroke:none;" d="M379 185C380.786 206.4 372.038 228.08 365.333 248C363.405 253.726 361.229 259.386 359 265C357.925 267.706 356.144 270.947 356.619 273.957C357.495 279.507 367.121 283.549 371.351 279.471C374.721 276.223 376.109 270.055 378.427 266C382.1 259.576 385.93 253.178 390.003 247C393.615 241.521 397.635 236.755 398 230C391.279 231.037 386.653 237.047 384 243C384.155 236.571 386.877 230.181 388.575 224C390.737 216.131 392.121 208.068 393.271 200C394.028 194.684 395.363 187.073 392.682 182.105C390.041 177.211 379.48 172.047 374 173.529C370.395 174.505 367.586 177.497 365 180.015C349.333 195.265 333.539 213.597 325 234C324.601 223.166 329.016 211.444 331.627 201C338.496 173.522 347.558 146.38 360.248 121C365.617 110.262 372.465 94.4191 383.001 87.8935C389.012 84.1705 395.522 88.6371 402 88C401.254 78.3048 383.677 65.3364 374 70.179C364.775 74.7953 359.253 87.4522 354.424 96C345.205 112.32 338.575 130.39 332.308 148C322.807 174.695 315.002 202.206 309.4 230C307.3 240.414 301.563 254.368 303.243 265C303.941 269.417 309.779 276.375 314.895 274.632C317.975 273.582 319.274 269.708 320.396 267C323.19 260.252 325.962 253.529 329.248 247C337.456 230.688 348.114 214.851 360.001 201C365.353 194.763 370.974 187.707 379 185M443 235C436.324 235.504 433.347 240.459 429 245C434.231 203.822 446.178 161.155 464.753 124C470.551 112.402 477.685 93.2796 490 87.1798C495.589 84.4117 502.065 88.5837 508 88C507.231 78.0134 488.66 64.7447 479.001 70.7423C465.703 78.9991 458.439 99.3924 452.306 113C436.145 148.852 425.67 186.776 416.881 225C414.594 234.949 412.501 244.942 410.75 255C409.977 259.44 408.219 264.496 409.434 268.999C410.658 273.529 419.512 282.475 424.272 277.523C427.425 274.244 427.846 267.197 429.425 263C433.006 253.482 440.718 244.715 443 235M592 234L594 234C596.484 243.083 601.227 251.76 605.691 260C613.658 274.705 622.457 290.549 635.001 301.895C647.765 313.44 664.411 299.631 666 285C659.978 285.437 655.17 290.386 649 287.994C642.819 285.598 637.86 280.015 633.805 275C624.129 263.034 617.498 249.204 611.8 235C609.592 229.496 604.757 221.062 605.684 215C606.181 211.748 608.576 208.668 610.355 206C615.547 198.211 622.189 189.731 631 186C630.9 190.809 630.2 195.647 628.002 199.996C626.694 202.583 622.722 205.881 623.172 208.985C623.904 214.027 634.133 216.439 637.895 214.167C640.165 212.797 641.555 210.315 642.673 207.999C645.464 202.218 650.195 191.292 646.972 185.015C645.648 182.437 643.251 180.826 640.999 179.14C638.493 177.262 636.006 174.648 633 173.607C626.219 171.259 620.117 178.682 616.089 183C609.449 190.12 604.588 198.58 598.24 205.856C595.805 208.646 591.068 209.211 589.268 212.394C587.85 214.903 588.72 218.274 587.572 221C585.226 226.569 581.349 231.388 579 237C578.56 225.057 583.241 211.544 586.127 200C593.685 169.766 603.475 139.182 619.001 112C623.674 103.819 629.89 88.9498 640 86.4483C643.449 85.5948 646.678 87.1466 649.996 87.8009C652.184 88.2324 656.284 88.3979 655.824 84.9769C655.292 81.0204 648.836 77.3791 646 75.0957C641.72 71.6504 636.799 68.2542 631 69.2323C626.099 70.0588 622.582 74.3028 619.669 78C613.264 86.1283 608.189 95.6675 603.781 105C585.008 144.744 573.028 187.207 563.576 230C561.374 239.968 559.598 249.994 557.6 260C556.805 263.985 554.997 269.09 557.029 272.957C558.914 276.546 567.27 282.418 571.297 279.164C574.856 276.289 575.421 268.151 576.861 264C580.643 253.098 587.142 244.268 592 234z"/>
<path style="fill:#010101; stroke:none;" d="M637 69C641.761 73.1556 647.15 76.6354 651.952 80.8002C653.349 82.0118 656.081 83.9632 655.427 86.1713C654.854 88.1034 652.364 87.9963 650.826 87.7369C646.511 87.0089 642.404 85.0663 638 86.7423C630.361 89.6493 625.672 99.3436 621.85 106C598.61 146.482 586.821 191.512 578 237C582.069 232.986 586.014 226.392 588.003 221C589.003 218.289 588.268 214.817 589.912 212.394C591.844 209.547 595.877 209.156 598.24 206.698C603.281 201.451 607.057 194.614 611.754 189C615.847 184.107 622.959 173.791 630 173.427C633.583 173.241 636.375 176.429 639 178.41C642.145 180.785 646.02 183.059 647.382 187.001C649.748 193.847 643.414 209.22 637.985 213.476C634.472 216.229 623.657 213.787 623.47 208.471C623.382 205.976 626.904 203.127 628.002 200.985C630.387 196.331 630.957 191.142 631 186C621.959 188.351 615.313 197.563 610.355 205C608.383 207.958 605.782 211.363 605.368 215C604.658 221.237 609.135 229.338 611.4 235C617.048 249.12 623.471 263.031 633.004 275C637.035 280.062 641.802 285.562 648 287.995C654.847 290.682 659.564 285.935 666 285C664.334 293.618 656.957 301.099 650 306C653.699 307.552 658.017 307 662 307L683 307L758 307L1017 307L1917 307L1917 244C1912.42 251.245 1910.7 259.313 1904.82 266C1900.48 270.927 1895.32 275.725 1889 277.892C1877.87 281.708 1863.91 276.801 1862.32 264C1861.47 257.191 1864.48 249.536 1866.13 243C1869.56 229.317 1873.58 215.745 1876.76 202C1878.33 195.251 1879.1 185.264 1869 187.397C1862.9 188.687 1857.31 193.798 1853 198.015C1838.29 212.416 1833.95 231.699 1829.13 251C1827.63 256.984 1826.41 263.026 1824.87 269C1824.26 271.4 1823.79 274.472 1821.57 275.972C1819.48 277.388 1816.39 276.995 1814 277L1798 277C1804.04 255.556 1808.47 233.614 1813.87 212C1815.32 206.228 1820.32 193.339 1814.68 188.603C1806.83 182.007 1793.84 196.709 1789.67 202C1778.92 215.639 1774.71 231.469 1770.63 248C1768.26 257.572 1765.32 267.22 1764 277L1739 277C1740.41 266.537 1743.99 256.286 1746.35 246C1750.94 225.98 1755.43 205.774 1761 186L1740 186L1741 179C1756.57 179 1771.56 177.22 1787 176C1786.31 184.51 1782.69 192.49 1782 201C1786.43 197.128 1789.7 192.13 1794 188.09C1806.02 176.818 1833.47 166.928 1840.89 189C1842.31 193.225 1841.09 197.656 1841 202C1846.95 195.86 1852.05 188.925 1859 183.761C1870.98 174.868 1899 169.709 1901.81 191C1902.69 197.685 1900.48 204.587 1898.87 211L1891.13 242C1889.72 247.645 1888.26 253.274 1887.2 259C1886.78 261.293 1885.94 264.457 1887.78 266.381C1890.95 269.697 1896.54 265.08 1898.82 262.815C1905.44 256.229 1906.57 242.341 1917 242L1917 69L637 69z"/>
<path style="fill:#ffffff; stroke:none;" d="M688 110L687 117L710 117C705.986 127.699 704.868 139.853 702.349 151C696.721 175.912 691.439 200.961 686.4 226C684.382 236.023 682.07 245.988 679.997 256C679.259 259.563 678.94 265.712 676.262 268.397C672.3 272.367 659.296 270 654 270L653 276L729 277L730 270L708 270C710.06 244.112 721.883 218.947 723 193L793 193C786.982 210.741 784.305 230.625 780.6 249C779.613 253.9 779.133 266.051 774.686 268.972C769.849 272.149 758.651 270 753 270L752 277L828 277L829 270L806 270C809.902 258.495 811.541 245.893 814.003 234C817.871 215.32 822.002 196.695 825.801 178C828.446 164.984 831.31 152.008 834.003 139C835.51 131.72 837.679 124.457 838 117L862 117L863 110L805 110C797.033 110 788.095 107.508 786 117L809 117C804.814 133.172 802.03 149.709 798.349 166C797.234 170.936 796.938 180.712 793.262 184.397C789.768 187.898 779.578 186 775 186L725 186C730.36 170.172 732.471 152.39 735.801 136C736.725 131.454 737.166 120.752 741.314 118.028C746.151 114.851 757.349 117 763 117L764 110L688 110M1579 110L1578 117L1601 117C1596.16 154.464 1586.61 191.951 1579.2 229C1575.94 245.325 1574.64 266.723 1563.67 280C1555.97 289.327 1546.87 292.785 1535 291.91C1531.44 291.647 1524.3 290.501 1523.63 285.995C1523.21 283.131 1526.86 280.962 1528.3 278.91C1531.29 274.64 1531.69 268.689 1529.43 264.004C1523.61 251.982 1505.59 256.017 1502.68 268C1498.79 284.029 1512.19 294.224 1526 297.844C1547.78 303.554 1572.76 295.157 1587.91 278.996C1603.29 262.595 1607.16 239.195 1611.4 218C1618.08 184.581 1626.64 150.796 1631 117L1646 117C1648.25 116.995 1651.36 117.44 1653.27 115.974C1655 114.645 1655.42 111.957 1656 110L1579 110M1332 111.653C1322.86 114.555 1320.58 126.831 1326.57 133.786C1330.22 138.025 1336.78 139.192 1342 137.656C1351.36 134.9 1354.8 122.609 1348.43 115.214C1344.64 110.807 1337.36 109.953 1332 111.653M1702 111.653C1692.86 114.555 1690.58 126.831 1696.57 133.786C1700.22 138.025 1706.78 139.192 1712 137.656C1721.36 134.9 1724.8 122.609 1718.43 115.214C1714.64 110.807 1707.36 109.953 1702 111.653z"/>
<path style="fill:#010101; stroke:none;" d="M132 152C122.445 162.971 113.798 174.748 104.576 186C96.9455 195.31 88.0117 204.55 82 215L113 215C116.589 215 122.284 216.063 125.566 214.397C129.133 212.586 128.655 203.503 128.911 200C129.766 188.336 131.428 176.677 132 165C132.213 160.654 133.708 156.108 132 152z"/>
<path style="fill:#317f6d; stroke:none;" d="M517 221C517.314 225.736 515.522 230.404 514.373 235C512.551 242.291 510.912 249.606 509.576 257C508.767 261.476 506.764 267.375 508.603 271.826C510.133 275.528 518.362 281.425 522.272 278.164C525.323 275.621 525.742 268.611 527.054 265C530.727 254.893 539.116 245.437 541 235C534.14 235.223 531.396 239.231 527 244C530.195 232.656 532.982 221.204 536.671 210C538.729 203.746 542.891 196.711 542.848 190.004C542.818 185.242 534.743 176.846 529.649 180.071C526.939 181.787 526.428 186.146 526 189C522.4 181.064 511.633 170.645 502 173.514C496.372 175.19 491.509 180.796 487.715 185.015C469.869 204.861 453.395 229.391 448.004 256C446.105 265.37 448.897 280.499 462 279.128C468.522 278.446 474.573 272.323 478.999 267.985C484.455 262.639 489.583 256.781 494.575 251C502.29 242.065 512.712 232.146 517 221z"/>
<path style="fill:#ffffff; stroke:none;" d="M909 176.465C884.214 180.933 864.765 206.671 863.089 231C861.776 250.071 868.563 273.902 890 278.482C895.74 279.709 903.233 279.575 909 278.535C934.906 273.865 954.184 246.094 955.911 221C957.022 204.846 950.746 185.457 935 178.352C927.601 175.013 916.907 175.039 909 176.465M1011 176.465C1004.99 177.548 999.583 180.154 995.001 184.185C992.085 186.75 989.322 189.626 987.363 193C975.894 212.761 992.342 229.221 1009 237.755C1016.02 241.351 1031.25 249.977 1026.53 260C1021.87 269.896 1010.75 272.116 1001 271.996C997.078 271.948 992.04 271.704 989.788 267.867C986.646 262.514 993.305 256.042 989.258 250.059C986.465 245.931 980.51 244.971 976.015 246.742C965.771 250.78 968.689 264.748 975.105 270.674C984.717 279.552 999.606 280.486 1012 278.7C1018.24 277.801 1024.75 275.381 1030 271.895C1043.35 263.025 1050.33 244.6 1041.52 230C1037.21 222.857 1030.05 218.142 1023 214.012C1016.59 210.257 998.897 202.921 1001.84 193.001C1004.45 184.179 1017.18 181.742 1024.98 183.228C1034.97 185.131 1023.72 201.107 1036 203.968C1047.85 206.727 1053.06 192.408 1046.57 184.043C1039.2 174.546 1021.78 174.521 1011 176.465M1106 176.465C1099.99 177.548 1094.58 180.154 1090 184.185C1087.09 186.75 1084.32 189.626 1082.36 193C1070.89 212.761 1087.34 229.22 1104 237.755C1111.02 241.351 1126.25 249.977 1121.53 260C1116.87 269.896 1105.75 272.116 1096 271.996C1092.08 271.948 1087.04 271.704 1084.79 267.867C1081.65 262.514 1088.31 256.042 1084.26 250.059C1081.47 245.931 1075.51 244.971 1071.02 246.742C1060.77 250.78 1063.69 264.748 1070.1 270.674C1079.72 279.552 1094.61 280.486 1107 278.7C1113.24 277.801 1119.75 275.381 1125 271.895C1138.35 263.025 1145.33 244.6 1136.52 230C1132.21 222.857 1125.05 218.142 1118 214.012C1111.59 210.257 1093.9 202.921 1096.84 193.001C1099.45 184.179 1112.18 181.742 1119.98 183.228C1129.97 185.131 1118.72 201.107 1131 203.968C1142.85 206.727 1148.06 192.408 1141.57 184.043C1134.2 174.546 1116.78 174.521 1106 176.465M1223 260C1223.33 275.449 1237.06 284.691 1251 275.867C1262.21 268.768 1271.05 253.011 1273 240C1263.12 240.324 1260.94 254.109 1255.48 260.999C1253.83 263.081 1251.14 266.793 1248.15 266.793C1245.69 266.793 1245.18 263.875 1245.15 261.995C1245.06 256.804 1246.91 251.017 1248.13 246C1253.61 223.436 1259.58 200.796 1264 178L1239 178C1238.41 182.38 1237.19 186.564 1237 191C1232.71 186.252 1231.42 180.173 1225 177.367C1214.03 172.578 1200.08 177.628 1191 184.043C1169.71 199.088 1159.12 223.426 1162.17 249C1164.59 269.296 1183.47 285.931 1204 277.12C1212.62 273.421 1216.18 265.632 1223 260M1290 179L1289 186L1312 186C1306.79 204.504 1302.79 223.353 1298.13 242C1295.93 250.778 1292.47 262.141 1296.23 270.996C1300.29 280.567 1313.36 280.41 1322 278.073C1338.78 273.533 1353.04 253.671 1356 237C1347.66 237.099 1346.87 242.529 1343.12 249C1340.38 253.737 1336.92 258.154 1332.99 261.957C1330.49 264.372 1326.87 267.853 1323.05 267.468C1314.97 266.656 1321.02 250.442 1322.13 246C1327.85 223.096 1335.85 199.383 1339 176C1322.67 176.135 1306.41 179 1290 179M1371 186L1392 186C1390.73 195.431 1387.78 204.728 1385.65 214C1380.83 235.001 1375.35 255.897 1371 277L1396 277C1400.81 252.181 1405.52 221.795 1422.46 202.039C1426.97 196.784 1433.57 191.079 1440 188.367C1443.75 186.788 1448.42 186.819 1450.26 191.109C1452.84 197.133 1448.86 206.065 1447.37 212C1444.05 225.274 1440.15 238.552 1437.61 252C1436.37 258.602 1434.88 265.632 1438.05 271.96C1441.88 279.612 1451.53 279.999 1459 278.851C1476.58 276.151 1488.46 257.885 1493 242C1481.68 242.134 1480.73 254.779 1473.91 261.985C1471.51 264.512 1466.29 269.883 1462.6 266.381C1457.6 261.63 1463.81 247.506 1465.12 242C1467.41 232.321 1469.72 222.654 1472.13 213C1474.05 205.286 1476.34 196.99 1474.82 189C1471 168.834 1443.38 175.561 1432 183.746C1425.33 188.545 1418.47 194.42 1415 202C1413.72 194.067 1417.83 183.704 1420 176C1409.15 176.224 1397.83 177.799 1387 178.83C1383.16 179.196 1377.85 177.924 1374.3 179.603C1371.86 180.761 1371.52 183.653 1371 186M1660 179L1659 186L1682 186C1676.79 204.504 1672.79 223.353 1668.13 242C1665.93 250.778 1662.47 262.141 1666.23 270.996C1670.37 280.766 1683.26 280.44 1692 278.073C1708.78 273.526 1723.04 253.676 1726 237C1717.66 237.099 1716.87 242.529 1713.12 249C1710.38 253.737 1706.92 258.154 1702.99 261.957C1700.49 264.372 1696.87 267.853 1693.05 267.468C1684.97 266.656 1691.02 250.442 1692.13 246C1697.85 223.096 1705.85 199.383 1709 176C1692.67 176.135 1676.41 179 1660 179z"/>
<path style="fill:#010101; stroke:none;" d="M913 183.573C905.823 185.635 902.596 193.582 900.345 200C894.515 216.62 888.305 235.33 887.089 253C886.386 263.23 890.423 274.474 903 271.606C910.648 269.861 914.614 262.476 917.742 256C923.106 244.894 925.619 232.001 928.21 220C929.694 213.125 931.734 206.068 931.957 199C932.308 187.872 924.182 180.36 913 183.573M1211 183.742C1203.75 186.518 1200.3 195.227 1198 202C1192.19 219.158 1187.5 238.004 1185.29 256C1184.02 266.329 1188.39 274.702 1200 271.2C1208.23 268.717 1213.38 261.219 1217.22 254C1225.06 239.248 1231.45 222.941 1231.87 206C1232.15 194.618 1225.16 178.326 1211 183.742M461 266C471.145 265.445 477.872 255.997 484.169 249C493.657 238.457 502.472 227.559 510.709 216C516.56 207.788 522.639 198.939 525 189C519.267 189.564 513.55 186.427 508 188.653C500.615 191.615 495.11 199.029 490.261 205C477.035 221.286 461.18 244.21 461 266M1781.33 201.667C1781.28 201.722 1781.22 202.778 1781.67 202.333C1781.72 202.278 1781.78 201.222 1781.33 201.667M1413 202L1414 203L1413 202M518 220L519 221L518 220z"/>
</svg>
